<mxfile host="app.diagrams.net" agent="Mozilla/5.0 (Windows NT 10.0; Win64; x64) AppleWebKit/537.36 (KHTML, like Gecko) Chrome/129.0.0.0 Safari/537.36" version="24.7.17" pages="7">
  <diagram name="password check" id="KVi_2mQVmErIWG6Ddh9i">
    <mxGraphModel dx="1434" dy="738" grid="1" gridSize="10" guides="1" tooltips="1" connect="1" arrows="1" fold="1" page="1" pageScale="1" pageWidth="827" pageHeight="1169" background="#99CCFF" math="0" shadow="0">
      <root>
        <mxCell id="0" />
        <mxCell id="1" parent="0" />
        <mxCell id="nuF4nA1irHn2rMdNCrO3-1" value="start" style="ellipse;whiteSpace=wrap;html=1;fillColor=#dae8fc;strokeColor=#6c8ebf;" parent="1" vertex="1">
          <mxGeometry x="359" width="120" height="50" as="geometry" />
        </mxCell>
        <mxCell id="nuF4nA1irHn2rMdNCrO3-2" value="&lt;font style=&quot;font-size: 20px;&quot;&gt;Password check&lt;/font&gt;" style="text;html=1;align=center;verticalAlign=middle;resizable=0;points=[];autosize=1;strokeColor=none;fillColor=none;" parent="1" vertex="1">
          <mxGeometry x="10" y="20" width="170" height="40" as="geometry" />
        </mxCell>
        <mxCell id="nuF4nA1irHn2rMdNCrO3-4" value="collect password from post on html page" style="shape=parallelogram;perimeter=parallelogramPerimeter;whiteSpace=wrap;html=1;fixedSize=1;fillColor=#dae8fc;strokeColor=#6c8ebf;" parent="1" vertex="1">
          <mxGeometry x="344" y="73" width="140" height="60" as="geometry" />
        </mxCell>
        <mxCell id="nuF4nA1irHn2rMdNCrO3-29" style="edgeStyle=orthogonalEdgeStyle;rounded=0;orthogonalLoop=1;jettySize=auto;html=1;exitX=1;exitY=0;exitDx=0;exitDy=0;entryX=0;entryY=0.5;entryDx=0;entryDy=0;fillColor=#dae8fc;strokeColor=#000000;" parent="1" source="nuF4nA1irHn2rMdNCrO3-5" target="nuF4nA1irHn2rMdNCrO3-6" edge="1">
          <mxGeometry relative="1" as="geometry" />
        </mxCell>
        <mxCell id="nuF4nA1irHn2rMdNCrO3-30" style="edgeStyle=orthogonalEdgeStyle;rounded=0;orthogonalLoop=1;jettySize=auto;html=1;exitX=0.5;exitY=1;exitDx=0;exitDy=0;entryX=0.5;entryY=0;entryDx=0;entryDy=0;fillColor=#dae8fc;strokeColor=#000000;" parent="1" source="nuF4nA1irHn2rMdNCrO3-5" target="nuF4nA1irHn2rMdNCrO3-7" edge="1">
          <mxGeometry relative="1" as="geometry" />
        </mxCell>
        <mxCell id="nuF4nA1irHn2rMdNCrO3-5" value="check if password is longer than 8 characters" style="rhombus;whiteSpace=wrap;html=1;fillColor=#dae8fc;strokeColor=#000000;" parent="1" vertex="1">
          <mxGeometry x="360" y="393" width="120" height="120" as="geometry" />
        </mxCell>
        <mxCell id="nuF4nA1irHn2rMdNCrO3-45" style="edgeStyle=orthogonalEdgeStyle;rounded=0;orthogonalLoop=1;jettySize=auto;html=1;exitX=1;exitY=0.5;exitDx=0;exitDy=0;" parent="1" source="nuF4nA1irHn2rMdNCrO3-6" edge="1">
          <mxGeometry relative="1" as="geometry">
            <mxPoint x="760" y="423" as="targetPoint" />
          </mxGeometry>
        </mxCell>
        <mxCell id="nuF4nA1irHn2rMdNCrO3-6" value="too short - password is insecure" style="shape=parallelogram;perimeter=parallelogramPerimeter;whiteSpace=wrap;html=1;fixedSize=1;fillColor=#dae8fc;strokeColor=#6c8ebf;" parent="1" vertex="1">
          <mxGeometry x="577" y="393" width="120" height="60" as="geometry" />
        </mxCell>
        <mxCell id="nuF4nA1irHn2rMdNCrO3-31" style="edgeStyle=orthogonalEdgeStyle;rounded=0;orthogonalLoop=1;jettySize=auto;html=1;exitX=1;exitY=0;exitDx=0;exitDy=0;entryX=0;entryY=0.5;entryDx=0;entryDy=0;fillColor=#dae8fc;strokeColor=#000000;" parent="1" source="nuF4nA1irHn2rMdNCrO3-7" target="nuF4nA1irHn2rMdNCrO3-8" edge="1">
          <mxGeometry relative="1" as="geometry" />
        </mxCell>
        <mxCell id="nuF4nA1irHn2rMdNCrO3-32" style="edgeStyle=orthogonalEdgeStyle;rounded=0;orthogonalLoop=1;jettySize=auto;html=1;exitX=0.5;exitY=1;exitDx=0;exitDy=0;entryX=0.5;entryY=0;entryDx=0;entryDy=0;fillColor=#dae8fc;strokeColor=#000000;" parent="1" source="nuF4nA1irHn2rMdNCrO3-7" target="nuF4nA1irHn2rMdNCrO3-9" edge="1">
          <mxGeometry relative="1" as="geometry" />
        </mxCell>
        <mxCell id="nuF4nA1irHn2rMdNCrO3-7" value="check if password has a special character" style="rhombus;whiteSpace=wrap;html=1;fillColor=#dae8fc;strokeColor=#000000;" parent="1" vertex="1">
          <mxGeometry x="360" y="533" width="120" height="120" as="geometry" />
        </mxCell>
        <mxCell id="nuF4nA1irHn2rMdNCrO3-46" style="edgeStyle=orthogonalEdgeStyle;rounded=0;orthogonalLoop=1;jettySize=auto;html=1;exitX=1;exitY=0.5;exitDx=0;exitDy=0;" parent="1" source="nuF4nA1irHn2rMdNCrO3-8" edge="1">
          <mxGeometry relative="1" as="geometry">
            <mxPoint x="760" y="563" as="targetPoint" />
          </mxGeometry>
        </mxCell>
        <mxCell id="nuF4nA1irHn2rMdNCrO3-8" value="no special character - password is insecure" style="shape=parallelogram;perimeter=parallelogramPerimeter;whiteSpace=wrap;html=1;fixedSize=1;fillColor=#dae8fc;strokeColor=#6c8ebf;" parent="1" vertex="1">
          <mxGeometry x="577" y="533" width="120" height="60" as="geometry" />
        </mxCell>
        <mxCell id="nuF4nA1irHn2rMdNCrO3-34" style="edgeStyle=orthogonalEdgeStyle;rounded=0;orthogonalLoop=1;jettySize=auto;html=1;exitX=1;exitY=0;exitDx=0;exitDy=0;entryX=0;entryY=0.25;entryDx=0;entryDy=0;fillColor=#dae8fc;strokeColor=#000000;" parent="1" source="nuF4nA1irHn2rMdNCrO3-9" target="nuF4nA1irHn2rMdNCrO3-10" edge="1">
          <mxGeometry relative="1" as="geometry" />
        </mxCell>
        <mxCell id="nuF4nA1irHn2rMdNCrO3-35" style="edgeStyle=orthogonalEdgeStyle;rounded=0;orthogonalLoop=1;jettySize=auto;html=1;exitX=0.5;exitY=1;exitDx=0;exitDy=0;entryX=0.5;entryY=0;entryDx=0;entryDy=0;fillColor=#dae8fc;strokeColor=#000000;" parent="1" source="nuF4nA1irHn2rMdNCrO3-9" target="nuF4nA1irHn2rMdNCrO3-11" edge="1">
          <mxGeometry relative="1" as="geometry" />
        </mxCell>
        <mxCell id="nuF4nA1irHn2rMdNCrO3-9" value="check if password has an uppercase letter" style="rhombus;whiteSpace=wrap;html=1;fillColor=#dae8fc;strokeColor=#000000;" parent="1" vertex="1">
          <mxGeometry x="359" y="683" width="120" height="120" as="geometry" />
        </mxCell>
        <mxCell id="nuF4nA1irHn2rMdNCrO3-47" style="edgeStyle=orthogonalEdgeStyle;rounded=0;orthogonalLoop=1;jettySize=auto;html=1;exitX=1;exitY=0.5;exitDx=0;exitDy=0;" parent="1" source="nuF4nA1irHn2rMdNCrO3-10" edge="1">
          <mxGeometry relative="1" as="geometry">
            <mxPoint x="760" y="723" as="targetPoint" />
          </mxGeometry>
        </mxCell>
        <mxCell id="nuF4nA1irHn2rMdNCrO3-10" value="no uppercase - password is insecure" style="shape=parallelogram;perimeter=parallelogramPerimeter;whiteSpace=wrap;html=1;fixedSize=1;fillColor=#dae8fc;strokeColor=#6c8ebf;" parent="1" vertex="1">
          <mxGeometry x="570" y="693" width="120" height="60" as="geometry" />
        </mxCell>
        <mxCell id="nuF4nA1irHn2rMdNCrO3-36" style="edgeStyle=orthogonalEdgeStyle;rounded=0;orthogonalLoop=1;jettySize=auto;html=1;exitX=1;exitY=0;exitDx=0;exitDy=0;fillColor=#dae8fc;strokeColor=#000000;" parent="1" source="nuF4nA1irHn2rMdNCrO3-11" target="nuF4nA1irHn2rMdNCrO3-12" edge="1">
          <mxGeometry relative="1" as="geometry" />
        </mxCell>
        <mxCell id="nuF4nA1irHn2rMdNCrO3-37" style="edgeStyle=orthogonalEdgeStyle;rounded=0;orthogonalLoop=1;jettySize=auto;html=1;exitX=0.5;exitY=1;exitDx=0;exitDy=0;fillColor=#dae8fc;strokeColor=#000000;" parent="1" source="nuF4nA1irHn2rMdNCrO3-11" edge="1">
          <mxGeometry relative="1" as="geometry">
            <mxPoint x="419" y="970" as="targetPoint" />
          </mxGeometry>
        </mxCell>
        <mxCell id="nuF4nA1irHn2rMdNCrO3-11" value="check if password has a lowercase letter" style="rhombus;whiteSpace=wrap;html=1;fillColor=#dae8fc;strokeColor=#000000;" parent="1" vertex="1">
          <mxGeometry x="359" y="833" width="120" height="120" as="geometry" />
        </mxCell>
        <mxCell id="nuF4nA1irHn2rMdNCrO3-48" style="edgeStyle=orthogonalEdgeStyle;rounded=0;orthogonalLoop=1;jettySize=auto;html=1;exitX=1;exitY=0.5;exitDx=0;exitDy=0;" parent="1" source="nuF4nA1irHn2rMdNCrO3-12" edge="1">
          <mxGeometry relative="1" as="geometry">
            <mxPoint x="760" y="863" as="targetPoint" />
          </mxGeometry>
        </mxCell>
        <mxCell id="nuF4nA1irHn2rMdNCrO3-12" value="no lowercase - password is insecure" style="shape=parallelogram;perimeter=parallelogramPerimeter;whiteSpace=wrap;html=1;fixedSize=1;fillColor=#dae8fc;strokeColor=#6c8ebf;" parent="1" vertex="1">
          <mxGeometry x="570" y="833" width="120" height="60" as="geometry" />
        </mxCell>
        <mxCell id="nuF4nA1irHn2rMdNCrO3-38" style="edgeStyle=orthogonalEdgeStyle;rounded=0;orthogonalLoop=1;jettySize=auto;html=1;exitX=1;exitY=0;exitDx=0;exitDy=0;entryX=0;entryY=0.25;entryDx=0;entryDy=0;fillColor=#dae8fc;strokeColor=#000000;" parent="1" source="nuF4nA1irHn2rMdNCrO3-14" target="nuF4nA1irHn2rMdNCrO3-15" edge="1">
          <mxGeometry relative="1" as="geometry" />
        </mxCell>
        <mxCell id="nuF4nA1irHn2rMdNCrO3-39" style="edgeStyle=orthogonalEdgeStyle;rounded=0;orthogonalLoop=1;jettySize=auto;html=1;exitX=0.5;exitY=1;exitDx=0;exitDy=0;entryX=0.5;entryY=0;entryDx=0;entryDy=0;fillColor=#dae8fc;strokeColor=#000000;" parent="1" source="nuF4nA1irHn2rMdNCrO3-14" target="nuF4nA1irHn2rMdNCrO3-22" edge="1">
          <mxGeometry relative="1" as="geometry" />
        </mxCell>
        <mxCell id="nuF4nA1irHn2rMdNCrO3-14" value="check if password has a number" style="rhombus;whiteSpace=wrap;html=1;fillColor=#dae8fc;strokeColor=#000000;" parent="1" vertex="1">
          <mxGeometry x="361" y="973" width="120" height="120" as="geometry" />
        </mxCell>
        <mxCell id="nuF4nA1irHn2rMdNCrO3-40" style="edgeStyle=orthogonalEdgeStyle;rounded=0;orthogonalLoop=1;jettySize=auto;html=1;exitX=0.5;exitY=1;exitDx=0;exitDy=0;entryX=0.5;entryY=0;entryDx=0;entryDy=0;fillColor=#dae8fc;strokeColor=#000000;" parent="1" source="nuF4nA1irHn2rMdNCrO3-15" target="nuF4nA1irHn2rMdNCrO3-21" edge="1">
          <mxGeometry relative="1" as="geometry" />
        </mxCell>
        <mxCell id="nuF4nA1irHn2rMdNCrO3-49" style="edgeStyle=orthogonalEdgeStyle;rounded=0;orthogonalLoop=1;jettySize=auto;html=1;exitX=1;exitY=0.5;exitDx=0;exitDy=0;" parent="1" source="nuF4nA1irHn2rMdNCrO3-15" edge="1">
          <mxGeometry relative="1" as="geometry">
            <mxPoint x="760" y="1003" as="targetPoint" />
          </mxGeometry>
        </mxCell>
        <mxCell id="nuF4nA1irHn2rMdNCrO3-15" value="no number - password is insecure" style="shape=parallelogram;perimeter=parallelogramPerimeter;whiteSpace=wrap;html=1;fixedSize=1;fillColor=#dae8fc;strokeColor=#6c8ebf;" parent="1" vertex="1">
          <mxGeometry x="570" y="973" width="120" height="60" as="geometry" />
        </mxCell>
        <mxCell id="nuF4nA1irHn2rMdNCrO3-26" style="edgeStyle=orthogonalEdgeStyle;rounded=0;orthogonalLoop=1;jettySize=auto;html=1;exitX=0.5;exitY=1;exitDx=0;exitDy=0;entryX=0.5;entryY=0;entryDx=0;entryDy=0;fillColor=#dae8fc;strokeColor=#000000;" parent="1" source="nuF4nA1irHn2rMdNCrO3-16" target="nuF4nA1irHn2rMdNCrO3-17" edge="1">
          <mxGeometry relative="1" as="geometry" />
        </mxCell>
        <mxCell id="nuF4nA1irHn2rMdNCrO3-16" value="collect confirm password from post on html page" style="shape=parallelogram;perimeter=parallelogramPerimeter;whiteSpace=wrap;html=1;fixedSize=1;fillColor=#dae8fc;strokeColor=#6c8ebf;" parent="1" vertex="1">
          <mxGeometry x="341" y="173" width="140" height="60" as="geometry" />
        </mxCell>
        <mxCell id="nuF4nA1irHn2rMdNCrO3-27" style="edgeStyle=orthogonalEdgeStyle;rounded=0;orthogonalLoop=1;jettySize=auto;html=1;exitX=1;exitY=0;exitDx=0;exitDy=0;fillColor=#dae8fc;strokeColor=#000000;" parent="1" source="nuF4nA1irHn2rMdNCrO3-17" target="nuF4nA1irHn2rMdNCrO3-18" edge="1">
          <mxGeometry relative="1" as="geometry" />
        </mxCell>
        <mxCell id="nuF4nA1irHn2rMdNCrO3-28" style="edgeStyle=orthogonalEdgeStyle;rounded=0;orthogonalLoop=1;jettySize=auto;html=1;exitX=0.5;exitY=1;exitDx=0;exitDy=0;fillColor=#dae8fc;strokeColor=#000000;" parent="1" source="nuF4nA1irHn2rMdNCrO3-17" edge="1">
          <mxGeometry relative="1" as="geometry">
            <mxPoint x="421" y="390" as="targetPoint" />
          </mxGeometry>
        </mxCell>
        <mxCell id="nuF4nA1irHn2rMdNCrO3-17" value="check if password and confirm password are the same " style="rhombus;whiteSpace=wrap;html=1;fillColor=#dae8fc;strokeColor=#000000;" parent="1" vertex="1">
          <mxGeometry x="361" y="253" width="120" height="120" as="geometry" />
        </mxCell>
        <mxCell id="nuF4nA1irHn2rMdNCrO3-44" style="edgeStyle=orthogonalEdgeStyle;rounded=0;orthogonalLoop=1;jettySize=auto;html=1;exitX=1;exitY=0.5;exitDx=0;exitDy=0;" parent="1" source="nuF4nA1irHn2rMdNCrO3-18" edge="1">
          <mxGeometry relative="1" as="geometry">
            <mxPoint x="760" y="283" as="targetPoint" />
          </mxGeometry>
        </mxCell>
        <mxCell id="nuF4nA1irHn2rMdNCrO3-18" value="password do not match" style="shape=parallelogram;perimeter=parallelogramPerimeter;whiteSpace=wrap;html=1;fixedSize=1;fillColor=#dae8fc;strokeColor=#6c8ebf;" parent="1" vertex="1">
          <mxGeometry x="570" y="253" width="120" height="60" as="geometry" />
        </mxCell>
        <mxCell id="nuF4nA1irHn2rMdNCrO3-51" style="edgeStyle=orthogonalEdgeStyle;rounded=0;orthogonalLoop=1;jettySize=auto;html=1;exitX=0.5;exitY=1;exitDx=0;exitDy=0;fillColor=#dae8fc;strokeColor=#000000;" parent="1" source="nuF4nA1irHn2rMdNCrO3-21" target="nuF4nA1irHn2rMdNCrO3-23" edge="1">
          <mxGeometry relative="1" as="geometry" />
        </mxCell>
        <mxCell id="nuF4nA1irHn2rMdNCrO3-21" value="redirected to input page to get deatails again" style="rounded=1;whiteSpace=wrap;html=1;fillColor=#dae8fc;strokeColor=#6c8ebf;" parent="1" vertex="1">
          <mxGeometry x="570" y="1080" width="120" height="60" as="geometry" />
        </mxCell>
        <mxCell id="nuF4nA1irHn2rMdNCrO3-50" style="edgeStyle=orthogonalEdgeStyle;rounded=0;orthogonalLoop=1;jettySize=auto;html=1;exitX=0.5;exitY=1;exitDx=0;exitDy=0;fillColor=#dae8fc;strokeColor=#000000;" parent="1" source="nuF4nA1irHn2rMdNCrO3-22" target="nuF4nA1irHn2rMdNCrO3-23" edge="1">
          <mxGeometry relative="1" as="geometry" />
        </mxCell>
        <mxCell id="nuF4nA1irHn2rMdNCrO3-22" value="redirected to login page for added security" style="rounded=1;whiteSpace=wrap;html=1;fillColor=#dae8fc;strokeColor=#000000;" parent="1" vertex="1">
          <mxGeometry x="364" y="1130" width="120" height="60" as="geometry" />
        </mxCell>
        <mxCell id="nuF4nA1irHn2rMdNCrO3-23" value="stop" style="ellipse;whiteSpace=wrap;html=1;fillColor=#dae8fc;strokeColor=#000000;" parent="1" vertex="1">
          <mxGeometry x="480" y="1270" width="120" height="80" as="geometry" />
        </mxCell>
        <mxCell id="nuF4nA1irHn2rMdNCrO3-24" style="edgeStyle=orthogonalEdgeStyle;rounded=0;orthogonalLoop=1;jettySize=auto;html=1;exitX=0.5;exitY=1;exitDx=0;exitDy=0;entryX=0.571;entryY=0.033;entryDx=0;entryDy=0;entryPerimeter=0;fillColor=#dae8fc;strokeColor=#000000;" parent="1" source="nuF4nA1irHn2rMdNCrO3-1" target="nuF4nA1irHn2rMdNCrO3-4" edge="1">
          <mxGeometry relative="1" as="geometry" />
        </mxCell>
        <mxCell id="nuF4nA1irHn2rMdNCrO3-25" style="edgeStyle=orthogonalEdgeStyle;rounded=0;orthogonalLoop=1;jettySize=auto;html=1;exitX=0.5;exitY=1;exitDx=0;exitDy=0;entryX=0.521;entryY=0.117;entryDx=0;entryDy=0;entryPerimeter=0;fillColor=#dae8fc;strokeColor=#000000;" parent="1" source="nuF4nA1irHn2rMdNCrO3-4" target="nuF4nA1irHn2rMdNCrO3-16" edge="1">
          <mxGeometry relative="1" as="geometry" />
        </mxCell>
        <mxCell id="nuF4nA1irHn2rMdNCrO3-42" value="" style="endArrow=classic;html=1;rounded=0;" parent="1" edge="1">
          <mxGeometry width="50" height="50" relative="1" as="geometry">
            <mxPoint x="760" y="280" as="sourcePoint" />
            <mxPoint x="760" y="1130" as="targetPoint" />
          </mxGeometry>
        </mxCell>
        <mxCell id="nuF4nA1irHn2rMdNCrO3-43" value="" style="endArrow=classic;html=1;rounded=0;entryX=1;entryY=0.5;entryDx=0;entryDy=0;" parent="1" target="nuF4nA1irHn2rMdNCrO3-21" edge="1">
          <mxGeometry width="50" height="50" relative="1" as="geometry">
            <mxPoint x="760" y="1130" as="sourcePoint" />
            <mxPoint x="440" y="1060" as="targetPoint" />
          </mxGeometry>
        </mxCell>
        <mxCell id="U2crhEoSYMOPc_v2Pju1-1" value="yes" style="text;html=1;align=center;verticalAlign=middle;resizable=0;points=[];autosize=1;strokeColor=none;fillColor=none;" vertex="1" parent="1">
          <mxGeometry x="500" y="248" width="40" height="30" as="geometry" />
        </mxCell>
        <mxCell id="U2crhEoSYMOPc_v2Pju1-2" value="no" style="text;html=1;align=center;verticalAlign=middle;resizable=0;points=[];autosize=1;strokeColor=none;fillColor=none;" vertex="1" parent="1">
          <mxGeometry x="414" y="358" width="40" height="30" as="geometry" />
        </mxCell>
        <mxCell id="U2crhEoSYMOPc_v2Pju1-3" value="no" style="text;html=1;align=center;verticalAlign=middle;resizable=0;points=[];autosize=1;strokeColor=none;fillColor=none;" vertex="1" parent="1">
          <mxGeometry x="490" y="398" width="40" height="30" as="geometry" />
        </mxCell>
        <mxCell id="U2crhEoSYMOPc_v2Pju1-4" value="yes" style="text;html=1;align=center;verticalAlign=middle;resizable=0;points=[];autosize=1;strokeColor=none;fillColor=none;" vertex="1" parent="1">
          <mxGeometry x="420" y="498" width="40" height="30" as="geometry" />
        </mxCell>
        <mxCell id="U2crhEoSYMOPc_v2Pju1-5" value="no" style="text;html=1;align=center;verticalAlign=middle;resizable=0;points=[];autosize=1;strokeColor=none;fillColor=none;" vertex="1" parent="1">
          <mxGeometry x="490" y="568" width="40" height="30" as="geometry" />
        </mxCell>
        <mxCell id="U2crhEoSYMOPc_v2Pju1-6" value="yes" style="text;html=1;align=center;verticalAlign=middle;resizable=0;points=[];autosize=1;strokeColor=none;fillColor=none;" vertex="1" parent="1">
          <mxGeometry x="420" y="638" width="40" height="30" as="geometry" />
        </mxCell>
        <mxCell id="U2crhEoSYMOPc_v2Pju1-7" value="no" style="text;html=1;align=center;verticalAlign=middle;resizable=0;points=[];autosize=1;strokeColor=none;fillColor=none;" vertex="1" parent="1">
          <mxGeometry x="470" y="718" width="40" height="30" as="geometry" />
        </mxCell>
        <mxCell id="U2crhEoSYMOPc_v2Pju1-8" value="yes" style="text;html=1;align=center;verticalAlign=middle;resizable=0;points=[];autosize=1;strokeColor=none;fillColor=none;" vertex="1" parent="1">
          <mxGeometry x="420" y="798" width="40" height="30" as="geometry" />
        </mxCell>
        <mxCell id="U2crhEoSYMOPc_v2Pju1-9" value="yes" style="text;html=1;align=center;verticalAlign=middle;resizable=0;points=[];autosize=1;strokeColor=none;fillColor=none;" vertex="1" parent="1">
          <mxGeometry x="420" y="943" width="40" height="30" as="geometry" />
        </mxCell>
        <mxCell id="U2crhEoSYMOPc_v2Pju1-10" value="no" style="text;html=1;align=center;verticalAlign=middle;resizable=0;points=[];autosize=1;strokeColor=none;fillColor=none;" vertex="1" parent="1">
          <mxGeometry x="500" y="878" width="40" height="30" as="geometry" />
        </mxCell>
        <mxCell id="U2crhEoSYMOPc_v2Pju1-11" value="yes" style="text;html=1;align=center;verticalAlign=middle;resizable=0;points=[];autosize=1;strokeColor=none;fillColor=none;" vertex="1" parent="1">
          <mxGeometry x="430" y="1090" width="40" height="30" as="geometry" />
        </mxCell>
        <mxCell id="U2crhEoSYMOPc_v2Pju1-12" value="no" style="text;html=1;align=center;verticalAlign=middle;resizable=0;points=[];autosize=1;strokeColor=none;fillColor=none;" vertex="1" parent="1">
          <mxGeometry x="490" y="1008" width="40" height="30" as="geometry" />
        </mxCell>
      </root>
    </mxGraphModel>
  </diagram>
  <diagram name="database connection" id="qmUF_2bEewQ7P0KMFLZa">
    <mxGraphModel dx="1434" dy="738" grid="1" gridSize="10" guides="1" tooltips="1" connect="1" arrows="1" fold="1" page="1" pageScale="1" pageWidth="827" pageHeight="1169" background="#99CCFF" math="0" shadow="0">
      <root>
        <mxCell id="2ti6nZITkP4i-4kqUOef-0" />
        <mxCell id="2ti6nZITkP4i-4kqUOef-1" parent="2ti6nZITkP4i-4kqUOef-0" />
        <mxCell id="YlX_Aha-fQKsf8Kk60vw-2" value="" style="edgeStyle=orthogonalEdgeStyle;rounded=0;orthogonalLoop=1;jettySize=auto;html=1;strokeColor=#000000;" parent="2ti6nZITkP4i-4kqUOef-1" source="2ti6nZITkP4i-4kqUOef-2" target="YlX_Aha-fQKsf8Kk60vw-0" edge="1">
          <mxGeometry relative="1" as="geometry" />
        </mxCell>
        <mxCell id="2ti6nZITkP4i-4kqUOef-2" value="start" style="ellipse;whiteSpace=wrap;html=1;fillColor=#dae8fc;strokeColor=#000000;" parent="2ti6nZITkP4i-4kqUOef-1" vertex="1">
          <mxGeometry x="359" width="120" height="50" as="geometry" />
        </mxCell>
        <mxCell id="2ti6nZITkP4i-4kqUOef-3" value="&lt;font style=&quot;font-size: 22px;&quot;&gt;Database Connection&lt;/font&gt;" style="text;html=1;align=center;verticalAlign=middle;resizable=0;points=[];autosize=1;strokeColor=none;fillColor=none;" parent="2ti6nZITkP4i-4kqUOef-1" vertex="1">
          <mxGeometry x="30" y="20" width="240" height="40" as="geometry" />
        </mxCell>
        <mxCell id="YlX_Aha-fQKsf8Kk60vw-4" value="" style="edgeStyle=orthogonalEdgeStyle;rounded=0;orthogonalLoop=1;jettySize=auto;html=1;strokeColor=#000000;" parent="2ti6nZITkP4i-4kqUOef-1" source="YlX_Aha-fQKsf8Kk60vw-0" target="YlX_Aha-fQKsf8Kk60vw-3" edge="1">
          <mxGeometry relative="1" as="geometry" />
        </mxCell>
        <mxCell id="YlX_Aha-fQKsf8Kk60vw-0" value="PDO connect to database " style="rounded=0;whiteSpace=wrap;html=1;fillColor=#dae8fc;strokeColor=#000000;" parent="2ti6nZITkP4i-4kqUOef-1" vertex="1">
          <mxGeometry x="359" y="80" width="120" height="60" as="geometry" />
        </mxCell>
        <mxCell id="YlX_Aha-fQKsf8Kk60vw-10" style="edgeStyle=orthogonalEdgeStyle;rounded=0;orthogonalLoop=1;jettySize=auto;html=1;exitX=0.5;exitY=1;exitDx=0;exitDy=0;entryX=0.5;entryY=0;entryDx=0;entryDy=0;fillColor=#dae8fc;strokeColor=#000000;" parent="2ti6nZITkP4i-4kqUOef-1" source="YlX_Aha-fQKsf8Kk60vw-3" target="YlX_Aha-fQKsf8Kk60vw-8" edge="1">
          <mxGeometry relative="1" as="geometry" />
        </mxCell>
        <mxCell id="YlX_Aha-fQKsf8Kk60vw-3" value="is connection succesfull ?" style="rhombus;whiteSpace=wrap;html=1;fillColor=#dae8fc;strokeColor=#000000;" parent="2ti6nZITkP4i-4kqUOef-1" vertex="1">
          <mxGeometry x="360" y="190" width="120" height="100" as="geometry" />
        </mxCell>
        <mxCell id="YlX_Aha-fQKsf8Kk60vw-9" style="edgeStyle=orthogonalEdgeStyle;rounded=0;orthogonalLoop=1;jettySize=auto;html=1;exitX=0.5;exitY=1;exitDx=0;exitDy=0;fillColor=#dae8fc;strokeColor=#000000;" parent="2ti6nZITkP4i-4kqUOef-1" source="YlX_Aha-fQKsf8Kk60vw-5" target="YlX_Aha-fQKsf8Kk60vw-8" edge="1">
          <mxGeometry relative="1" as="geometry" />
        </mxCell>
        <mxCell id="YlX_Aha-fQKsf8Kk60vw-5" value="connection unsuccessfull" style="shape=parallelogram;perimeter=parallelogramPerimeter;whiteSpace=wrap;html=1;fixedSize=1;fillColor=#dae8fc;strokeColor=#000000;" parent="2ti6nZITkP4i-4kqUOef-1" vertex="1">
          <mxGeometry x="530" y="290" width="120" height="60" as="geometry" />
        </mxCell>
        <mxCell id="YlX_Aha-fQKsf8Kk60vw-6" style="edgeStyle=orthogonalEdgeStyle;rounded=0;orthogonalLoop=1;jettySize=auto;html=1;exitX=1;exitY=0.5;exitDx=0;exitDy=0;entryX=0.617;entryY=0;entryDx=0;entryDy=0;entryPerimeter=0;fillColor=#dae8fc;strokeColor=#000000;" parent="2ti6nZITkP4i-4kqUOef-1" source="YlX_Aha-fQKsf8Kk60vw-3" target="YlX_Aha-fQKsf8Kk60vw-5" edge="1">
          <mxGeometry relative="1" as="geometry" />
        </mxCell>
        <mxCell id="YlX_Aha-fQKsf8Kk60vw-8" value="stop" style="ellipse;whiteSpace=wrap;html=1;fillColor=#dae8fc;strokeColor=#000000;" parent="2ti6nZITkP4i-4kqUOef-1" vertex="1">
          <mxGeometry x="359" y="485" width="120" height="50" as="geometry" />
        </mxCell>
        <mxCell id="3YdbP_LBpYn0JLe3WWIi-0" value="yes" style="text;html=1;align=center;verticalAlign=middle;resizable=0;points=[];autosize=1;strokeColor=none;fillColor=none;" vertex="1" parent="2ti6nZITkP4i-4kqUOef-1">
          <mxGeometry x="370" y="298" width="40" height="30" as="geometry" />
        </mxCell>
        <mxCell id="3YdbP_LBpYn0JLe3WWIi-1" value="no" style="text;html=1;align=center;verticalAlign=middle;resizable=0;points=[];autosize=1;strokeColor=none;fillColor=none;" vertex="1" parent="2ti6nZITkP4i-4kqUOef-1">
          <mxGeometry x="520" y="208" width="40" height="30" as="geometry" />
        </mxCell>
      </root>
    </mxGraphModel>
  </diagram>
  <diagram name="Profile" id="_g8adeSNPieGodLGPkab">
    <mxGraphModel dx="1434" dy="738" grid="1" gridSize="10" guides="1" tooltips="1" connect="1" arrows="1" fold="1" page="1" pageScale="1" pageWidth="827" pageHeight="1169" background="#99CCFF" math="0" shadow="0">
      <root>
        <mxCell id="MH0WF0bPyfxmLMOCAN0U-0" />
        <mxCell id="MH0WF0bPyfxmLMOCAN0U-1" parent="MH0WF0bPyfxmLMOCAN0U-0" />
        <mxCell id="MH0WF0bPyfxmLMOCAN0U-2" value="" style="edgeStyle=orthogonalEdgeStyle;rounded=0;orthogonalLoop=1;jettySize=auto;html=1;strokeColor=#000000;" parent="MH0WF0bPyfxmLMOCAN0U-1" source="MH0WF0bPyfxmLMOCAN0U-3" target="MH0WF0bPyfxmLMOCAN0U-6" edge="1">
          <mxGeometry relative="1" as="geometry" />
        </mxCell>
        <mxCell id="MH0WF0bPyfxmLMOCAN0U-3" value="start" style="ellipse;whiteSpace=wrap;html=1;fillColor=#dae8fc;strokeColor=#000000;" parent="MH0WF0bPyfxmLMOCAN0U-1" vertex="1">
          <mxGeometry x="359" width="120" height="50" as="geometry" />
        </mxCell>
        <mxCell id="MH0WF0bPyfxmLMOCAN0U-4" value="Profile" style="text;html=1;align=center;verticalAlign=middle;resizable=0;points=[];autosize=1;strokeColor=none;fillColor=none;fontSize=27;" parent="MH0WF0bPyfxmLMOCAN0U-1" vertex="1">
          <mxGeometry x="100" y="15" width="100" height="50" as="geometry" />
        </mxCell>
        <mxCell id="MH0WF0bPyfxmLMOCAN0U-5" value="" style="edgeStyle=orthogonalEdgeStyle;rounded=0;orthogonalLoop=1;jettySize=auto;html=1;strokeColor=#000000;" parent="MH0WF0bPyfxmLMOCAN0U-1" source="MH0WF0bPyfxmLMOCAN0U-6" target="MH0WF0bPyfxmLMOCAN0U-8" edge="1">
          <mxGeometry relative="1" as="geometry" />
        </mxCell>
        <mxCell id="MH0WF0bPyfxmLMOCAN0U-6" value="Start session" style="rounded=0;whiteSpace=wrap;html=1;fillColor=#dae8fc;strokeColor=#000000;" parent="MH0WF0bPyfxmLMOCAN0U-1" vertex="1">
          <mxGeometry x="359" y="80" width="120" height="60" as="geometry" />
        </mxCell>
        <mxCell id="16n8l2gKNcNnMSWwFV4u-4" value="" style="edgeStyle=orthogonalEdgeStyle;rounded=0;orthogonalLoop=1;jettySize=auto;html=1;" parent="MH0WF0bPyfxmLMOCAN0U-1" source="MH0WF0bPyfxmLMOCAN0U-8" target="16n8l2gKNcNnMSWwFV4u-3" edge="1">
          <mxGeometry relative="1" as="geometry" />
        </mxCell>
        <mxCell id="MH0WF0bPyfxmLMOCAN0U-8" value="is the user logged in" style="rhombus;whiteSpace=wrap;html=1;fillColor=#dae8fc;strokeColor=#000000;" parent="MH0WF0bPyfxmLMOCAN0U-1" vertex="1">
          <mxGeometry x="360" y="190" width="120" height="100" as="geometry" />
        </mxCell>
        <mxCell id="MH0WF0bPyfxmLMOCAN0U-11" style="edgeStyle=orthogonalEdgeStyle;rounded=0;orthogonalLoop=1;jettySize=auto;html=1;exitX=1;exitY=0.5;exitDx=0;exitDy=0;entryX=0;entryY=0.5;entryDx=0;entryDy=0;fillColor=#dae8fc;strokeColor=#000000;" parent="MH0WF0bPyfxmLMOCAN0U-1" source="MH0WF0bPyfxmLMOCAN0U-8" target="16n8l2gKNcNnMSWwFV4u-1" edge="1">
          <mxGeometry relative="1" as="geometry">
            <mxPoint x="604.04" y="290" as="targetPoint" />
          </mxGeometry>
        </mxCell>
        <mxCell id="16n8l2gKNcNnMSWwFV4u-0" value="redirect to login page" style="rounded=0;whiteSpace=wrap;html=1;fillColor=#dae8fc;strokeColor=#000000;" parent="MH0WF0bPyfxmLMOCAN0U-1" vertex="1">
          <mxGeometry x="600" y="370" width="120" height="60" as="geometry" />
        </mxCell>
        <mxCell id="16n8l2gKNcNnMSWwFV4u-2" value="" style="edgeStyle=orthogonalEdgeStyle;rounded=0;orthogonalLoop=1;jettySize=auto;html=1;" parent="MH0WF0bPyfxmLMOCAN0U-1" source="16n8l2gKNcNnMSWwFV4u-1" target="16n8l2gKNcNnMSWwFV4u-0" edge="1">
          <mxGeometry relative="1" as="geometry" />
        </mxCell>
        <mxCell id="16n8l2gKNcNnMSWwFV4u-1" value="you are not currently logged in so cannot access a profile page" style="shape=parallelogram;perimeter=parallelogramPerimeter;whiteSpace=wrap;html=1;fixedSize=1;fillColor=#dae8fc;strokeColor=#000000;" parent="MH0WF0bPyfxmLMOCAN0U-1" vertex="1">
          <mxGeometry x="600" y="260" width="120" height="60" as="geometry" />
        </mxCell>
        <mxCell id="16n8l2gKNcNnMSWwFV4u-7" value="" style="edgeStyle=orthogonalEdgeStyle;rounded=0;orthogonalLoop=1;jettySize=auto;html=1;" parent="MH0WF0bPyfxmLMOCAN0U-1" source="16n8l2gKNcNnMSWwFV4u-3" target="16n8l2gKNcNnMSWwFV4u-6" edge="1">
          <mxGeometry relative="1" as="geometry" />
        </mxCell>
        <mxCell id="16n8l2gKNcNnMSWwFV4u-3" value="username = session username" style="rounded=0;whiteSpace=wrap;html=1;fillColor=#dae8fc;strokeColor=#000000;" parent="MH0WF0bPyfxmLMOCAN0U-1" vertex="1">
          <mxGeometry x="160" y="220" width="120" height="60" as="geometry" />
        </mxCell>
        <mxCell id="16n8l2gKNcNnMSWwFV4u-10" value="" style="edgeStyle=orthogonalEdgeStyle;rounded=0;orthogonalLoop=1;jettySize=auto;html=1;" parent="MH0WF0bPyfxmLMOCAN0U-1" source="16n8l2gKNcNnMSWwFV4u-6" target="16n8l2gKNcNnMSWwFV4u-8" edge="1">
          <mxGeometry relative="1" as="geometry" />
        </mxCell>
        <mxCell id="16n8l2gKNcNnMSWwFV4u-6" value="welcome to [username] profile page" style="shape=parallelogram;perimeter=parallelogramPerimeter;whiteSpace=wrap;html=1;fixedSize=1;fillColor=#dae8fc;strokeColor=#000000;" parent="MH0WF0bPyfxmLMOCAN0U-1" vertex="1">
          <mxGeometry x="160" y="330" width="120" height="60" as="geometry" />
        </mxCell>
        <mxCell id="16n8l2gKNcNnMSWwFV4u-11" value="" style="edgeStyle=orthogonalEdgeStyle;rounded=0;orthogonalLoop=1;jettySize=auto;html=1;" parent="MH0WF0bPyfxmLMOCAN0U-1" source="16n8l2gKNcNnMSWwFV4u-8" target="16n8l2gKNcNnMSWwFV4u-9" edge="1">
          <mxGeometry relative="1" as="geometry" />
        </mxCell>
        <mxCell id="16n8l2gKNcNnMSWwFV4u-8" value="select usersname, first name, lastname, email from database where username = username" style="rounded=0;whiteSpace=wrap;html=1;fillColor=#dae8fc;strokeColor=#000000;" parent="MH0WF0bPyfxmLMOCAN0U-1" vertex="1">
          <mxGeometry x="155" y="430" width="130" height="60" as="geometry" />
        </mxCell>
        <mxCell id="16n8l2gKNcNnMSWwFV4u-15" value="" style="edgeStyle=orthogonalEdgeStyle;rounded=0;orthogonalLoop=1;jettySize=auto;html=1;" parent="MH0WF0bPyfxmLMOCAN0U-1" source="16n8l2gKNcNnMSWwFV4u-9" target="16n8l2gKNcNnMSWwFV4u-14" edge="1">
          <mxGeometry relative="1" as="geometry" />
        </mxCell>
        <mxCell id="16n8l2gKNcNnMSWwFV4u-9" value="prepare sql&lt;div&gt;bind username&lt;/div&gt;&lt;div&gt;exicute sql&lt;/div&gt;&lt;div&gt;fetch result&lt;/div&gt;" style="rounded=0;whiteSpace=wrap;html=1;fillColor=#dae8fc;strokeColor=#000000;" parent="MH0WF0bPyfxmLMOCAN0U-1" vertex="1">
          <mxGeometry x="160" y="530" width="120" height="60" as="geometry" />
        </mxCell>
        <mxCell id="16n8l2gKNcNnMSWwFV4u-12" value="no" style="text;html=1;align=center;verticalAlign=middle;resizable=0;points=[];autosize=1;strokeColor=none;fillColor=none;" parent="MH0WF0bPyfxmLMOCAN0U-1" vertex="1">
          <mxGeometry x="480" y="218" width="40" height="30" as="geometry" />
        </mxCell>
        <mxCell id="16n8l2gKNcNnMSWwFV4u-13" value="yes" style="text;html=1;align=center;verticalAlign=middle;resizable=0;points=[];autosize=1;strokeColor=none;fillColor=none;" parent="MH0WF0bPyfxmLMOCAN0U-1" vertex="1">
          <mxGeometry x="320" y="208" width="40" height="30" as="geometry" />
        </mxCell>
        <mxCell id="16n8l2gKNcNnMSWwFV4u-14" value="ouput result of sql in foreach loop" style="shape=parallelogram;perimeter=parallelogramPerimeter;whiteSpace=wrap;html=1;fixedSize=1;fillColor=#dae8fc;strokeColor=#000000;" parent="MH0WF0bPyfxmLMOCAN0U-1" vertex="1">
          <mxGeometry x="160" y="630" width="120" height="60" as="geometry" />
        </mxCell>
        <mxCell id="-I780TOD9rqdE_cXYDFV-1" value="stop" style="ellipse;whiteSpace=wrap;html=1;fillColor=#dae8fc;strokeColor=#000000;" vertex="1" parent="MH0WF0bPyfxmLMOCAN0U-1">
          <mxGeometry x="360" y="800" width="120" height="50" as="geometry" />
        </mxCell>
        <mxCell id="-I780TOD9rqdE_cXYDFV-2" value="" style="endArrow=classic;html=1;rounded=0;exitX=0.5;exitY=1;exitDx=0;exitDy=0;entryX=0;entryY=0.5;entryDx=0;entryDy=0;" edge="1" parent="MH0WF0bPyfxmLMOCAN0U-1" source="16n8l2gKNcNnMSWwFV4u-14" target="-I780TOD9rqdE_cXYDFV-1">
          <mxGeometry width="50" height="50" relative="1" as="geometry">
            <mxPoint x="390" y="710" as="sourcePoint" />
            <mxPoint x="440" y="660" as="targetPoint" />
            <Array as="points">
              <mxPoint x="220" y="825" />
            </Array>
          </mxGeometry>
        </mxCell>
        <mxCell id="-I780TOD9rqdE_cXYDFV-3" value="" style="endArrow=classic;html=1;rounded=0;exitX=0.5;exitY=1;exitDx=0;exitDy=0;entryX=1;entryY=0.5;entryDx=0;entryDy=0;" edge="1" parent="MH0WF0bPyfxmLMOCAN0U-1" source="16n8l2gKNcNnMSWwFV4u-0" target="-I780TOD9rqdE_cXYDFV-1">
          <mxGeometry width="50" height="50" relative="1" as="geometry">
            <mxPoint x="390" y="610" as="sourcePoint" />
            <mxPoint x="440" y="560" as="targetPoint" />
            <Array as="points">
              <mxPoint x="650" y="825" />
            </Array>
          </mxGeometry>
        </mxCell>
      </root>
    </mxGraphModel>
  </diagram>
  <diagram name="Activity log " id="WivvqXpszbe8j1jhGmqV">
    <mxGraphModel dx="1434" dy="738" grid="1" gridSize="10" guides="1" tooltips="1" connect="1" arrows="1" fold="1" page="1" pageScale="1" pageWidth="827" pageHeight="1169" background="#99CCFF" math="0" shadow="0">
      <root>
        <mxCell id="iB8osoWcuFe3ipbjhpIw-0" />
        <mxCell id="iB8osoWcuFe3ipbjhpIw-1" parent="iB8osoWcuFe3ipbjhpIw-0" />
        <mxCell id="iB8osoWcuFe3ipbjhpIw-2" value="" style="edgeStyle=orthogonalEdgeStyle;rounded=0;orthogonalLoop=1;jettySize=auto;html=1;strokeColor=#000000;" edge="1" parent="iB8osoWcuFe3ipbjhpIw-1" source="iB8osoWcuFe3ipbjhpIw-3" target="iB8osoWcuFe3ipbjhpIw-6">
          <mxGeometry relative="1" as="geometry" />
        </mxCell>
        <mxCell id="iB8osoWcuFe3ipbjhpIw-3" value="start" style="ellipse;whiteSpace=wrap;html=1;fillColor=#dae8fc;strokeColor=#000000;" vertex="1" parent="iB8osoWcuFe3ipbjhpIw-1">
          <mxGeometry x="359" width="120" height="50" as="geometry" />
        </mxCell>
        <mxCell id="iB8osoWcuFe3ipbjhpIw-4" value="Activity Log" style="text;html=1;align=center;verticalAlign=middle;resizable=0;points=[];autosize=1;strokeColor=none;fillColor=none;fontSize=27;" vertex="1" parent="iB8osoWcuFe3ipbjhpIw-1">
          <mxGeometry x="70" y="15" width="160" height="50" as="geometry" />
        </mxCell>
        <mxCell id="Dq4UEbj41441Wku2MiTU-10" value="" style="edgeStyle=orthogonalEdgeStyle;rounded=0;orthogonalLoop=1;jettySize=auto;html=1;" edge="1" parent="iB8osoWcuFe3ipbjhpIw-1" source="iB8osoWcuFe3ipbjhpIw-6" target="D0Fx7bI6TEYKiHr45bAa-0">
          <mxGeometry relative="1" as="geometry" />
        </mxCell>
        <mxCell id="iB8osoWcuFe3ipbjhpIw-6" value="Start session" style="rounded=0;whiteSpace=wrap;html=1;fillColor=#dae8fc;strokeColor=#000000;" vertex="1" parent="iB8osoWcuFe3ipbjhpIw-1">
          <mxGeometry x="359" y="80" width="120" height="60" as="geometry" />
        </mxCell>
        <mxCell id="D0Fx7bI6TEYKiHr45bAa-0" value="userid = session userid" style="rounded=0;whiteSpace=wrap;html=1;fillColor=#dae8fc;strokeColor=#000000;" vertex="1" parent="iB8osoWcuFe3ipbjhpIw-1">
          <mxGeometry x="359" y="170" width="120" height="60" as="geometry" />
        </mxCell>
        <mxCell id="D0Fx7bI6TEYKiHr45bAa-1" value="actions = array of actions" style="rounded=0;whiteSpace=wrap;html=1;fillColor=#dae8fc;strokeColor=#000000;" vertex="1" parent="iB8osoWcuFe3ipbjhpIw-1">
          <mxGeometry x="359" y="260" width="120" height="60" as="geometry" />
        </mxCell>
        <mxCell id="Dq4UEbj41441Wku2MiTU-17" value="" style="edgeStyle=orthogonalEdgeStyle;rounded=0;orthogonalLoop=1;jettySize=auto;html=1;" edge="1" parent="iB8osoWcuFe3ipbjhpIw-1" source="D0Fx7bI6TEYKiHr45bAa-2" target="Dq4UEbj41441Wku2MiTU-0">
          <mxGeometry relative="1" as="geometry" />
        </mxCell>
        <mxCell id="D0Fx7bI6TEYKiHr45bAa-2" value="loop through array&amp;nbsp;" style="rounded=0;whiteSpace=wrap;html=1;fillColor=#dae8fc;strokeColor=#000000;" vertex="1" parent="iB8osoWcuFe3ipbjhpIw-1">
          <mxGeometry x="359" y="340" width="120" height="60" as="geometry" />
        </mxCell>
        <mxCell id="Dq4UEbj41441Wku2MiTU-18" value="" style="edgeStyle=orthogonalEdgeStyle;rounded=0;orthogonalLoop=1;jettySize=auto;html=1;" edge="1" parent="iB8osoWcuFe3ipbjhpIw-1" source="Dq4UEbj41441Wku2MiTU-0" target="Dq4UEbj41441Wku2MiTU-1">
          <mxGeometry relative="1" as="geometry" />
        </mxCell>
        <mxCell id="Dq4UEbj41441Wku2MiTU-0" value="select count(*) as count from database where userid&amp;nbsp; and activity&amp;nbsp;" style="rounded=0;whiteSpace=wrap;html=1;fillColor=#dae8fc;strokeColor=#000000;" vertex="1" parent="iB8osoWcuFe3ipbjhpIw-1">
          <mxGeometry x="354" y="430" width="120" height="60" as="geometry" />
        </mxCell>
        <mxCell id="Dq4UEbj41441Wku2MiTU-19" value="" style="edgeStyle=orthogonalEdgeStyle;rounded=0;orthogonalLoop=1;jettySize=auto;html=1;" edge="1" parent="iB8osoWcuFe3ipbjhpIw-1" source="Dq4UEbj41441Wku2MiTU-1" target="Dq4UEbj41441Wku2MiTU-3">
          <mxGeometry relative="1" as="geometry" />
        </mxCell>
        <mxCell id="Dq4UEbj41441Wku2MiTU-1" value="prepare stmt&lt;div&gt;bind parameter 1 as userid from session&lt;/div&gt;&lt;div&gt;bin darameter 2 as activity from for loop&lt;/div&gt;&lt;div&gt;exicute stament&lt;/div&gt;&lt;div&gt;fetch result&lt;/div&gt;" style="rounded=0;whiteSpace=wrap;html=1;fillColor=#dae8fc;strokeColor=#000000;" vertex="1" parent="iB8osoWcuFe3ipbjhpIw-1">
          <mxGeometry x="339" y="520" width="160" height="115" as="geometry" />
        </mxCell>
        <mxCell id="Dq4UEbj41441Wku2MiTU-20" value="" style="edgeStyle=orthogonalEdgeStyle;rounded=0;orthogonalLoop=1;jettySize=auto;html=1;" edge="1" parent="iB8osoWcuFe3ipbjhpIw-1" source="Dq4UEbj41441Wku2MiTU-3" target="Dq4UEbj41441Wku2MiTU-5">
          <mxGeometry relative="1" as="geometry" />
        </mxCell>
        <mxCell id="Dq4UEbj41441Wku2MiTU-3" value="does action = log&amp;nbsp;" style="rhombus;whiteSpace=wrap;html=1;fillColor=#dae8fc;strokeColor=#000000;" vertex="1" parent="iB8osoWcuFe3ipbjhpIw-1">
          <mxGeometry x="364" y="680" width="110" height="120" as="geometry" />
        </mxCell>
        <mxCell id="Dq4UEbj41441Wku2MiTU-4" value="does action = spc&amp;nbsp;" style="rhombus;whiteSpace=wrap;html=1;fillColor=#dae8fc;strokeColor=#000000;" vertex="1" parent="iB8osoWcuFe3ipbjhpIw-1">
          <mxGeometry x="620" y="770" width="110" height="120" as="geometry" />
        </mxCell>
        <mxCell id="Dq4UEbj41441Wku2MiTU-5" value="activity = login&lt;span style=&quot;color: rgba(0, 0, 0, 0); font-family: monospace; font-size: 0px; text-align: start; text-wrap: nowrap;&quot;&gt;%3CmxGraphModel%3E%3Croot%3E%3CmxCell%20id%3D%220%22%2F%3E%3CmxCell%20id%3D%221%22%20parent%3D%220%22%2F%3E%3CmxCell%20id%3D%222%22%20value%3D%22select%20count(*)%20as%20count%20from%20database%20where%20userid%26amp%3Bnbsp%3B%20and%20activity%26amp%3Bnbsp%3B%22%20style%3D%22rounded%3D0%3BwhiteSpace%3Dwrap%3Bhtml%3D1%3BfillColor%3D%23dae8fc%3BstrokeColor%3D%23000000%3B%22%20vertex%3D%221%22%20parent%3D%221%22%3E%3CmxGeometry%20x%3D%22354%22%20y%3D%22430%22%20width%3D%22120%22%20height%3D%2260%22%20as%3D%22geometry%22%2F%3E%3C%2FmxCell%3E%3C%2Froot%3E%3C%2FmxGraphModel%3E&lt;/span&gt;&lt;span style=&quot;color: rgba(0, 0, 0, 0); font-family: monospace; font-size: 0px; text-align: start; text-wrap: nowrap;&quot;&gt;%3CmxGraphModel%3E%3Croot%3E%3CmxCell%20id%3D%220%22%2F%3E%3CmxCell%20id%3D%221%22%20parent%3D%220%22%2F%3E%3CmxCell%20id%3D%222%22%20value%3D%22select%20count(*)%20as%20count%20from%20database%20where%20userid%26amp%3Bnbsp%3B%20and%20activity%26amp%3Bnbsp%3B%22%20style%3D%22rounded%3D0%3BwhiteSpace%3Dwrap%3Bhtml%3D1%3BfillColor%3D%23dae8fc%3BstrokeColor%3D%23000000%3B%22%20vertex%3D%221%22%20parent%3D%221%22%3E%3CmxGeometry%20x%3D%22354%22%20y%3D%22430%22%20width%3D%22120%22%20height%3D%2260%22%20as%3D%22geometry%22%2F%3E%3C%2FmxCell%3E%3C%2Froot%3E%3C%2FmxGraphModel%3E&lt;/span&gt;" style="rounded=0;whiteSpace=wrap;html=1;fillColor=#dae8fc;strokeColor=#000000;" vertex="1" parent="iB8osoWcuFe3ipbjhpIw-1">
          <mxGeometry x="140" y="720" width="120" height="60" as="geometry" />
        </mxCell>
        <mxCell id="Dq4UEbj41441Wku2MiTU-6" value="activity = successfill password change&lt;span style=&quot;color: rgba(0, 0, 0, 0); font-family: monospace; font-size: 0px; text-align: start; text-wrap: nowrap;&quot;&gt;%3CmxGraphModel%3E%3Croot%3E%3CmxCell%20id%3D%220%22%2F%3E%3CmxCell%20id%3D%221%22%20parent%3D%220%22%2F%3E%3CmxCell%20id%3D%222%22%20value%3D%22select%20count(*)%20as%20count%20from%20database%20where%20userid%26amp%3Bnbsp%3B%20and%20activity%26amp%3Bnbsp%3B%22%20style%3D%22rounded%3D0%3BwhiteSpace%3Dwrap%3Bhtml%3D1%3BfillColor%3D%23dae8fc%3BstrokeColor%3D%23000000%3B%22%20vertex%3D%221%22%20parent%3D%221%22%3E%3CmxGeometry%20x%3D%22354%22%20y%3D%22430%22%20width%3D%22120%22%20height%3D%2260%22%20as%3D%22geometry%22%2F%3E%3C%2FmxCell%3E%3C%2Froot%3E%3C%2FmxGraphModel%3E&lt;/span&gt;&lt;span style=&quot;color: rgba(0, 0, 0, 0); font-family: monospace; font-size: 0px; text-align: start; text-wrap: nowrap;&quot;&gt;%3CmxGraphModel%3E%3Croot%3E%3CmxCell%20id%3D%220%22%2F%3E%3CmxCell%20id%3D%221%22%20parent%3D%220%22%2F%3E%3CmxCell%20id%3D%222%22%20value%3D%22select%20count(*)%20as%20count%20from%20database%20where%20userid%26amp%3Bnbsp%3B%20and%20activity%26amp%3Bnbsp%3B%22%20style%3D%22rounded%3D0%3BwhiteSpace%3Dwrap%3Bhtml%3D1%3BfillColor%3D%23dae8fc%3BstrokeColor%3D%23000000%3B%22%20vertex%3D%221%22%20parent%3D%221%22%3E%3CmxGeometry%20x%3D%22354%22%20y%3D%22430%22%20width%3D%22120%22%20height%3D%2260%22%20as%3D%22geometry%22%2F%3E%3C%2FmxCell%3E%3C%2Froot%3E%3C%2FmxGraphModel%3E&lt;/span&gt;" style="rounded=0;whiteSpace=wrap;html=1;fillColor=#dae8fc;strokeColor=#000000;" vertex="1" parent="iB8osoWcuFe3ipbjhpIw-1">
          <mxGeometry x="450" y="860" width="120" height="60" as="geometry" />
        </mxCell>
        <mxCell id="Dq4UEbj41441Wku2MiTU-7" value="activity =unsucessfull password change&lt;span style=&quot;color: rgba(0, 0, 0, 0); font-family: monospace; font-size: 0px; text-align: start; text-wrap: nowrap;&quot;&gt;%3CmxGraphModel%3E%3Croot%3E%3CmxCell%20id%3D%220%22%2F%3E%3CmxCell%20id%3D%221%22%20parent%3D%220%22%2F%3E%3CmxCell%20id%3D%222%22%20value%3D%22select%20count(*)%20as%20count%20from%20database%20where%20userid%26amp%3Bnbsp%3B%20and%20activity%26amp%3Bnbsp%3B%22%20style%3D%22rounded%3D0%3BwhiteSpace%3Dwrap%3Bhtml%3D1%3BfillColor%3D%23dae8fc%3BstrokeColor%3D%23000000%3B%22%20vertex%3D%221%22%20parent%3D%221%22%3E%3CmxGeometry%20x%3D%22354%22%20y%3D%22430%22%20width%3D%22120%22%20height%3D%2260%22%20as%3D%22geometry%22%2F%3E%3C%2FmxCell%3E%3C%2Froot%3E%3C%2FmxGraphModel%3E&lt;/span&gt;&lt;span style=&quot;color: rgba(0, 0, 0, 0); font-family: monospace; font-size: 0px; text-align: start; text-wrap: nowrap;&quot;&gt;%3CmxGraphModel%3E%3Croot%3E%3CmxCell%20id%3D%220%22%2F%3E%3CmxCell%20id%3D%221%22%20parent%3D%220%22%2F%3E%3CmxCell%20id%3D%222%22%20value%3D%22select%20count(*)%20as%20count%20from%20database%20where%20userid%26amp%3Bnbsp%3B%20and%20activity%26amp%3Bnbsp%3B%22%20style%3D%22rounded%3D0%3BwhiteSpace%3Dwrap%3Bhtml%3D1%3BfillColor%3D%23dae8fc%3BstrokeColor%3D%23000000%3B%22%20vertex%3D%221%22%20parent%3D%221%22%3E%3CmxGeometry%20x%3D%22354%22%20y%3D%22430%22%20width%3D%22120%22%20height%3D%2260%22%20as%3D%22geometry%22%2F%3E%3C%2FmxCell%3E%3C%2Froot%3E%3C%2FmxGraphModel%3E&lt;/span&gt;" style="rounded=0;whiteSpace=wrap;html=1;fillColor=#dae8fc;strokeColor=#000000;" vertex="1" parent="iB8osoWcuFe3ipbjhpIw-1">
          <mxGeometry x="450" y="990" width="120" height="60" as="geometry" />
        </mxCell>
        <mxCell id="Dq4UEbj41441Wku2MiTU-8" value="output activity and activity count in table" style="shape=parallelogram;perimeter=parallelogramPerimeter;whiteSpace=wrap;html=1;fixedSize=1;fillColor=#dae8fc;strokeColor=#6c8ebf;" vertex="1" parent="iB8osoWcuFe3ipbjhpIw-1">
          <mxGeometry x="110" y="990" width="120" height="60" as="geometry" />
        </mxCell>
        <mxCell id="Dq4UEbj41441Wku2MiTU-9" value="stop" style="ellipse;whiteSpace=wrap;html=1;fillColor=#dae8fc;strokeColor=#000000;" vertex="1" parent="iB8osoWcuFe3ipbjhpIw-1">
          <mxGeometry x="270" y="1090" width="120" height="50" as="geometry" />
        </mxCell>
        <mxCell id="Dq4UEbj41441Wku2MiTU-14" value="" style="endArrow=classic;html=1;rounded=0;exitX=0.5;exitY=1;exitDx=0;exitDy=0;" edge="1" parent="iB8osoWcuFe3ipbjhpIw-1" source="D0Fx7bI6TEYKiHr45bAa-0" target="D0Fx7bI6TEYKiHr45bAa-1">
          <mxGeometry width="50" height="50" relative="1" as="geometry">
            <mxPoint x="460" y="400" as="sourcePoint" />
            <mxPoint x="510" y="350" as="targetPoint" />
          </mxGeometry>
        </mxCell>
        <mxCell id="Dq4UEbj41441Wku2MiTU-16" value="" style="endArrow=classic;html=1;rounded=0;exitX=0.5;exitY=1;exitDx=0;exitDy=0;" edge="1" parent="iB8osoWcuFe3ipbjhpIw-1" source="D0Fx7bI6TEYKiHr45bAa-1" target="D0Fx7bI6TEYKiHr45bAa-2">
          <mxGeometry width="50" height="50" relative="1" as="geometry">
            <mxPoint x="460" y="400" as="sourcePoint" />
            <mxPoint x="510" y="350" as="targetPoint" />
          </mxGeometry>
        </mxCell>
        <mxCell id="Dq4UEbj41441Wku2MiTU-21" value="" style="endArrow=classic;html=1;rounded=0;exitX=1;exitY=0.5;exitDx=0;exitDy=0;entryX=0.5;entryY=0;entryDx=0;entryDy=0;" edge="1" parent="iB8osoWcuFe3ipbjhpIw-1" source="Dq4UEbj41441Wku2MiTU-3" target="Dq4UEbj41441Wku2MiTU-4">
          <mxGeometry width="50" height="50" relative="1" as="geometry">
            <mxPoint x="460" y="800" as="sourcePoint" />
            <mxPoint x="510" y="750" as="targetPoint" />
            <Array as="points">
              <mxPoint x="675" y="740" />
            </Array>
          </mxGeometry>
        </mxCell>
        <mxCell id="Dq4UEbj41441Wku2MiTU-22" value="" style="endArrow=classic;html=1;rounded=0;exitX=0;exitY=0.5;exitDx=0;exitDy=0;entryX=0.45;entryY=-0.017;entryDx=0;entryDy=0;entryPerimeter=0;" edge="1" parent="iB8osoWcuFe3ipbjhpIw-1" source="Dq4UEbj41441Wku2MiTU-4" target="Dq4UEbj41441Wku2MiTU-6">
          <mxGeometry width="50" height="50" relative="1" as="geometry">
            <mxPoint x="460" y="860" as="sourcePoint" />
            <mxPoint x="510" y="810" as="targetPoint" />
            <Array as="points">
              <mxPoint x="500" y="830" />
            </Array>
          </mxGeometry>
        </mxCell>
        <mxCell id="Dq4UEbj41441Wku2MiTU-23" value="" style="endArrow=classic;html=1;rounded=0;exitX=0.5;exitY=1;exitDx=0;exitDy=0;entryX=1;entryY=0.5;entryDx=0;entryDy=0;" edge="1" parent="iB8osoWcuFe3ipbjhpIw-1" source="Dq4UEbj41441Wku2MiTU-4" target="Dq4UEbj41441Wku2MiTU-7">
          <mxGeometry width="50" height="50" relative="1" as="geometry">
            <mxPoint x="460" y="860" as="sourcePoint" />
            <mxPoint x="510" y="810" as="targetPoint" />
            <Array as="points">
              <mxPoint x="670" y="1020" />
            </Array>
          </mxGeometry>
        </mxCell>
        <mxCell id="Dq4UEbj41441Wku2MiTU-24" value="" style="endArrow=classic;html=1;rounded=0;exitX=0.5;exitY=1;exitDx=0;exitDy=0;entryX=0.5;entryY=0;entryDx=0;entryDy=0;" edge="1" parent="iB8osoWcuFe3ipbjhpIw-1" source="Dq4UEbj41441Wku2MiTU-5" target="Dq4UEbj41441Wku2MiTU-8">
          <mxGeometry width="50" height="50" relative="1" as="geometry">
            <mxPoint x="460" y="860" as="sourcePoint" />
            <mxPoint x="510" y="810" as="targetPoint" />
          </mxGeometry>
        </mxCell>
        <mxCell id="Dq4UEbj41441Wku2MiTU-25" value="" style="endArrow=classic;html=1;rounded=0;exitX=0;exitY=0.5;exitDx=0;exitDy=0;entryX=0.75;entryY=0;entryDx=0;entryDy=0;" edge="1" parent="iB8osoWcuFe3ipbjhpIw-1" source="Dq4UEbj41441Wku2MiTU-6" target="Dq4UEbj41441Wku2MiTU-8">
          <mxGeometry width="50" height="50" relative="1" as="geometry">
            <mxPoint x="460" y="860" as="sourcePoint" />
            <mxPoint x="510" y="810" as="targetPoint" />
            <Array as="points">
              <mxPoint x="200" y="900" />
            </Array>
          </mxGeometry>
        </mxCell>
        <mxCell id="Dq4UEbj41441Wku2MiTU-26" value="" style="endArrow=classic;html=1;rounded=0;exitX=0;exitY=0.5;exitDx=0;exitDy=0;entryX=1;entryY=0.5;entryDx=0;entryDy=0;" edge="1" parent="iB8osoWcuFe3ipbjhpIw-1" source="Dq4UEbj41441Wku2MiTU-7" target="Dq4UEbj41441Wku2MiTU-8">
          <mxGeometry width="50" height="50" relative="1" as="geometry">
            <mxPoint x="460" y="860" as="sourcePoint" />
            <mxPoint x="510" y="810" as="targetPoint" />
          </mxGeometry>
        </mxCell>
        <mxCell id="Dq4UEbj41441Wku2MiTU-27" value="" style="endArrow=classic;html=1;rounded=0;exitX=0.5;exitY=1;exitDx=0;exitDy=0;entryX=0;entryY=0.5;entryDx=0;entryDy=0;" edge="1" parent="iB8osoWcuFe3ipbjhpIw-1" source="Dq4UEbj41441Wku2MiTU-8" target="Dq4UEbj41441Wku2MiTU-9">
          <mxGeometry width="50" height="50" relative="1" as="geometry">
            <mxPoint x="460" y="860" as="sourcePoint" />
            <mxPoint x="510" y="810" as="targetPoint" />
            <Array as="points">
              <mxPoint x="170" y="1120" />
            </Array>
          </mxGeometry>
        </mxCell>
        <mxCell id="Dq4UEbj41441Wku2MiTU-28" value="yes" style="text;html=1;align=center;verticalAlign=middle;resizable=0;points=[];autosize=1;strokeColor=none;fillColor=none;" vertex="1" parent="iB8osoWcuFe3ipbjhpIw-1">
          <mxGeometry x="280" y="708" width="40" height="30" as="geometry" />
        </mxCell>
        <mxCell id="Dq4UEbj41441Wku2MiTU-29" value="no" style="text;html=1;align=center;verticalAlign=middle;resizable=0;points=[];autosize=1;strokeColor=none;fillColor=none;" vertex="1" parent="iB8osoWcuFe3ipbjhpIw-1">
          <mxGeometry x="520" y="698" width="40" height="30" as="geometry" />
        </mxCell>
        <mxCell id="Dq4UEbj41441Wku2MiTU-30" value="yes" style="text;html=1;align=center;verticalAlign=middle;resizable=0;points=[];autosize=1;strokeColor=none;fillColor=none;" vertex="1" parent="iB8osoWcuFe3ipbjhpIw-1">
          <mxGeometry x="570" y="798" width="40" height="30" as="geometry" />
        </mxCell>
        <mxCell id="Dq4UEbj41441Wku2MiTU-31" value="no" style="text;html=1;align=center;verticalAlign=middle;resizable=0;points=[];autosize=1;strokeColor=none;fillColor=none;" vertex="1" parent="iB8osoWcuFe3ipbjhpIw-1">
          <mxGeometry x="670" y="898" width="40" height="30" as="geometry" />
        </mxCell>
      </root>
    </mxGraphModel>
  </diagram>
  <diagram name="Register" id="fBHd6-k1UxvuDWt-utRv">
    <mxGraphModel dx="1434" dy="738" grid="1" gridSize="10" guides="1" tooltips="1" connect="1" arrows="1" fold="1" page="1" pageScale="1" pageWidth="827" pageHeight="1169" background="#99CCFF" math="0" shadow="0">
      <root>
        <mxCell id="MAb0Y_N3icSbHKtBcaH_-0" />
        <mxCell id="MAb0Y_N3icSbHKtBcaH_-1" parent="MAb0Y_N3icSbHKtBcaH_-0" />
        <mxCell id="MAb0Y_N3icSbHKtBcaH_-3" value="start" style="ellipse;whiteSpace=wrap;html=1;fillColor=#dae8fc;strokeColor=#000000;" vertex="1" parent="MAb0Y_N3icSbHKtBcaH_-1">
          <mxGeometry x="359" width="120" height="50" as="geometry" />
        </mxCell>
        <mxCell id="MAb0Y_N3icSbHKtBcaH_-4" value="Register" style="text;html=1;align=center;verticalAlign=middle;resizable=0;points=[];autosize=1;strokeColor=none;fillColor=none;fontSize=27;" vertex="1" parent="MAb0Y_N3icSbHKtBcaH_-1">
          <mxGeometry x="90" y="15" width="120" height="50" as="geometry" />
        </mxCell>
        <mxCell id="JszrLDWm_twLNUc28ltc-32" value="" style="edgeStyle=orthogonalEdgeStyle;rounded=0;orthogonalLoop=1;jettySize=auto;html=1;" edge="1" parent="MAb0Y_N3icSbHKtBcaH_-1" source="JszrLDWm_twLNUc28ltc-0" target="JszrLDWm_twLNUc28ltc-2">
          <mxGeometry relative="1" as="geometry" />
        </mxCell>
        <mxCell id="JszrLDWm_twLNUc28ltc-0" value="usrname = post username" style="rounded=0;whiteSpace=wrap;html=1;fillColor=#dae8fc;strokeColor=#6c8ebf;" vertex="1" parent="MAb0Y_N3icSbHKtBcaH_-1">
          <mxGeometry x="359" y="80" width="120" height="40" as="geometry" />
        </mxCell>
        <mxCell id="JszrLDWm_twLNUc28ltc-1" value="password= post password" style="rounded=0;whiteSpace=wrap;html=1;fillColor=#dae8fc;strokeColor=#6c8ebf;" vertex="1" parent="MAb0Y_N3icSbHKtBcaH_-1">
          <mxGeometry x="359" y="140" width="120" height="40" as="geometry" />
        </mxCell>
        <mxCell id="JszrLDWm_twLNUc28ltc-33" value="" style="edgeStyle=orthogonalEdgeStyle;rounded=0;orthogonalLoop=1;jettySize=auto;html=1;" edge="1" parent="MAb0Y_N3icSbHKtBcaH_-1" source="JszrLDWm_twLNUc28ltc-2" target="JszrLDWm_twLNUc28ltc-4">
          <mxGeometry relative="1" as="geometry" />
        </mxCell>
        <mxCell id="JszrLDWm_twLNUc28ltc-2" value="first name= post first name" style="rounded=0;whiteSpace=wrap;html=1;fillColor=#dae8fc;strokeColor=#6c8ebf;" vertex="1" parent="MAb0Y_N3icSbHKtBcaH_-1">
          <mxGeometry x="359" y="200" width="120" height="40" as="geometry" />
        </mxCell>
        <mxCell id="JszrLDWm_twLNUc28ltc-3" value="last name= post last name" style="rounded=0;whiteSpace=wrap;html=1;fillColor=#dae8fc;strokeColor=#6c8ebf;" vertex="1" parent="MAb0Y_N3icSbHKtBcaH_-1">
          <mxGeometry x="359" y="270" width="120" height="40" as="geometry" />
        </mxCell>
        <mxCell id="JszrLDWm_twLNUc28ltc-34" value="" style="edgeStyle=orthogonalEdgeStyle;rounded=0;orthogonalLoop=1;jettySize=auto;html=1;" edge="1" parent="MAb0Y_N3icSbHKtBcaH_-1" source="JszrLDWm_twLNUc28ltc-4" target="JszrLDWm_twLNUc28ltc-6">
          <mxGeometry relative="1" as="geometry" />
        </mxCell>
        <mxCell id="JszrLDWm_twLNUc28ltc-4" value="email= post email" style="rounded=0;whiteSpace=wrap;html=1;fillColor=#dae8fc;strokeColor=#6c8ebf;" vertex="1" parent="MAb0Y_N3icSbHKtBcaH_-1">
          <mxGeometry x="359" y="340" width="120" height="40" as="geometry" />
        </mxCell>
        <mxCell id="JszrLDWm_twLNUc28ltc-5" value="confirm password= post confirm password" style="rounded=0;whiteSpace=wrap;html=1;fillColor=#dae8fc;strokeColor=#6c8ebf;" vertex="1" parent="MAb0Y_N3icSbHKtBcaH_-1">
          <mxGeometry x="359" y="410" width="120" height="50" as="geometry" />
        </mxCell>
        <mxCell id="JszrLDWm_twLNUc28ltc-35" value="" style="edgeStyle=orthogonalEdgeStyle;rounded=0;orthogonalLoop=1;jettySize=auto;html=1;" edge="1" parent="MAb0Y_N3icSbHKtBcaH_-1" source="JszrLDWm_twLNUc28ltc-6" target="JszrLDWm_twLNUc28ltc-7">
          <mxGeometry relative="1" as="geometry" />
        </mxCell>
        <mxCell id="JszrLDWm_twLNUc28ltc-6" value="date= date format y-m-d" style="rounded=0;whiteSpace=wrap;html=1;fillColor=#dae8fc;strokeColor=#6c8ebf;" vertex="1" parent="MAb0Y_N3icSbHKtBcaH_-1">
          <mxGeometry x="359" y="480" width="120" height="40" as="geometry" />
        </mxCell>
        <mxCell id="JszrLDWm_twLNUc28ltc-36" value="" style="edgeStyle=orthogonalEdgeStyle;rounded=0;orthogonalLoop=1;jettySize=auto;html=1;" edge="1" parent="MAb0Y_N3icSbHKtBcaH_-1" source="JszrLDWm_twLNUc28ltc-7" target="JszrLDWm_twLNUc28ltc-9">
          <mxGeometry relative="1" as="geometry" />
        </mxCell>
        <mxCell id="JszrLDWm_twLNUc28ltc-7" value="if password &amp;lt;&amp;gt; password&amp;nbsp;" style="rhombus;whiteSpace=wrap;html=1;fillColor=#dae8fc;strokeColor=#6c8ebf;" vertex="1" parent="MAb0Y_N3icSbHKtBcaH_-1">
          <mxGeometry x="379" y="560" width="80" height="80" as="geometry" />
        </mxCell>
        <mxCell id="JszrLDWm_twLNUc28ltc-38" value="" style="edgeStyle=orthogonalEdgeStyle;rounded=0;orthogonalLoop=1;jettySize=auto;html=1;" edge="1" parent="MAb0Y_N3icSbHKtBcaH_-1" source="JszrLDWm_twLNUc28ltc-9" target="JszrLDWm_twLNUc28ltc-10">
          <mxGeometry relative="1" as="geometry" />
        </mxCell>
        <mxCell id="JszrLDWm_twLNUc28ltc-9" value="lowercase letter in password" style="rhombus;whiteSpace=wrap;html=1;fillColor=#dae8fc;strokeColor=#6c8ebf;" vertex="1" parent="MAb0Y_N3icSbHKtBcaH_-1">
          <mxGeometry x="379" y="670" width="80" height="80" as="geometry" />
        </mxCell>
        <mxCell id="JszrLDWm_twLNUc28ltc-39" value="" style="edgeStyle=orthogonalEdgeStyle;rounded=0;orthogonalLoop=1;jettySize=auto;html=1;" edge="1" parent="MAb0Y_N3icSbHKtBcaH_-1" source="JszrLDWm_twLNUc28ltc-10" target="JszrLDWm_twLNUc28ltc-11">
          <mxGeometry relative="1" as="geometry" />
        </mxCell>
        <mxCell id="JszrLDWm_twLNUc28ltc-10" value="uppercase in password" style="rhombus;whiteSpace=wrap;html=1;fillColor=#dae8fc;strokeColor=#6c8ebf;" vertex="1" parent="MAb0Y_N3icSbHKtBcaH_-1">
          <mxGeometry x="374" y="780" width="80" height="80" as="geometry" />
        </mxCell>
        <mxCell id="JszrLDWm_twLNUc28ltc-40" value="" style="edgeStyle=orthogonalEdgeStyle;rounded=0;orthogonalLoop=1;jettySize=auto;html=1;" edge="1" parent="MAb0Y_N3icSbHKtBcaH_-1" source="JszrLDWm_twLNUc28ltc-11" target="JszrLDWm_twLNUc28ltc-12">
          <mxGeometry relative="1" as="geometry" />
        </mxCell>
        <mxCell id="JszrLDWm_twLNUc28ltc-11" value="number in password" style="rhombus;whiteSpace=wrap;html=1;fillColor=#dae8fc;strokeColor=#6c8ebf;" vertex="1" parent="MAb0Y_N3icSbHKtBcaH_-1">
          <mxGeometry x="374" y="890" width="80" height="80" as="geometry" />
        </mxCell>
        <mxCell id="JszrLDWm_twLNUc28ltc-41" value="" style="edgeStyle=orthogonalEdgeStyle;rounded=0;orthogonalLoop=1;jettySize=auto;html=1;" edge="1" parent="MAb0Y_N3icSbHKtBcaH_-1" source="JszrLDWm_twLNUc28ltc-12" target="JszrLDWm_twLNUc28ltc-13">
          <mxGeometry relative="1" as="geometry" />
        </mxCell>
        <mxCell id="JszrLDWm_twLNUc28ltc-12" value="special character in password" style="rhombus;whiteSpace=wrap;html=1;fillColor=#dae8fc;strokeColor=#6c8ebf;" vertex="1" parent="MAb0Y_N3icSbHKtBcaH_-1">
          <mxGeometry x="374" y="1010" width="80" height="80" as="geometry" />
        </mxCell>
        <mxCell id="JszrLDWm_twLNUc28ltc-43" value="" style="edgeStyle=orthogonalEdgeStyle;rounded=0;orthogonalLoop=1;jettySize=auto;html=1;" edge="1" parent="MAb0Y_N3icSbHKtBcaH_-1" source="JszrLDWm_twLNUc28ltc-13" target="JszrLDWm_twLNUc28ltc-15">
          <mxGeometry relative="1" as="geometry" />
        </mxCell>
        <mxCell id="JszrLDWm_twLNUc28ltc-13" value="length of password &amp;lt; 8" style="rhombus;whiteSpace=wrap;html=1;fillColor=#dae8fc;strokeColor=#6c8ebf;" vertex="1" parent="MAb0Y_N3icSbHKtBcaH_-1">
          <mxGeometry x="374" y="1140" width="80" height="80" as="geometry" />
        </mxCell>
        <mxCell id="JszrLDWm_twLNUc28ltc-14" value="select username from database where username&amp;nbsp;" style="rounded=0;whiteSpace=wrap;html=1;fillColor=#dae8fc;strokeColor=#6c8ebf;" vertex="1" parent="MAb0Y_N3icSbHKtBcaH_-1">
          <mxGeometry x="354" y="1250" width="120" height="40" as="geometry" />
        </mxCell>
        <mxCell id="JszrLDWm_twLNUc28ltc-44" value="" style="edgeStyle=orthogonalEdgeStyle;rounded=0;orthogonalLoop=1;jettySize=auto;html=1;" edge="1" parent="MAb0Y_N3icSbHKtBcaH_-1" source="JszrLDWm_twLNUc28ltc-15" target="JszrLDWm_twLNUc28ltc-17">
          <mxGeometry relative="1" as="geometry" />
        </mxCell>
        <mxCell id="JszrLDWm_twLNUc28ltc-15" value="prepare stmt&lt;div&gt;bind parameter username&lt;/div&gt;&lt;div&gt;exicute stmt&lt;/div&gt;&lt;div&gt;fetch result&amp;nbsp;&lt;/div&gt;" style="rounded=0;whiteSpace=wrap;html=1;fillColor=#dae8fc;strokeColor=#6c8ebf;" vertex="1" parent="MAb0Y_N3icSbHKtBcaH_-1">
          <mxGeometry x="354" y="1320" width="120" height="80" as="geometry" />
        </mxCell>
        <mxCell id="JszrLDWm_twLNUc28ltc-45" value="" style="edgeStyle=orthogonalEdgeStyle;rounded=0;orthogonalLoop=1;jettySize=auto;html=1;" edge="1" parent="MAb0Y_N3icSbHKtBcaH_-1" source="JszrLDWm_twLNUc28ltc-17" target="JszrLDWm_twLNUc28ltc-19">
          <mxGeometry relative="1" as="geometry" />
        </mxCell>
        <mxCell id="JszrLDWm_twLNUc28ltc-17" value="is there a result ?" style="rhombus;whiteSpace=wrap;html=1;fillColor=#dae8fc;strokeColor=#6c8ebf;" vertex="1" parent="MAb0Y_N3icSbHKtBcaH_-1">
          <mxGeometry x="374" y="1440" width="80" height="80" as="geometry" />
        </mxCell>
        <mxCell id="JszrLDWm_twLNUc28ltc-18" value="hash password" style="rounded=0;whiteSpace=wrap;html=1;fillColor=#dae8fc;strokeColor=#6c8ebf;" vertex="1" parent="MAb0Y_N3icSbHKtBcaH_-1">
          <mxGeometry x="354" y="1560" width="120" height="40" as="geometry" />
        </mxCell>
        <mxCell id="JszrLDWm_twLNUc28ltc-46" value="" style="edgeStyle=orthogonalEdgeStyle;rounded=0;orthogonalLoop=1;jettySize=auto;html=1;" edge="1" parent="MAb0Y_N3icSbHKtBcaH_-1" source="JszrLDWm_twLNUc28ltc-19" target="JszrLDWm_twLNUc28ltc-20">
          <mxGeometry relative="1" as="geometry" />
        </mxCell>
        <mxCell id="JszrLDWm_twLNUc28ltc-19" value="insert into database(databsecollumn names) values(?)" style="rounded=0;whiteSpace=wrap;html=1;fillColor=#dae8fc;strokeColor=#6c8ebf;" vertex="1" parent="MAb0Y_N3icSbHKtBcaH_-1">
          <mxGeometry x="340" y="1630" width="150" height="60" as="geometry" />
        </mxCell>
        <mxCell id="JszrLDWm_twLNUc28ltc-47" value="" style="edgeStyle=orthogonalEdgeStyle;rounded=0;orthogonalLoop=1;jettySize=auto;html=1;" edge="1" parent="MAb0Y_N3icSbHKtBcaH_-1" source="JszrLDWm_twLNUc28ltc-20" target="JszrLDWm_twLNUc28ltc-24">
          <mxGeometry relative="1" as="geometry" />
        </mxCell>
        <mxCell id="JszrLDWm_twLNUc28ltc-20" value="bind parameter username&lt;div&gt;bind parameter hashed password&lt;/div&gt;&lt;div&gt;bind parameter firstname&lt;/div&gt;&lt;div&gt;bindparameter lastname&lt;/div&gt;&lt;div&gt;bind parameter email&lt;/div&gt;&lt;div&gt;bind parameter date&lt;/div&gt;" style="rounded=0;whiteSpace=wrap;html=1;fillColor=#dae8fc;strokeColor=#6c8ebf;" vertex="1" parent="MAb0Y_N3icSbHKtBcaH_-1">
          <mxGeometry x="340" y="1720" width="150" height="120" as="geometry" />
        </mxCell>
        <mxCell id="JszrLDWm_twLNUc28ltc-23" value="exacute statemt" style="rounded=0;whiteSpace=wrap;html=1;fillColor=#dae8fc;strokeColor=#6c8ebf;" vertex="1" parent="MAb0Y_N3icSbHKtBcaH_-1">
          <mxGeometry x="340" y="1870" width="150" height="40" as="geometry" />
        </mxCell>
        <mxCell id="JszrLDWm_twLNUc28ltc-50" value="" style="edgeStyle=orthogonalEdgeStyle;rounded=0;orthogonalLoop=1;jettySize=auto;html=1;" edge="1" parent="MAb0Y_N3icSbHKtBcaH_-1" source="JszrLDWm_twLNUc28ltc-24" target="JszrLDWm_twLNUc28ltc-26">
          <mxGeometry relative="1" as="geometry" />
        </mxCell>
        <mxCell id="JszrLDWm_twLNUc28ltc-24" value="redirect to login" style="rounded=0;whiteSpace=wrap;html=1;fillColor=#dae8fc;strokeColor=#6c8ebf;" vertex="1" parent="MAb0Y_N3icSbHKtBcaH_-1">
          <mxGeometry x="339" y="1940" width="150" height="40" as="geometry" />
        </mxCell>
        <mxCell id="JszrLDWm_twLNUc28ltc-51" value="" style="edgeStyle=orthogonalEdgeStyle;rounded=0;orthogonalLoop=1;jettySize=auto;html=1;" edge="1" parent="MAb0Y_N3icSbHKtBcaH_-1" source="JszrLDWm_twLNUc28ltc-26" target="JszrLDWm_twLNUc28ltc-49">
          <mxGeometry relative="1" as="geometry" />
        </mxCell>
        <mxCell id="JszrLDWm_twLNUc28ltc-26" value="registered successfully" style="shape=parallelogram;perimeter=parallelogramPerimeter;whiteSpace=wrap;html=1;fixedSize=1;fillColor=#dae8fc;strokeColor=#000000;" vertex="1" parent="MAb0Y_N3icSbHKtBcaH_-1">
          <mxGeometry x="354" y="2020" width="120" height="60" as="geometry" />
        </mxCell>
        <mxCell id="JszrLDWm_twLNUc28ltc-31" value="" style="endArrow=classic;html=1;rounded=0;exitX=0.5;exitY=1;exitDx=0;exitDy=0;" edge="1" parent="MAb0Y_N3icSbHKtBcaH_-1" source="MAb0Y_N3icSbHKtBcaH_-3">
          <mxGeometry width="50" height="50" relative="1" as="geometry">
            <mxPoint x="390" y="250" as="sourcePoint" />
            <mxPoint x="420" y="80" as="targetPoint" />
          </mxGeometry>
        </mxCell>
        <mxCell id="JszrLDWm_twLNUc28ltc-49" value="stop" style="ellipse;whiteSpace=wrap;html=1;fillColor=#dae8fc;strokeColor=#000000;" vertex="1" parent="MAb0Y_N3icSbHKtBcaH_-1">
          <mxGeometry x="354" y="2120" width="120" height="50" as="geometry" />
        </mxCell>
        <mxCell id="JszrLDWm_twLNUc28ltc-52" value="redirect to signup" style="rounded=0;whiteSpace=wrap;html=1;fillColor=#dae8fc;strokeColor=#6c8ebf;" vertex="1" parent="MAb0Y_N3icSbHKtBcaH_-1">
          <mxGeometry x="40" y="1280" width="150" height="40" as="geometry" />
        </mxCell>
        <mxCell id="JszrLDWm_twLNUc28ltc-53" value="passwords didnt match" style="shape=parallelogram;perimeter=parallelogramPerimeter;whiteSpace=wrap;html=1;fixedSize=1;fillColor=#dae8fc;strokeColor=#000000;" vertex="1" parent="MAb0Y_N3icSbHKtBcaH_-1">
          <mxGeometry x="100" y="580" width="90" height="40" as="geometry" />
        </mxCell>
        <mxCell id="JszrLDWm_twLNUc28ltc-54" value="no lower case letter" style="shape=parallelogram;perimeter=parallelogramPerimeter;whiteSpace=wrap;html=1;fixedSize=1;fillColor=#dae8fc;strokeColor=#000000;" vertex="1" parent="MAb0Y_N3icSbHKtBcaH_-1">
          <mxGeometry x="90" y="690" width="90" height="40" as="geometry" />
        </mxCell>
        <mxCell id="JszrLDWm_twLNUc28ltc-55" value="no uppercase letter" style="shape=parallelogram;perimeter=parallelogramPerimeter;whiteSpace=wrap;html=1;fixedSize=1;fillColor=#dae8fc;strokeColor=#000000;" vertex="1" parent="MAb0Y_N3icSbHKtBcaH_-1">
          <mxGeometry x="90" y="800" width="90" height="40" as="geometry" />
        </mxCell>
        <mxCell id="JszrLDWm_twLNUc28ltc-56" value="no number" style="shape=parallelogram;perimeter=parallelogramPerimeter;whiteSpace=wrap;html=1;fixedSize=1;fillColor=#dae8fc;strokeColor=#000000;" vertex="1" parent="MAb0Y_N3icSbHKtBcaH_-1">
          <mxGeometry x="80" y="910" width="90" height="40" as="geometry" />
        </mxCell>
        <mxCell id="JszrLDWm_twLNUc28ltc-57" value="no special character" style="shape=parallelogram;perimeter=parallelogramPerimeter;whiteSpace=wrap;html=1;fixedSize=1;fillColor=#dae8fc;strokeColor=#000000;" vertex="1" parent="MAb0Y_N3icSbHKtBcaH_-1">
          <mxGeometry x="70" y="1030" width="90" height="40" as="geometry" />
        </mxCell>
        <mxCell id="JszrLDWm_twLNUc28ltc-58" value="password too short" style="shape=parallelogram;perimeter=parallelogramPerimeter;whiteSpace=wrap;html=1;fixedSize=1;fillColor=#dae8fc;strokeColor=#000000;" vertex="1" parent="MAb0Y_N3icSbHKtBcaH_-1">
          <mxGeometry x="60" y="1160" width="90" height="40" as="geometry" />
        </mxCell>
        <mxCell id="JszrLDWm_twLNUc28ltc-59" value="" style="endArrow=classic;html=1;rounded=0;exitX=0;exitY=0.5;exitDx=0;exitDy=0;entryX=0;entryY=0.5;entryDx=0;entryDy=0;" edge="1" parent="MAb0Y_N3icSbHKtBcaH_-1" source="JszrLDWm_twLNUc28ltc-53" target="JszrLDWm_twLNUc28ltc-52">
          <mxGeometry width="50" height="50" relative="1" as="geometry">
            <mxPoint x="390" y="690" as="sourcePoint" />
            <mxPoint x="440" y="640" as="targetPoint" />
            <Array as="points">
              <mxPoint x="10" y="600" />
              <mxPoint x="10" y="1300" />
            </Array>
          </mxGeometry>
        </mxCell>
        <mxCell id="JszrLDWm_twLNUc28ltc-62" value="" style="endArrow=none;html=1;rounded=0;exitX=0;exitY=0.5;exitDx=0;exitDy=0;" edge="1" parent="MAb0Y_N3icSbHKtBcaH_-1" source="JszrLDWm_twLNUc28ltc-54">
          <mxGeometry width="50" height="50" relative="1" as="geometry">
            <mxPoint x="390" y="790" as="sourcePoint" />
            <mxPoint x="10" y="710" as="targetPoint" />
          </mxGeometry>
        </mxCell>
        <mxCell id="JszrLDWm_twLNUc28ltc-63" value="" style="endArrow=none;html=1;rounded=0;exitX=0;exitY=0.5;exitDx=0;exitDy=0;" edge="1" parent="MAb0Y_N3icSbHKtBcaH_-1">
          <mxGeometry width="50" height="50" relative="1" as="geometry">
            <mxPoint x="101" y="819" as="sourcePoint" />
            <mxPoint x="11" y="819" as="targetPoint" />
          </mxGeometry>
        </mxCell>
        <mxCell id="JszrLDWm_twLNUc28ltc-64" value="" style="endArrow=none;html=1;rounded=0;exitX=0;exitY=0.5;exitDx=0;exitDy=0;" edge="1" parent="MAb0Y_N3icSbHKtBcaH_-1">
          <mxGeometry width="50" height="50" relative="1" as="geometry">
            <mxPoint x="90" y="929.5" as="sourcePoint" />
            <mxPoint x="10" y="930" as="targetPoint" />
          </mxGeometry>
        </mxCell>
        <mxCell id="JszrLDWm_twLNUc28ltc-65" value="" style="endArrow=none;html=1;rounded=0;" edge="1" parent="MAb0Y_N3icSbHKtBcaH_-1">
          <mxGeometry width="50" height="50" relative="1" as="geometry">
            <mxPoint x="80" y="1050" as="sourcePoint" />
            <mxPoint x="10" y="1050" as="targetPoint" />
          </mxGeometry>
        </mxCell>
        <mxCell id="JszrLDWm_twLNUc28ltc-66" value="" style="endArrow=none;html=1;rounded=0;" edge="1" parent="MAb0Y_N3icSbHKtBcaH_-1">
          <mxGeometry width="50" height="50" relative="1" as="geometry">
            <mxPoint x="70" y="1180" as="sourcePoint" />
            <mxPoint x="10" y="1179.5" as="targetPoint" />
          </mxGeometry>
        </mxCell>
        <mxCell id="JszrLDWm_twLNUc28ltc-67" value="" style="endArrow=classic;html=1;rounded=0;exitX=0;exitY=0.5;exitDx=0;exitDy=0;entryX=1;entryY=0.5;entryDx=0;entryDy=0;" edge="1" parent="MAb0Y_N3icSbHKtBcaH_-1" source="JszrLDWm_twLNUc28ltc-7" target="JszrLDWm_twLNUc28ltc-53">
          <mxGeometry width="50" height="50" relative="1" as="geometry">
            <mxPoint x="390" y="790" as="sourcePoint" />
            <mxPoint x="440" y="740" as="targetPoint" />
          </mxGeometry>
        </mxCell>
        <mxCell id="JszrLDWm_twLNUc28ltc-68" value="" style="endArrow=classic;html=1;rounded=0;exitX=0;exitY=0.5;exitDx=0;exitDy=0;entryX=1;entryY=0.5;entryDx=0;entryDy=0;" edge="1" parent="MAb0Y_N3icSbHKtBcaH_-1" target="JszrLDWm_twLNUc28ltc-54">
          <mxGeometry width="50" height="50" relative="1" as="geometry">
            <mxPoint x="379" y="709.5" as="sourcePoint" />
            <mxPoint x="180" y="709.5" as="targetPoint" />
          </mxGeometry>
        </mxCell>
        <mxCell id="JszrLDWm_twLNUc28ltc-69" value="" style="endArrow=classic;html=1;rounded=0;entryX=1;entryY=0.5;entryDx=0;entryDy=0;exitX=0;exitY=0.5;exitDx=0;exitDy=0;" edge="1" parent="MAb0Y_N3icSbHKtBcaH_-1" source="JszrLDWm_twLNUc28ltc-10">
          <mxGeometry width="50" height="50" relative="1" as="geometry">
            <mxPoint x="350" y="830" as="sourcePoint" />
            <mxPoint x="170" y="820" as="targetPoint" />
          </mxGeometry>
        </mxCell>
        <mxCell id="JszrLDWm_twLNUc28ltc-70" value="" style="endArrow=classic;html=1;rounded=0;entryX=1;entryY=0.5;entryDx=0;entryDy=0;exitX=0;exitY=0.5;exitDx=0;exitDy=0;" edge="1" parent="MAb0Y_N3icSbHKtBcaH_-1" source="JszrLDWm_twLNUc28ltc-11">
          <mxGeometry width="50" height="50" relative="1" as="geometry">
            <mxPoint x="364" y="929.5" as="sourcePoint" />
            <mxPoint x="160" y="929.5" as="targetPoint" />
          </mxGeometry>
        </mxCell>
        <mxCell id="JszrLDWm_twLNUc28ltc-71" value="" style="endArrow=classic;html=1;rounded=0;entryX=1;entryY=0.5;entryDx=0;entryDy=0;exitX=0;exitY=0.5;exitDx=0;exitDy=0;" edge="1" parent="MAb0Y_N3icSbHKtBcaH_-1" target="JszrLDWm_twLNUc28ltc-57">
          <mxGeometry width="50" height="50" relative="1" as="geometry">
            <mxPoint x="374" y="1050" as="sourcePoint" />
            <mxPoint x="160" y="1049.5" as="targetPoint" />
          </mxGeometry>
        </mxCell>
        <mxCell id="JszrLDWm_twLNUc28ltc-72" value="" style="endArrow=classic;html=1;rounded=0;entryX=1;entryY=0.5;entryDx=0;entryDy=0;exitX=0;exitY=0.5;exitDx=0;exitDy=0;" edge="1" parent="MAb0Y_N3icSbHKtBcaH_-1" target="JszrLDWm_twLNUc28ltc-58">
          <mxGeometry width="50" height="50" relative="1" as="geometry">
            <mxPoint x="374" y="1179.5" as="sourcePoint" />
            <mxPoint x="150" y="1179.5" as="targetPoint" />
          </mxGeometry>
        </mxCell>
        <mxCell id="JszrLDWm_twLNUc28ltc-73" value="" style="endArrow=classic;html=1;rounded=0;exitX=0.5;exitY=1;exitDx=0;exitDy=0;entryX=0;entryY=0.5;entryDx=0;entryDy=0;" edge="1" parent="MAb0Y_N3icSbHKtBcaH_-1" source="JszrLDWm_twLNUc28ltc-52" target="JszrLDWm_twLNUc28ltc-49">
          <mxGeometry width="50" height="50" relative="1" as="geometry">
            <mxPoint x="390" y="1690" as="sourcePoint" />
            <mxPoint x="440" y="1640" as="targetPoint" />
            <Array as="points">
              <mxPoint x="120" y="2140" />
            </Array>
          </mxGeometry>
        </mxCell>
        <mxCell id="JszrLDWm_twLNUc28ltc-74" value="" style="endArrow=classic;html=1;rounded=0;exitX=0.5;exitY=1;exitDx=0;exitDy=0;entryX=0.5;entryY=0;entryDx=0;entryDy=0;" edge="1" parent="MAb0Y_N3icSbHKtBcaH_-1" source="JszrLDWm_twLNUc28ltc-0" target="JszrLDWm_twLNUc28ltc-1">
          <mxGeometry width="50" height="50" relative="1" as="geometry">
            <mxPoint x="390" y="350" as="sourcePoint" />
            <mxPoint x="440" y="300" as="targetPoint" />
          </mxGeometry>
        </mxCell>
        <mxCell id="JszrLDWm_twLNUc28ltc-75" value="" style="endArrow=classic;html=1;rounded=0;exitX=0.5;exitY=1;exitDx=0;exitDy=0;entryX=0.5;entryY=0;entryDx=0;entryDy=0;" edge="1" parent="MAb0Y_N3icSbHKtBcaH_-1" target="JszrLDWm_twLNUc28ltc-3">
          <mxGeometry width="50" height="50" relative="1" as="geometry">
            <mxPoint x="419" y="240" as="sourcePoint" />
            <mxPoint x="419" y="260" as="targetPoint" />
          </mxGeometry>
        </mxCell>
        <mxCell id="JszrLDWm_twLNUc28ltc-77" value="" style="endArrow=classic;html=1;rounded=0;exitX=0.5;exitY=1;exitDx=0;exitDy=0;entryX=0.5;entryY=0;entryDx=0;entryDy=0;" edge="1" parent="MAb0Y_N3icSbHKtBcaH_-1" source="JszrLDWm_twLNUc28ltc-4" target="JszrLDWm_twLNUc28ltc-5">
          <mxGeometry width="50" height="50" relative="1" as="geometry">
            <mxPoint x="390" y="450" as="sourcePoint" />
            <mxPoint x="440" y="400" as="targetPoint" />
          </mxGeometry>
        </mxCell>
        <mxCell id="JszrLDWm_twLNUc28ltc-78" value="" style="endArrow=classic;html=1;rounded=0;exitX=0.5;exitY=1;exitDx=0;exitDy=0;entryX=0.5;entryY=0;entryDx=0;entryDy=0;" edge="1" parent="MAb0Y_N3icSbHKtBcaH_-1" source="JszrLDWm_twLNUc28ltc-20" target="JszrLDWm_twLNUc28ltc-23">
          <mxGeometry width="50" height="50" relative="1" as="geometry">
            <mxPoint x="390" y="1950" as="sourcePoint" />
            <mxPoint x="440" y="1900" as="targetPoint" />
          </mxGeometry>
        </mxCell>
        <mxCell id="JszrLDWm_twLNUc28ltc-79" value="" style="endArrow=classic;html=1;rounded=0;exitX=0.5;exitY=1;exitDx=0;exitDy=0;entryX=0.5;entryY=0;entryDx=0;entryDy=0;" edge="1" parent="MAb0Y_N3icSbHKtBcaH_-1" source="JszrLDWm_twLNUc28ltc-17" target="JszrLDWm_twLNUc28ltc-18">
          <mxGeometry width="50" height="50" relative="1" as="geometry">
            <mxPoint x="390" y="1450" as="sourcePoint" />
            <mxPoint x="440" y="1400" as="targetPoint" />
          </mxGeometry>
        </mxCell>
        <mxCell id="JszrLDWm_twLNUc28ltc-80" value="" style="endArrow=classic;html=1;rounded=0;exitX=0.5;exitY=1;exitDx=0;exitDy=0;entryX=0.5;entryY=0;entryDx=0;entryDy=0;" edge="1" parent="MAb0Y_N3icSbHKtBcaH_-1" source="JszrLDWm_twLNUc28ltc-13" target="JszrLDWm_twLNUc28ltc-14">
          <mxGeometry width="50" height="50" relative="1" as="geometry">
            <mxPoint x="390" y="1150" as="sourcePoint" />
            <mxPoint x="440" y="1100" as="targetPoint" />
          </mxGeometry>
        </mxCell>
        <mxCell id="JszrLDWm_twLNUc28ltc-81" value="user exists choose other username&amp;nbsp;" style="shape=parallelogram;perimeter=parallelogramPerimeter;whiteSpace=wrap;html=1;fixedSize=1;fillColor=#dae8fc;strokeColor=#000000;" vertex="1" parent="MAb0Y_N3icSbHKtBcaH_-1">
          <mxGeometry x="210" y="1460" width="100" height="50" as="geometry" />
        </mxCell>
        <mxCell id="JszrLDWm_twLNUc28ltc-82" value="redirect to signup" style="rounded=0;whiteSpace=wrap;html=1;fillColor=#dae8fc;strokeColor=#6c8ebf;" vertex="1" parent="MAb0Y_N3icSbHKtBcaH_-1">
          <mxGeometry x="180" y="1550" width="150" height="40" as="geometry" />
        </mxCell>
        <mxCell id="JszrLDWm_twLNUc28ltc-83" value="" style="endArrow=classic;html=1;rounded=0;exitX=0;exitY=0.5;exitDx=0;exitDy=0;entryX=1;entryY=0.5;entryDx=0;entryDy=0;" edge="1" parent="MAb0Y_N3icSbHKtBcaH_-1" source="JszrLDWm_twLNUc28ltc-17" target="JszrLDWm_twLNUc28ltc-81">
          <mxGeometry width="50" height="50" relative="1" as="geometry">
            <mxPoint x="390" y="1550" as="sourcePoint" />
            <mxPoint x="440" y="1500" as="targetPoint" />
          </mxGeometry>
        </mxCell>
        <mxCell id="JszrLDWm_twLNUc28ltc-84" value="" style="endArrow=classic;html=1;rounded=0;exitX=0.5;exitY=1;exitDx=0;exitDy=0;" edge="1" parent="MAb0Y_N3icSbHKtBcaH_-1" source="JszrLDWm_twLNUc28ltc-81" target="JszrLDWm_twLNUc28ltc-82">
          <mxGeometry width="50" height="50" relative="1" as="geometry">
            <mxPoint x="390" y="1550" as="sourcePoint" />
            <mxPoint x="440" y="1500" as="targetPoint" />
          </mxGeometry>
        </mxCell>
        <mxCell id="JszrLDWm_twLNUc28ltc-86" value="" style="endArrow=classic;html=1;rounded=0;exitX=0.5;exitY=1;exitDx=0;exitDy=0;entryX=0;entryY=0;entryDx=0;entryDy=0;" edge="1" parent="MAb0Y_N3icSbHKtBcaH_-1" source="JszrLDWm_twLNUc28ltc-82" target="JszrLDWm_twLNUc28ltc-49">
          <mxGeometry width="50" height="50" relative="1" as="geometry">
            <mxPoint x="390" y="1550" as="sourcePoint" />
            <mxPoint x="440" y="1500" as="targetPoint" />
            <Array as="points">
              <mxPoint x="260" y="2130" />
            </Array>
          </mxGeometry>
        </mxCell>
        <mxCell id="0Mi_-oeYbagp7Ni0EpgA-0" value="no" style="text;html=1;align=center;verticalAlign=middle;resizable=0;points=[];autosize=1;strokeColor=none;fillColor=none;" vertex="1" parent="MAb0Y_N3icSbHKtBcaH_-1">
          <mxGeometry x="250" y="568" width="40" height="30" as="geometry" />
        </mxCell>
        <mxCell id="0Mi_-oeYbagp7Ni0EpgA-1" value="no" style="text;html=1;align=center;verticalAlign=middle;resizable=0;points=[];autosize=1;strokeColor=none;fillColor=none;" vertex="1" parent="MAb0Y_N3icSbHKtBcaH_-1">
          <mxGeometry x="250" y="680" width="40" height="30" as="geometry" />
        </mxCell>
        <mxCell id="0Mi_-oeYbagp7Ni0EpgA-2" value="no" style="text;html=1;align=center;verticalAlign=middle;resizable=0;points=[];autosize=1;strokeColor=none;fillColor=none;" vertex="1" parent="MAb0Y_N3icSbHKtBcaH_-1">
          <mxGeometry x="250" y="800" width="40" height="30" as="geometry" />
        </mxCell>
        <mxCell id="0Mi_-oeYbagp7Ni0EpgA-3" value="no" style="text;html=1;align=center;verticalAlign=middle;resizable=0;points=[];autosize=1;strokeColor=none;fillColor=none;" vertex="1" parent="MAb0Y_N3icSbHKtBcaH_-1">
          <mxGeometry x="250" y="890" width="40" height="30" as="geometry" />
        </mxCell>
        <mxCell id="0Mi_-oeYbagp7Ni0EpgA-4" value="no" style="text;html=1;align=center;verticalAlign=middle;resizable=0;points=[];autosize=1;strokeColor=none;fillColor=none;" vertex="1" parent="MAb0Y_N3icSbHKtBcaH_-1">
          <mxGeometry x="240" y="1010" width="40" height="30" as="geometry" />
        </mxCell>
        <mxCell id="0Mi_-oeYbagp7Ni0EpgA-5" value="no" style="text;html=1;align=center;verticalAlign=middle;resizable=0;points=[];autosize=1;strokeColor=none;fillColor=none;" vertex="1" parent="MAb0Y_N3icSbHKtBcaH_-1">
          <mxGeometry x="240" y="1140" width="40" height="30" as="geometry" />
        </mxCell>
        <mxCell id="0Mi_-oeYbagp7Ni0EpgA-6" value="yes" style="text;html=1;align=center;verticalAlign=middle;resizable=0;points=[];autosize=1;strokeColor=none;fillColor=none;" vertex="1" parent="MAb0Y_N3icSbHKtBcaH_-1">
          <mxGeometry x="460" y="638" width="40" height="30" as="geometry" />
        </mxCell>
        <mxCell id="0Mi_-oeYbagp7Ni0EpgA-7" value="yes" style="text;html=1;align=center;verticalAlign=middle;resizable=0;points=[];autosize=1;strokeColor=none;fillColor=none;" vertex="1" parent="MAb0Y_N3icSbHKtBcaH_-1">
          <mxGeometry x="439" y="750" width="40" height="30" as="geometry" />
        </mxCell>
        <mxCell id="0Mi_-oeYbagp7Ni0EpgA-8" value="yes" style="text;html=1;align=center;verticalAlign=middle;resizable=0;points=[];autosize=1;strokeColor=none;fillColor=none;" vertex="1" parent="MAb0Y_N3icSbHKtBcaH_-1">
          <mxGeometry x="439" y="860" width="40" height="30" as="geometry" />
        </mxCell>
        <mxCell id="0Mi_-oeYbagp7Ni0EpgA-9" value="yes" style="text;html=1;align=center;verticalAlign=middle;resizable=0;points=[];autosize=1;strokeColor=none;fillColor=none;" vertex="1" parent="MAb0Y_N3icSbHKtBcaH_-1">
          <mxGeometry x="439" y="970" width="40" height="30" as="geometry" />
        </mxCell>
        <mxCell id="0Mi_-oeYbagp7Ni0EpgA-10" value="yes" style="text;html=1;align=center;verticalAlign=middle;resizable=0;points=[];autosize=1;strokeColor=none;fillColor=none;" vertex="1" parent="MAb0Y_N3icSbHKtBcaH_-1">
          <mxGeometry x="434" y="1100" width="40" height="30" as="geometry" />
        </mxCell>
        <mxCell id="0Mi_-oeYbagp7Ni0EpgA-11" value="yes" style="text;html=1;align=center;verticalAlign=middle;resizable=0;points=[];autosize=1;strokeColor=none;fillColor=none;" vertex="1" parent="MAb0Y_N3icSbHKtBcaH_-1">
          <mxGeometry x="439" y="1210" width="40" height="30" as="geometry" />
        </mxCell>
        <mxCell id="0Mi_-oeYbagp7Ni0EpgA-12" value="yes" style="text;html=1;align=center;verticalAlign=middle;resizable=0;points=[];autosize=1;strokeColor=none;fillColor=none;" vertex="1" parent="MAb0Y_N3icSbHKtBcaH_-1">
          <mxGeometry x="320" y="1458" width="40" height="30" as="geometry" />
        </mxCell>
        <mxCell id="0Mi_-oeYbagp7Ni0EpgA-13" value="no" style="text;html=1;align=center;verticalAlign=middle;resizable=0;points=[];autosize=1;strokeColor=none;fillColor=none;" vertex="1" parent="MAb0Y_N3icSbHKtBcaH_-1">
          <mxGeometry x="420" y="1518" width="40" height="30" as="geometry" />
        </mxCell>
      </root>
    </mxGraphModel>
  </diagram>
  <diagram name="Verify Login" id="4FAJDr7nVUfuCJDL5t00">
    <mxGraphModel dx="1434" dy="738" grid="1" gridSize="10" guides="1" tooltips="1" connect="1" arrows="1" fold="1" page="1" pageScale="1" pageWidth="827" pageHeight="1169" background="#99CCFF" math="0" shadow="0">
      <root>
        <mxCell id="o7kjVJVzNSXuIzVh6Vg_-0" />
        <mxCell id="o7kjVJVzNSXuIzVh6Vg_-1" parent="o7kjVJVzNSXuIzVh6Vg_-0" />
        <mxCell id="o7kjVJVzNSXuIzVh6Vg_-2" value="start" style="ellipse;whiteSpace=wrap;html=1;fillColor=#dae8fc;strokeColor=#000000;" vertex="1" parent="o7kjVJVzNSXuIzVh6Vg_-1">
          <mxGeometry x="359" width="120" height="50" as="geometry" />
        </mxCell>
        <mxCell id="o7kjVJVzNSXuIzVh6Vg_-3" value="Verify login" style="text;html=1;align=center;verticalAlign=middle;resizable=0;points=[];autosize=1;strokeColor=none;fillColor=none;fontSize=27;" vertex="1" parent="o7kjVJVzNSXuIzVh6Vg_-1">
          <mxGeometry x="70" y="15" width="160" height="50" as="geometry" />
        </mxCell>
        <mxCell id="o7kjVJVzNSXuIzVh6Vg_-4" value="" style="edgeStyle=orthogonalEdgeStyle;rounded=0;orthogonalLoop=1;jettySize=auto;html=1;" edge="1" parent="o7kjVJVzNSXuIzVh6Vg_-1" source="o7kjVJVzNSXuIzVh6Vg_-5" target="o7kjVJVzNSXuIzVh6Vg_-8">
          <mxGeometry relative="1" as="geometry" />
        </mxCell>
        <mxCell id="o7kjVJVzNSXuIzVh6Vg_-5" value="set cookie time (3600)" style="rounded=0;whiteSpace=wrap;html=1;fillColor=#dae8fc;strokeColor=#6c8ebf;" vertex="1" parent="o7kjVJVzNSXuIzVh6Vg_-1">
          <mxGeometry x="359" y="80" width="120" height="40" as="geometry" />
        </mxCell>
        <mxCell id="o7kjVJVzNSXuIzVh6Vg_-6" value="session start" style="rounded=0;whiteSpace=wrap;html=1;fillColor=#dae8fc;strokeColor=#6c8ebf;" vertex="1" parent="o7kjVJVzNSXuIzVh6Vg_-1">
          <mxGeometry x="359" y="140" width="120" height="40" as="geometry" />
        </mxCell>
        <mxCell id="o7kjVJVzNSXuIzVh6Vg_-7" value="" style="edgeStyle=orthogonalEdgeStyle;rounded=0;orthogonalLoop=1;jettySize=auto;html=1;" edge="1" parent="o7kjVJVzNSXuIzVh6Vg_-1" source="o7kjVJVzNSXuIzVh6Vg_-8" target="o7kjVJVzNSXuIzVh6Vg_-11">
          <mxGeometry relative="1" as="geometry" />
        </mxCell>
        <mxCell id="o7kjVJVzNSXuIzVh6Vg_-8" value="username = post username" style="rounded=0;whiteSpace=wrap;html=1;fillColor=#dae8fc;strokeColor=#6c8ebf;" vertex="1" parent="o7kjVJVzNSXuIzVh6Vg_-1">
          <mxGeometry x="359" y="200" width="120" height="40" as="geometry" />
        </mxCell>
        <mxCell id="o7kjVJVzNSXuIzVh6Vg_-9" value="password = post password&amp;nbsp;" style="rounded=0;whiteSpace=wrap;html=1;fillColor=#dae8fc;strokeColor=#6c8ebf;" vertex="1" parent="o7kjVJVzNSXuIzVh6Vg_-1">
          <mxGeometry x="359" y="270" width="120" height="40" as="geometry" />
        </mxCell>
        <mxCell id="o7kjVJVzNSXuIzVh6Vg_-10" value="" style="edgeStyle=orthogonalEdgeStyle;rounded=0;orthogonalLoop=1;jettySize=auto;html=1;" edge="1" parent="o7kjVJVzNSXuIzVh6Vg_-1" source="o7kjVJVzNSXuIzVh6Vg_-11">
          <mxGeometry relative="1" as="geometry">
            <mxPoint x="419" y="480" as="targetPoint" />
          </mxGeometry>
        </mxCell>
        <mxCell id="o7kjVJVzNSXuIzVh6Vg_-11" value="select * from data base where username" style="rounded=0;whiteSpace=wrap;html=1;fillColor=#dae8fc;strokeColor=#6c8ebf;" vertex="1" parent="o7kjVJVzNSXuIzVh6Vg_-1">
          <mxGeometry x="359" y="340" width="120" height="40" as="geometry" />
        </mxCell>
        <mxCell id="PckO1sYP7UV9j1oPXtVz-16" value="" style="edgeStyle=orthogonalEdgeStyle;rounded=0;orthogonalLoop=1;jettySize=auto;html=1;" edge="1" parent="o7kjVJVzNSXuIzVh6Vg_-1" source="o7kjVJVzNSXuIzVh6Vg_-12" target="PckO1sYP7UV9j1oPXtVz-0">
          <mxGeometry relative="1" as="geometry" />
        </mxCell>
        <mxCell id="o7kjVJVzNSXuIzVh6Vg_-12" value="stmt prepare&lt;div&gt;bind parameter username&lt;/div&gt;&lt;div&gt;exicute stmt&lt;/div&gt;&lt;div&gt;fetch result&amp;nbsp;&lt;/div&gt;" style="rounded=0;whiteSpace=wrap;html=1;fillColor=#dae8fc;strokeColor=#6c8ebf;" vertex="1" parent="o7kjVJVzNSXuIzVh6Vg_-1">
          <mxGeometry x="359" y="410" width="120" height="110" as="geometry" />
        </mxCell>
        <mxCell id="o7kjVJVzNSXuIzVh6Vg_-42" value="" style="endArrow=classic;html=1;rounded=0;exitX=0.5;exitY=1;exitDx=0;exitDy=0;" edge="1" parent="o7kjVJVzNSXuIzVh6Vg_-1" source="o7kjVJVzNSXuIzVh6Vg_-2">
          <mxGeometry width="50" height="50" relative="1" as="geometry">
            <mxPoint x="390" y="250" as="sourcePoint" />
            <mxPoint x="420" y="80" as="targetPoint" />
          </mxGeometry>
        </mxCell>
        <mxCell id="o7kjVJVzNSXuIzVh6Vg_-64" value="" style="endArrow=classic;html=1;rounded=0;exitX=0.5;exitY=1;exitDx=0;exitDy=0;entryX=0.5;entryY=0;entryDx=0;entryDy=0;" edge="1" parent="o7kjVJVzNSXuIzVh6Vg_-1" source="o7kjVJVzNSXuIzVh6Vg_-5" target="o7kjVJVzNSXuIzVh6Vg_-6">
          <mxGeometry width="50" height="50" relative="1" as="geometry">
            <mxPoint x="390" y="350" as="sourcePoint" />
            <mxPoint x="440" y="300" as="targetPoint" />
          </mxGeometry>
        </mxCell>
        <mxCell id="o7kjVJVzNSXuIzVh6Vg_-65" value="" style="endArrow=classic;html=1;rounded=0;exitX=0.5;exitY=1;exitDx=0;exitDy=0;entryX=0.5;entryY=0;entryDx=0;entryDy=0;" edge="1" parent="o7kjVJVzNSXuIzVh6Vg_-1" target="o7kjVJVzNSXuIzVh6Vg_-9">
          <mxGeometry width="50" height="50" relative="1" as="geometry">
            <mxPoint x="419" y="240" as="sourcePoint" />
            <mxPoint x="419" y="260" as="targetPoint" />
          </mxGeometry>
        </mxCell>
        <mxCell id="o7kjVJVzNSXuIzVh6Vg_-66" value="" style="endArrow=classic;html=1;rounded=0;exitX=0.5;exitY=1;exitDx=0;exitDy=0;entryX=0.5;entryY=0;entryDx=0;entryDy=0;" edge="1" parent="o7kjVJVzNSXuIzVh6Vg_-1" source="o7kjVJVzNSXuIzVh6Vg_-11" target="o7kjVJVzNSXuIzVh6Vg_-12">
          <mxGeometry width="50" height="50" relative="1" as="geometry">
            <mxPoint x="390" y="450" as="sourcePoint" />
            <mxPoint x="440" y="400" as="targetPoint" />
          </mxGeometry>
        </mxCell>
        <mxCell id="PckO1sYP7UV9j1oPXtVz-17" value="" style="edgeStyle=orthogonalEdgeStyle;rounded=0;orthogonalLoop=1;jettySize=auto;html=1;" edge="1" parent="o7kjVJVzNSXuIzVh6Vg_-1" source="PckO1sYP7UV9j1oPXtVz-0" target="PckO1sYP7UV9j1oPXtVz-3">
          <mxGeometry relative="1" as="geometry" />
        </mxCell>
        <mxCell id="PckO1sYP7UV9j1oPXtVz-0" value="if result" style="rhombus;whiteSpace=wrap;html=1;fillColor=#dae8fc;strokeColor=#000000;" vertex="1" parent="o7kjVJVzNSXuIzVh6Vg_-1">
          <mxGeometry x="369.5" y="550" width="99" height="110" as="geometry" />
        </mxCell>
        <mxCell id="PckO1sYP7UV9j1oPXtVz-2" value="password is incorrect" style="shape=parallelogram;perimeter=parallelogramPerimeter;whiteSpace=wrap;html=1;fixedSize=1;fillColor=#dae8fc;strokeColor=#000000;" vertex="1" parent="o7kjVJVzNSXuIzVh6Vg_-1">
          <mxGeometry x="110" y="1169" width="140" height="50" as="geometry" />
        </mxCell>
        <mxCell id="PckO1sYP7UV9j1oPXtVz-18" value="" style="edgeStyle=orthogonalEdgeStyle;rounded=0;orthogonalLoop=1;jettySize=auto;html=1;" edge="1" parent="o7kjVJVzNSXuIzVh6Vg_-1" source="PckO1sYP7UV9j1oPXtVz-3" target="PckO1sYP7UV9j1oPXtVz-4">
          <mxGeometry relative="1" as="geometry" />
        </mxCell>
        <mxCell id="PckO1sYP7UV9j1oPXtVz-3" value="session logged in = true" style="rounded=0;whiteSpace=wrap;html=1;fillColor=#dae8fc;strokeColor=#6c8ebf;" vertex="1" parent="o7kjVJVzNSXuIzVh6Vg_-1">
          <mxGeometry x="359" y="690" width="120" height="40" as="geometry" />
        </mxCell>
        <mxCell id="PckO1sYP7UV9j1oPXtVz-19" value="" style="edgeStyle=orthogonalEdgeStyle;rounded=0;orthogonalLoop=1;jettySize=auto;html=1;" edge="1" parent="o7kjVJVzNSXuIzVh6Vg_-1" source="PckO1sYP7UV9j1oPXtVz-4" target="PckO1sYP7UV9j1oPXtVz-5">
          <mxGeometry relative="1" as="geometry" />
        </mxCell>
        <mxCell id="PckO1sYP7UV9j1oPXtVz-4" value="session sername = username" style="rounded=0;whiteSpace=wrap;html=1;fillColor=#dae8fc;strokeColor=#6c8ebf;" vertex="1" parent="o7kjVJVzNSXuIzVh6Vg_-1">
          <mxGeometry x="359" y="780" width="120" height="40" as="geometry" />
        </mxCell>
        <mxCell id="PckO1sYP7UV9j1oPXtVz-20" value="" style="edgeStyle=orthogonalEdgeStyle;rounded=0;orthogonalLoop=1;jettySize=auto;html=1;" edge="1" parent="o7kjVJVzNSXuIzVh6Vg_-1" source="PckO1sYP7UV9j1oPXtVz-5" target="PckO1sYP7UV9j1oPXtVz-6">
          <mxGeometry relative="1" as="geometry" />
        </mxCell>
        <mxCell id="PckO1sYP7UV9j1oPXtVz-5" value="session userid = result id" style="rounded=0;whiteSpace=wrap;html=1;fillColor=#dae8fc;strokeColor=#6c8ebf;" vertex="1" parent="o7kjVJVzNSXuIzVh6Vg_-1">
          <mxGeometry x="354" y="870" width="120" height="40" as="geometry" />
        </mxCell>
        <mxCell id="PckO1sYP7UV9j1oPXtVz-21" value="" style="edgeStyle=orthogonalEdgeStyle;rounded=0;orthogonalLoop=1;jettySize=auto;html=1;" edge="1" parent="o7kjVJVzNSXuIzVh6Vg_-1" source="PckO1sYP7UV9j1oPXtVz-6" target="PckO1sYP7UV9j1oPXtVz-7">
          <mxGeometry relative="1" as="geometry" />
        </mxCell>
        <mxCell id="PckO1sYP7UV9j1oPXtVz-6" value="password = result password" style="rounded=0;whiteSpace=wrap;html=1;fillColor=#dae8fc;strokeColor=#6c8ebf;" vertex="1" parent="o7kjVJVzNSXuIzVh6Vg_-1">
          <mxGeometry x="354" y="960" width="120" height="40" as="geometry" />
        </mxCell>
        <mxCell id="PckO1sYP7UV9j1oPXtVz-24" value="" style="edgeStyle=orthogonalEdgeStyle;rounded=0;orthogonalLoop=1;jettySize=auto;html=1;" edge="1" parent="o7kjVJVzNSXuIzVh6Vg_-1" source="PckO1sYP7UV9j1oPXtVz-7" target="PckO1sYP7UV9j1oPXtVz-8">
          <mxGeometry relative="1" as="geometry" />
        </mxCell>
        <mxCell id="PckO1sYP7UV9j1oPXtVz-7" value="if password matches db password" style="rhombus;whiteSpace=wrap;html=1;fillColor=#dae8fc;strokeColor=#000000;" vertex="1" parent="o7kjVJVzNSXuIzVh6Vg_-1">
          <mxGeometry x="364" y="1040" width="99" height="110" as="geometry" />
        </mxCell>
        <mxCell id="PckO1sYP7UV9j1oPXtVz-25" value="" style="edgeStyle=orthogonalEdgeStyle;rounded=0;orthogonalLoop=1;jettySize=auto;html=1;" edge="1" parent="o7kjVJVzNSXuIzVh6Vg_-1" source="PckO1sYP7UV9j1oPXtVz-8" target="PckO1sYP7UV9j1oPXtVz-9">
          <mxGeometry relative="1" as="geometry" />
        </mxCell>
        <mxCell id="PckO1sYP7UV9j1oPXtVz-8" value="activity = log" style="rounded=0;whiteSpace=wrap;html=1;fillColor=#dae8fc;strokeColor=#6c8ebf;" vertex="1" parent="o7kjVJVzNSXuIzVh6Vg_-1">
          <mxGeometry x="354" y="1200" width="120" height="50" as="geometry" />
        </mxCell>
        <mxCell id="PckO1sYP7UV9j1oPXtVz-26" value="" style="edgeStyle=orthogonalEdgeStyle;rounded=0;orthogonalLoop=1;jettySize=auto;html=1;" edge="1" parent="o7kjVJVzNSXuIzVh6Vg_-1" source="PckO1sYP7UV9j1oPXtVz-9" target="PckO1sYP7UV9j1oPXtVz-10">
          <mxGeometry relative="1" as="geometry" />
        </mxCell>
        <mxCell id="PckO1sYP7UV9j1oPXtVz-9" value="log time = time" style="rounded=0;whiteSpace=wrap;html=1;fillColor=#dae8fc;strokeColor=#6c8ebf;" vertex="1" parent="o7kjVJVzNSXuIzVh6Vg_-1">
          <mxGeometry x="348.5" y="1300" width="120" height="50" as="geometry" />
        </mxCell>
        <mxCell id="PckO1sYP7UV9j1oPXtVz-27" value="" style="edgeStyle=orthogonalEdgeStyle;rounded=0;orthogonalLoop=1;jettySize=auto;html=1;" edge="1" parent="o7kjVJVzNSXuIzVh6Vg_-1" source="PckO1sYP7UV9j1oPXtVz-10" target="PckO1sYP7UV9j1oPXtVz-11">
          <mxGeometry relative="1" as="geometry" />
        </mxCell>
        <mxCell id="PckO1sYP7UV9j1oPXtVz-10" value="insert into activity (databse collumn names ) values(?&lt;span style=&quot;color: rgba(0, 0, 0, 0); font-family: monospace; font-size: 0px; text-align: start; text-wrap: nowrap;&quot;&gt;%3CmxGraphModel%3E%3Croot%3E%3CmxCell%20id%3D%220%22%2F%3E%3CmxCell%20id%3D%221%22%20parent%3D%220%22%2F%3E%3CmxCell%20id%3D%222%22%20value%3D%22logtime%20%3D%20time%22%20style%3D%22rounded%3D0%3BwhiteSpace%3Dwrap%3Bhtml%3D1%3BfillColor%3D%23dae8fc%3BstrokeColor%3D%236c8ebf%3B%22%20vertex%3D%221%22%20parent%3D%221%22%3E%3CmxGeometry%20x%3D%22348.5%22%20y%3D%221300%22%20width%3D%22120%22%20height%3D%2250%22%20as%3D%22geometry%22%2F%3E%3C%2FmxCell%3E%3C%2Froot%3E%3C%2FmxGraphModel%3E&lt;/span&gt;&lt;span style=&quot;color: rgba(0, 0, 0, 0); font-family: monospace; font-size: 0px; text-align: start; text-wrap: nowrap;&quot;&gt;%3CmxGraphModel%3E%3Croot%3E%3CmxCell%20id%3D%220%22%2F%3E%3CmxCell%20id%3D%221%22%20parent%3D%220%22%2F%3E%3CmxCell%20id%3D%222%22%20value%3D%22logtime%20%3D%20time%22%20style%3D%22rounded%3D0%3BwhiteSpace%3Dwrap%3Bhtml%3D1%3BfillColor%3D%23dae8fc%3BstrokeColor%3D%236c8ebf%3B%22%20vertex%3D%221%22%20parent%3D%221%22%3E%3CmxGeometry%20x%3D%22348.5%22%20y%3D%221300%22%20width%3D%22120%22%20height%3D%2250%22%20as%3D%22geometry%22%2F%3E%3C%2FmxCell%3E%3C%2Froot%3E%3C%2FmxGraphModel%3E&lt;/span&gt;)" style="rounded=0;whiteSpace=wrap;html=1;fillColor=#dae8fc;strokeColor=#6c8ebf;" vertex="1" parent="o7kjVJVzNSXuIzVh6Vg_-1">
          <mxGeometry x="348.5" y="1380" width="120" height="50" as="geometry" />
        </mxCell>
        <mxCell id="PckO1sYP7UV9j1oPXtVz-28" value="" style="edgeStyle=orthogonalEdgeStyle;rounded=0;orthogonalLoop=1;jettySize=auto;html=1;" edge="1" parent="o7kjVJVzNSXuIzVh6Vg_-1" source="PckO1sYP7UV9j1oPXtVz-11" target="PckO1sYP7UV9j1oPXtVz-12">
          <mxGeometry relative="1" as="geometry" />
        </mxCell>
        <mxCell id="PckO1sYP7UV9j1oPXtVz-11" value="prepare statement&lt;div&gt;bind parameter session userid&lt;/div&gt;&lt;div&gt;bind parameter activity&lt;/div&gt;&lt;div&gt;bind parameter logtime exicute statement&lt;/div&gt;&lt;div&gt;fetch result&lt;/div&gt;" style="rounded=0;whiteSpace=wrap;html=1;fillColor=#dae8fc;strokeColor=#6c8ebf;" vertex="1" parent="o7kjVJVzNSXuIzVh6Vg_-1">
          <mxGeometry x="333.5" y="1470" width="150" height="110" as="geometry" />
        </mxCell>
        <mxCell id="PckO1sYP7UV9j1oPXtVz-29" value="" style="edgeStyle=orthogonalEdgeStyle;rounded=0;orthogonalLoop=1;jettySize=auto;html=1;" edge="1" parent="o7kjVJVzNSXuIzVh6Vg_-1" source="PckO1sYP7UV9j1oPXtVz-12" target="PckO1sYP7UV9j1oPXtVz-13">
          <mxGeometry relative="1" as="geometry" />
        </mxCell>
        <mxCell id="PckO1sYP7UV9j1oPXtVz-12" value="redirect to profile" style="rounded=0;whiteSpace=wrap;html=1;fillColor=#dae8fc;strokeColor=#6c8ebf;" vertex="1" parent="o7kjVJVzNSXuIzVh6Vg_-1">
          <mxGeometry x="354" y="1630" width="120" height="50" as="geometry" />
        </mxCell>
        <mxCell id="PckO1sYP7UV9j1oPXtVz-31" value="" style="edgeStyle=orthogonalEdgeStyle;rounded=0;orthogonalLoop=1;jettySize=auto;html=1;" edge="1" parent="o7kjVJVzNSXuIzVh6Vg_-1" source="PckO1sYP7UV9j1oPXtVz-13" target="PckO1sYP7UV9j1oPXtVz-30">
          <mxGeometry relative="1" as="geometry" />
        </mxCell>
        <mxCell id="PckO1sYP7UV9j1oPXtVz-13" value="heading to profile page" style="shape=parallelogram;perimeter=parallelogramPerimeter;whiteSpace=wrap;html=1;fixedSize=1;fillColor=#dae8fc;strokeColor=#000000;" vertex="1" parent="o7kjVJVzNSXuIzVh6Vg_-1">
          <mxGeometry x="350" y="1710" width="120" height="60" as="geometry" />
        </mxCell>
        <mxCell id="PckO1sYP7UV9j1oPXtVz-23" value="" style="edgeStyle=orthogonalEdgeStyle;rounded=0;orthogonalLoop=1;jettySize=auto;html=1;" edge="1" parent="o7kjVJVzNSXuIzVh6Vg_-1" source="PckO1sYP7UV9j1oPXtVz-14" target="PckO1sYP7UV9j1oPXtVz-2">
          <mxGeometry relative="1" as="geometry" />
        </mxCell>
        <mxCell id="PckO1sYP7UV9j1oPXtVz-14" value="redirect login" style="rounded=0;whiteSpace=wrap;html=1;fillColor=#dae8fc;strokeColor=#6c8ebf;" vertex="1" parent="o7kjVJVzNSXuIzVh6Vg_-1">
          <mxGeometry x="120" y="1075" width="120" height="40" as="geometry" />
        </mxCell>
        <mxCell id="PckO1sYP7UV9j1oPXtVz-22" value="" style="endArrow=classic;html=1;rounded=0;exitX=0;exitY=0.5;exitDx=0;exitDy=0;entryX=1;entryY=0.5;entryDx=0;entryDy=0;" edge="1" parent="o7kjVJVzNSXuIzVh6Vg_-1" source="PckO1sYP7UV9j1oPXtVz-7" target="PckO1sYP7UV9j1oPXtVz-14">
          <mxGeometry width="50" height="50" relative="1" as="geometry">
            <mxPoint x="390" y="1070" as="sourcePoint" />
            <mxPoint x="440" y="1020" as="targetPoint" />
          </mxGeometry>
        </mxCell>
        <mxCell id="PckO1sYP7UV9j1oPXtVz-30" value="stop" style="ellipse;whiteSpace=wrap;html=1;fillColor=#dae8fc;strokeColor=#000000;" vertex="1" parent="o7kjVJVzNSXuIzVh6Vg_-1">
          <mxGeometry x="333.5" y="1840" width="120" height="50" as="geometry" />
        </mxCell>
        <mxCell id="PckO1sYP7UV9j1oPXtVz-32" value="" style="endArrow=classic;html=1;rounded=0;exitX=0.457;exitY=1.08;exitDx=0;exitDy=0;exitPerimeter=0;entryX=0.021;entryY=0.38;entryDx=0;entryDy=0;entryPerimeter=0;" edge="1" parent="o7kjVJVzNSXuIzVh6Vg_-1" source="PckO1sYP7UV9j1oPXtVz-2" target="PckO1sYP7UV9j1oPXtVz-30">
          <mxGeometry width="50" height="50" relative="1" as="geometry">
            <mxPoint x="390" y="1570" as="sourcePoint" />
            <mxPoint x="440" y="1520" as="targetPoint" />
            <Array as="points">
              <mxPoint x="180" y="1860" />
            </Array>
          </mxGeometry>
        </mxCell>
        <mxCell id="TPIWjSbrEhEIKBbco1S5-0" value="no" style="text;html=1;align=center;verticalAlign=middle;resizable=0;points=[];autosize=1;strokeColor=none;fillColor=none;" vertex="1" parent="o7kjVJVzNSXuIzVh6Vg_-1">
          <mxGeometry x="280" y="1068" width="40" height="30" as="geometry" />
        </mxCell>
        <mxCell id="TPIWjSbrEhEIKBbco1S5-1" value="yes" style="text;html=1;align=center;verticalAlign=middle;resizable=0;points=[];autosize=1;strokeColor=none;fillColor=none;" vertex="1" parent="o7kjVJVzNSXuIzVh6Vg_-1">
          <mxGeometry x="420" y="1148" width="40" height="30" as="geometry" />
        </mxCell>
      </root>
    </mxGraphModel>
  </diagram>
  <diagram name=" Change Password Verify" id="IGFyLXznz0TgJGemq636">
    <mxGraphModel dx="1436" dy="738" grid="1" gridSize="10" guides="1" tooltips="1" connect="1" arrows="1" fold="1" page="1" pageScale="1" pageWidth="827" pageHeight="1169" background="#99CCFF" math="0" shadow="0">
      <root>
        <mxCell id="C3oTDtUzSkQFr0_E5QP_-0" />
        <mxCell id="C3oTDtUzSkQFr0_E5QP_-1" parent="C3oTDtUzSkQFr0_E5QP_-0" />
        <mxCell id="C3oTDtUzSkQFr0_E5QP_-2" value="start" style="ellipse;whiteSpace=wrap;html=1;fillColor=#dae8fc;strokeColor=#000000;" vertex="1" parent="C3oTDtUzSkQFr0_E5QP_-1">
          <mxGeometry x="243" width="120" height="50" as="geometry" />
        </mxCell>
        <mxCell id="C3oTDtUzSkQFr0_E5QP_-3" value="Verify Update Password" style="text;html=1;align=center;verticalAlign=middle;resizable=0;points=[];autosize=1;strokeColor=none;fillColor=none;fontSize=27;" vertex="1" parent="C3oTDtUzSkQFr0_E5QP_-1">
          <mxGeometry x="445" y="15" width="310" height="50" as="geometry" />
        </mxCell>
        <mxCell id="C3oTDtUzSkQFr0_E5QP_-4" value="" style="edgeStyle=orthogonalEdgeStyle;rounded=0;orthogonalLoop=1;jettySize=auto;html=1;" edge="1" parent="C3oTDtUzSkQFr0_E5QP_-1" source="C3oTDtUzSkQFr0_E5QP_-5" target="C3oTDtUzSkQFr0_E5QP_-8">
          <mxGeometry relative="1" as="geometry" />
        </mxCell>
        <mxCell id="C3oTDtUzSkQFr0_E5QP_-5" value="start session" style="rounded=0;whiteSpace=wrap;html=1;fillColor=#dae8fc;strokeColor=#6c8ebf;" vertex="1" parent="C3oTDtUzSkQFr0_E5QP_-1">
          <mxGeometry x="243" y="80" width="120" height="40" as="geometry" />
        </mxCell>
        <mxCell id="C3oTDtUzSkQFr0_E5QP_-6" value="old password = post old passord" style="rounded=0;whiteSpace=wrap;html=1;fillColor=#dae8fc;strokeColor=#6c8ebf;" vertex="1" parent="C3oTDtUzSkQFr0_E5QP_-1">
          <mxGeometry x="243" y="140" width="120" height="40" as="geometry" />
        </mxCell>
        <mxCell id="C3oTDtUzSkQFr0_E5QP_-8" value="new password = post new password" style="rounded=0;whiteSpace=wrap;html=1;fillColor=#dae8fc;strokeColor=#6c8ebf;" vertex="1" parent="C3oTDtUzSkQFr0_E5QP_-1">
          <mxGeometry x="243" y="200" width="120" height="40" as="geometry" />
        </mxCell>
        <mxCell id="tOzsoQPiYIs_HtZVGgST-145" value="" style="edgeStyle=orthogonalEdgeStyle;rounded=0;orthogonalLoop=1;jettySize=auto;html=1;" edge="1" parent="C3oTDtUzSkQFr0_E5QP_-1" source="C3oTDtUzSkQFr0_E5QP_-9" target="tOzsoQPiYIs_HtZVGgST-144">
          <mxGeometry relative="1" as="geometry" />
        </mxCell>
        <mxCell id="C3oTDtUzSkQFr0_E5QP_-9" value="confrim new password = post confirrm new password" style="rounded=0;whiteSpace=wrap;html=1;fillColor=#dae8fc;strokeColor=#6c8ebf;" vertex="1" parent="C3oTDtUzSkQFr0_E5QP_-1">
          <mxGeometry x="234" y="270" width="140" height="40" as="geometry" />
        </mxCell>
        <mxCell id="C3oTDtUzSkQFr0_E5QP_-10" value="" style="edgeStyle=orthogonalEdgeStyle;rounded=0;orthogonalLoop=1;jettySize=auto;html=1;" edge="1" parent="C3oTDtUzSkQFr0_E5QP_-1" source="C3oTDtUzSkQFr0_E5QP_-11">
          <mxGeometry relative="1" as="geometry">
            <mxPoint x="303" y="621" as="targetPoint" />
          </mxGeometry>
        </mxCell>
        <mxCell id="C3oTDtUzSkQFr0_E5QP_-11" value="select password from database where userid" style="rounded=0;whiteSpace=wrap;html=1;fillColor=#dae8fc;strokeColor=#6c8ebf;" vertex="1" parent="C3oTDtUzSkQFr0_E5QP_-1">
          <mxGeometry x="243" y="481" width="120" height="40" as="geometry" />
        </mxCell>
        <mxCell id="C3oTDtUzSkQFr0_E5QP_-12" value="" style="edgeStyle=orthogonalEdgeStyle;rounded=0;orthogonalLoop=1;jettySize=auto;html=1;" edge="1" parent="C3oTDtUzSkQFr0_E5QP_-1" source="C3oTDtUzSkQFr0_E5QP_-13" target="C3oTDtUzSkQFr0_E5QP_-19">
          <mxGeometry relative="1" as="geometry" />
        </mxCell>
        <mxCell id="C3oTDtUzSkQFr0_E5QP_-13" value="stmt prepare&lt;div&gt;bind parameter userid&lt;/div&gt;&lt;div&gt;exicute stmt&lt;/div&gt;&lt;div&gt;fetch result&amp;nbsp;&lt;/div&gt;" style="rounded=0;whiteSpace=wrap;html=1;fillColor=#dae8fc;strokeColor=#6c8ebf;" vertex="1" parent="C3oTDtUzSkQFr0_E5QP_-1">
          <mxGeometry x="243" y="551" width="120" height="110" as="geometry" />
        </mxCell>
        <mxCell id="C3oTDtUzSkQFr0_E5QP_-14" value="" style="endArrow=classic;html=1;rounded=0;exitX=0.5;exitY=1;exitDx=0;exitDy=0;" edge="1" parent="C3oTDtUzSkQFr0_E5QP_-1" source="C3oTDtUzSkQFr0_E5QP_-2">
          <mxGeometry width="50" height="50" relative="1" as="geometry">
            <mxPoint x="274" y="250" as="sourcePoint" />
            <mxPoint x="304" y="80" as="targetPoint" />
          </mxGeometry>
        </mxCell>
        <mxCell id="C3oTDtUzSkQFr0_E5QP_-15" value="" style="endArrow=classic;html=1;rounded=0;exitX=0.5;exitY=1;exitDx=0;exitDy=0;entryX=0.5;entryY=0;entryDx=0;entryDy=0;" edge="1" parent="C3oTDtUzSkQFr0_E5QP_-1" source="C3oTDtUzSkQFr0_E5QP_-5" target="C3oTDtUzSkQFr0_E5QP_-6">
          <mxGeometry width="50" height="50" relative="1" as="geometry">
            <mxPoint x="274" y="350" as="sourcePoint" />
            <mxPoint x="324" y="300" as="targetPoint" />
          </mxGeometry>
        </mxCell>
        <mxCell id="C3oTDtUzSkQFr0_E5QP_-16" value="" style="endArrow=classic;html=1;rounded=0;exitX=0.5;exitY=1;exitDx=0;exitDy=0;entryX=0.5;entryY=0;entryDx=0;entryDy=0;" edge="1" parent="C3oTDtUzSkQFr0_E5QP_-1" target="C3oTDtUzSkQFr0_E5QP_-9">
          <mxGeometry width="50" height="50" relative="1" as="geometry">
            <mxPoint x="303" y="240" as="sourcePoint" />
            <mxPoint x="303" y="260" as="targetPoint" />
          </mxGeometry>
        </mxCell>
        <mxCell id="C3oTDtUzSkQFr0_E5QP_-17" value="" style="endArrow=classic;html=1;rounded=0;exitX=0.5;exitY=1;exitDx=0;exitDy=0;entryX=0.5;entryY=0;entryDx=0;entryDy=0;" edge="1" parent="C3oTDtUzSkQFr0_E5QP_-1" source="C3oTDtUzSkQFr0_E5QP_-11" target="C3oTDtUzSkQFr0_E5QP_-13">
          <mxGeometry width="50" height="50" relative="1" as="geometry">
            <mxPoint x="274" y="591" as="sourcePoint" />
            <mxPoint x="324" y="541" as="targetPoint" />
          </mxGeometry>
        </mxCell>
        <mxCell id="C3oTDtUzSkQFr0_E5QP_-18" value="" style="edgeStyle=orthogonalEdgeStyle;rounded=0;orthogonalLoop=1;jettySize=auto;html=1;" edge="1" parent="C3oTDtUzSkQFr0_E5QP_-1" source="C3oTDtUzSkQFr0_E5QP_-19" target="C3oTDtUzSkQFr0_E5QP_-22">
          <mxGeometry relative="1" as="geometry" />
        </mxCell>
        <mxCell id="C3oTDtUzSkQFr0_E5QP_-19" value="if result" style="rhombus;whiteSpace=wrap;html=1;fillColor=#dae8fc;strokeColor=#000000;" vertex="1" parent="C3oTDtUzSkQFr0_E5QP_-1">
          <mxGeometry x="253.5" y="691" width="99" height="110" as="geometry" />
        </mxCell>
        <mxCell id="C3oTDtUzSkQFr0_E5QP_-21" value="" style="edgeStyle=orthogonalEdgeStyle;rounded=0;orthogonalLoop=1;jettySize=auto;html=1;" edge="1" parent="C3oTDtUzSkQFr0_E5QP_-1" source="C3oTDtUzSkQFr0_E5QP_-22">
          <mxGeometry relative="1" as="geometry">
            <mxPoint x="303" y="921" as="targetPoint" />
          </mxGeometry>
        </mxCell>
        <mxCell id="C3oTDtUzSkQFr0_E5QP_-22" value="saved password = result password" style="rounded=0;whiteSpace=wrap;html=1;fillColor=#dae8fc;strokeColor=#6c8ebf;" vertex="1" parent="C3oTDtUzSkQFr0_E5QP_-1">
          <mxGeometry x="243" y="831" width="120" height="40" as="geometry" />
        </mxCell>
        <mxCell id="YRkcXdcECK9PuHrTwfVZ-2" value="" style="edgeStyle=orthogonalEdgeStyle;rounded=0;orthogonalLoop=1;jettySize=auto;html=1;" edge="1" parent="C3oTDtUzSkQFr0_E5QP_-1" source="YRkcXdcECK9PuHrTwfVZ-0" target="YRkcXdcECK9PuHrTwfVZ-1">
          <mxGeometry relative="1" as="geometry" />
        </mxCell>
        <mxCell id="YRkcXdcECK9PuHrTwfVZ-4" value="" style="edgeStyle=orthogonalEdgeStyle;rounded=0;orthogonalLoop=1;jettySize=auto;html=1;" edge="1" parent="C3oTDtUzSkQFr0_E5QP_-1" source="YRkcXdcECK9PuHrTwfVZ-0" target="YRkcXdcECK9PuHrTwfVZ-3">
          <mxGeometry relative="1" as="geometry" />
        </mxCell>
        <mxCell id="YRkcXdcECK9PuHrTwfVZ-0" value="does old password match saved password" style="rhombus;whiteSpace=wrap;html=1;fillColor=#dae8fc;strokeColor=#000000;" vertex="1" parent="C3oTDtUzSkQFr0_E5QP_-1">
          <mxGeometry x="253.5" y="921" width="99" height="110" as="geometry" />
        </mxCell>
        <mxCell id="YRkcXdcECK9PuHrTwfVZ-19" value="" style="edgeStyle=orthogonalEdgeStyle;rounded=0;orthogonalLoop=1;jettySize=auto;html=1;" edge="1" parent="C3oTDtUzSkQFr0_E5QP_-1" source="YRkcXdcECK9PuHrTwfVZ-1">
          <mxGeometry relative="1" as="geometry">
            <mxPoint x="460" y="1126" as="targetPoint" />
          </mxGeometry>
        </mxCell>
        <mxCell id="tOzsoQPiYIs_HtZVGgST-19" value="" style="edgeStyle=orthogonalEdgeStyle;rounded=0;orthogonalLoop=1;jettySize=auto;html=1;" edge="1" parent="C3oTDtUzSkQFr0_E5QP_-1" source="YRkcXdcECK9PuHrTwfVZ-1" target="tOzsoQPiYIs_HtZVGgST-16">
          <mxGeometry relative="1" as="geometry" />
        </mxCell>
        <mxCell id="YRkcXdcECK9PuHrTwfVZ-1" value="does new password match confirm password" style="rhombus;whiteSpace=wrap;html=1;fillColor=#dae8fc;strokeColor=#000000;" vertex="1" parent="C3oTDtUzSkQFr0_E5QP_-1">
          <mxGeometry x="253.5" y="1071" width="99" height="110" as="geometry" />
        </mxCell>
        <mxCell id="YRkcXdcECK9PuHrTwfVZ-12" value="" style="edgeStyle=orthogonalEdgeStyle;rounded=0;orthogonalLoop=1;jettySize=auto;html=1;" edge="1" parent="C3oTDtUzSkQFr0_E5QP_-1" source="YRkcXdcECK9PuHrTwfVZ-3" target="YRkcXdcECK9PuHrTwfVZ-5">
          <mxGeometry relative="1" as="geometry" />
        </mxCell>
        <mxCell id="YRkcXdcECK9PuHrTwfVZ-3" value="activity = apc" style="whiteSpace=wrap;html=1;fillColor=#dae8fc;strokeColor=#000000;" vertex="1" parent="C3oTDtUzSkQFr0_E5QP_-1">
          <mxGeometry x="64" y="961" width="120" height="30" as="geometry" />
        </mxCell>
        <mxCell id="YRkcXdcECK9PuHrTwfVZ-13" value="" style="edgeStyle=orthogonalEdgeStyle;rounded=0;orthogonalLoop=1;jettySize=auto;html=1;" edge="1" parent="C3oTDtUzSkQFr0_E5QP_-1" source="YRkcXdcECK9PuHrTwfVZ-5" target="YRkcXdcECK9PuHrTwfVZ-7">
          <mxGeometry relative="1" as="geometry" />
        </mxCell>
        <mxCell id="YRkcXdcECK9PuHrTwfVZ-5" value="logtime = time" style="whiteSpace=wrap;html=1;fillColor=#dae8fc;strokeColor=#000000;" vertex="1" parent="C3oTDtUzSkQFr0_E5QP_-1">
          <mxGeometry x="64" y="1031" width="120" height="30" as="geometry" />
        </mxCell>
        <mxCell id="YRkcXdcECK9PuHrTwfVZ-6" value="" style="edgeStyle=orthogonalEdgeStyle;rounded=0;orthogonalLoop=1;jettySize=auto;html=1;" edge="1" parent="C3oTDtUzSkQFr0_E5QP_-1" source="YRkcXdcECK9PuHrTwfVZ-7">
          <mxGeometry relative="1" as="geometry">
            <mxPoint x="124" y="1259" as="targetPoint" />
          </mxGeometry>
        </mxCell>
        <mxCell id="YRkcXdcECK9PuHrTwfVZ-7" value="insert into database (database collumn names ) values = ?" style="rounded=0;whiteSpace=wrap;html=1;fillColor=#dae8fc;strokeColor=#6c8ebf;" vertex="1" parent="C3oTDtUzSkQFr0_E5QP_-1">
          <mxGeometry x="64" y="1119" width="120" height="40" as="geometry" />
        </mxCell>
        <mxCell id="YRkcXdcECK9PuHrTwfVZ-8" value="" style="edgeStyle=orthogonalEdgeStyle;rounded=0;orthogonalLoop=1;jettySize=auto;html=1;" edge="1" parent="C3oTDtUzSkQFr0_E5QP_-1" source="YRkcXdcECK9PuHrTwfVZ-9">
          <mxGeometry relative="1" as="geometry">
            <mxPoint x="124" y="1339" as="targetPoint" />
          </mxGeometry>
        </mxCell>
        <mxCell id="YRkcXdcECK9PuHrTwfVZ-9" value="stmt prepare&lt;div&gt;bind parameter userid&lt;/div&gt;&lt;div&gt;bind parameter activity&lt;br&gt;&lt;/div&gt;&lt;div&gt;bind parameter logtime&lt;/div&gt;&lt;div&gt;exicute stmt&lt;span style=&quot;background-color: initial;&quot;&gt;&amp;nbsp;&lt;/span&gt;&lt;/div&gt;" style="rounded=0;whiteSpace=wrap;html=1;fillColor=#dae8fc;strokeColor=#6c8ebf;" vertex="1" parent="C3oTDtUzSkQFr0_E5QP_-1">
          <mxGeometry x="64" y="1189" width="120" height="110" as="geometry" />
        </mxCell>
        <mxCell id="YRkcXdcECK9PuHrTwfVZ-10" value="" style="endArrow=classic;html=1;rounded=0;exitX=0.5;exitY=1;exitDx=0;exitDy=0;entryX=0.5;entryY=0;entryDx=0;entryDy=0;" edge="1" parent="C3oTDtUzSkQFr0_E5QP_-1" source="YRkcXdcECK9PuHrTwfVZ-7" target="YRkcXdcECK9PuHrTwfVZ-9">
          <mxGeometry width="50" height="50" relative="1" as="geometry">
            <mxPoint x="95" y="1229" as="sourcePoint" />
            <mxPoint x="145" y="1179" as="targetPoint" />
          </mxGeometry>
        </mxCell>
        <mxCell id="YRkcXdcECK9PuHrTwfVZ-15" value="" style="edgeStyle=orthogonalEdgeStyle;rounded=0;orthogonalLoop=1;jettySize=auto;html=1;" edge="1" parent="C3oTDtUzSkQFr0_E5QP_-1" source="YRkcXdcECK9PuHrTwfVZ-11" target="YRkcXdcECK9PuHrTwfVZ-14">
          <mxGeometry relative="1" as="geometry" />
        </mxCell>
        <mxCell id="YRkcXdcECK9PuHrTwfVZ-11" value="session unset&lt;div&gt;session destroy&lt;/div&gt;" style="rounded=0;whiteSpace=wrap;html=1;fillColor=#dae8fc;strokeColor=#000000;" vertex="1" parent="C3oTDtUzSkQFr0_E5QP_-1">
          <mxGeometry x="64" y="1339" width="120" height="60" as="geometry" />
        </mxCell>
        <mxCell id="YRkcXdcECK9PuHrTwfVZ-17" value="" style="edgeStyle=orthogonalEdgeStyle;rounded=0;orthogonalLoop=1;jettySize=auto;html=1;" edge="1" parent="C3oTDtUzSkQFr0_E5QP_-1" source="YRkcXdcECK9PuHrTwfVZ-14" target="YRkcXdcECK9PuHrTwfVZ-16">
          <mxGeometry relative="1" as="geometry" />
        </mxCell>
        <mxCell id="YRkcXdcECK9PuHrTwfVZ-14" value="redirect to login" style="whiteSpace=wrap;html=1;fillColor=#dae8fc;strokeColor=#000000;" vertex="1" parent="C3oTDtUzSkQFr0_E5QP_-1">
          <mxGeometry x="64" y="1439" width="120" height="30" as="geometry" />
        </mxCell>
        <mxCell id="YRkcXdcECK9PuHrTwfVZ-16" value="old password does not match please login again" style="shape=parallelogram;perimeter=parallelogramPerimeter;whiteSpace=wrap;html=1;fixedSize=1;fillColor=#dae8fc;strokeColor=#000000;" vertex="1" parent="C3oTDtUzSkQFr0_E5QP_-1">
          <mxGeometry x="64" y="1534" width="120" height="60" as="geometry" />
        </mxCell>
        <mxCell id="tOzsoQPiYIs_HtZVGgST-40" value="" style="edgeStyle=orthogonalEdgeStyle;rounded=0;orthogonalLoop=1;jettySize=auto;html=1;" edge="1" parent="C3oTDtUzSkQFr0_E5QP_-1" source="YRkcXdcECK9PuHrTwfVZ-18" target="tOzsoQPiYIs_HtZVGgST-23">
          <mxGeometry relative="1" as="geometry" />
        </mxCell>
        <mxCell id="YRkcXdcECK9PuHrTwfVZ-18" value="does new password&amp;nbsp; have lowercase letters" style="rhombus;whiteSpace=wrap;html=1;fillColor=#dae8fc;strokeColor=#000000;" vertex="1" parent="C3oTDtUzSkQFr0_E5QP_-1">
          <mxGeometry x="460" y="1059.75" width="120" height="132.5" as="geometry" />
        </mxCell>
        <mxCell id="YRkcXdcECK9PuHrTwfVZ-20" value="" style="edgeStyle=orthogonalEdgeStyle;rounded=0;orthogonalLoop=1;jettySize=auto;html=1;" edge="1" parent="C3oTDtUzSkQFr0_E5QP_-1">
          <mxGeometry relative="1" as="geometry">
            <mxPoint x="580" y="1126" as="sourcePoint" />
            <mxPoint x="687" y="1126" as="targetPoint" />
          </mxGeometry>
        </mxCell>
        <mxCell id="YRkcXdcECK9PuHrTwfVZ-27" value="" style="edgeStyle=orthogonalEdgeStyle;rounded=0;orthogonalLoop=1;jettySize=auto;html=1;" edge="1" parent="C3oTDtUzSkQFr0_E5QP_-1" source="YRkcXdcECK9PuHrTwfVZ-21" target="YRkcXdcECK9PuHrTwfVZ-23">
          <mxGeometry relative="1" as="geometry" />
        </mxCell>
        <mxCell id="tOzsoQPiYIs_HtZVGgST-41" value="" style="edgeStyle=orthogonalEdgeStyle;rounded=0;orthogonalLoop=1;jettySize=auto;html=1;" edge="1" parent="C3oTDtUzSkQFr0_E5QP_-1" source="YRkcXdcECK9PuHrTwfVZ-21" target="tOzsoQPiYIs_HtZVGgST-27">
          <mxGeometry relative="1" as="geometry" />
        </mxCell>
        <mxCell id="YRkcXdcECK9PuHrTwfVZ-21" value="does new password&amp;nbsp; have lowercase letters" style="rhombus;whiteSpace=wrap;html=1;fillColor=#dae8fc;strokeColor=#000000;" vertex="1" parent="C3oTDtUzSkQFr0_E5QP_-1">
          <mxGeometry x="687" y="1059.75" width="120" height="132.5" as="geometry" />
        </mxCell>
        <mxCell id="YRkcXdcECK9PuHrTwfVZ-22" value="" style="edgeStyle=orthogonalEdgeStyle;rounded=0;orthogonalLoop=1;jettySize=auto;html=1;" edge="1" parent="C3oTDtUzSkQFr0_E5QP_-1" source="YRkcXdcECK9PuHrTwfVZ-23">
          <mxGeometry relative="1" as="geometry">
            <mxPoint x="1066.5" y="1126" as="targetPoint" />
          </mxGeometry>
        </mxCell>
        <mxCell id="tOzsoQPiYIs_HtZVGgST-42" value="" style="edgeStyle=orthogonalEdgeStyle;rounded=0;orthogonalLoop=1;jettySize=auto;html=1;" edge="1" parent="C3oTDtUzSkQFr0_E5QP_-1" source="YRkcXdcECK9PuHrTwfVZ-23" target="tOzsoQPiYIs_HtZVGgST-29">
          <mxGeometry relative="1" as="geometry" />
        </mxCell>
        <mxCell id="YRkcXdcECK9PuHrTwfVZ-23" value="does new password have uppercase letters" style="rhombus;whiteSpace=wrap;html=1;fillColor=#dae8fc;strokeColor=#000000;" vertex="1" parent="C3oTDtUzSkQFr0_E5QP_-1">
          <mxGeometry x="860" y="1071" width="99" height="110" as="geometry" />
        </mxCell>
        <mxCell id="YRkcXdcECK9PuHrTwfVZ-25" value="" style="edgeStyle=orthogonalEdgeStyle;rounded=0;orthogonalLoop=1;jettySize=auto;html=1;" edge="1" parent="C3oTDtUzSkQFr0_E5QP_-1">
          <mxGeometry relative="1" as="geometry">
            <mxPoint x="1170" y="1126" as="sourcePoint" />
            <mxPoint x="1277" y="1126" as="targetPoint" />
          </mxGeometry>
        </mxCell>
        <mxCell id="tOzsoQPiYIs_HtZVGgST-45" value="" style="edgeStyle=orthogonalEdgeStyle;rounded=0;orthogonalLoop=1;jettySize=auto;html=1;" edge="1" parent="C3oTDtUzSkQFr0_E5QP_-1">
          <mxGeometry relative="1" as="geometry">
            <mxPoint x="1337" y="1332.25" as="sourcePoint" />
            <mxPoint x="1337" y="1451" as="targetPoint" />
          </mxGeometry>
        </mxCell>
        <mxCell id="YRkcXdcECK9PuHrTwfVZ-26" value="does new password have special characters&amp;nbsp;" style="rhombus;whiteSpace=wrap;html=1;fillColor=#dae8fc;strokeColor=#000000;" vertex="1" parent="C3oTDtUzSkQFr0_E5QP_-1">
          <mxGeometry x="1277" y="1058.75" width="120" height="132.5" as="geometry" />
        </mxCell>
        <mxCell id="tOzsoQPiYIs_HtZVGgST-44" value="" style="edgeStyle=orthogonalEdgeStyle;rounded=0;orthogonalLoop=1;jettySize=auto;html=1;" edge="1" parent="C3oTDtUzSkQFr0_E5QP_-1" source="tOzsoQPiYIs_HtZVGgST-1" target="tOzsoQPiYIs_HtZVGgST-33">
          <mxGeometry relative="1" as="geometry" />
        </mxCell>
        <mxCell id="tOzsoQPiYIs_HtZVGgST-1" value="does new password have numbers&amp;nbsp;" style="rhombus;whiteSpace=wrap;html=1;fillColor=#dae8fc;strokeColor=#000000;" vertex="1" parent="C3oTDtUzSkQFr0_E5QP_-1">
          <mxGeometry x="1070" y="1078.5" width="100" height="95" as="geometry" />
        </mxCell>
        <mxCell id="tOzsoQPiYIs_HtZVGgST-2" value="no" style="text;html=1;align=center;verticalAlign=middle;resizable=0;points=[];autosize=1;strokeColor=none;fillColor=none;" vertex="1" parent="C3oTDtUzSkQFr0_E5QP_-1">
          <mxGeometry x="210" y="949" width="40" height="30" as="geometry" />
        </mxCell>
        <mxCell id="tOzsoQPiYIs_HtZVGgST-4" value="yes" style="text;html=1;align=center;verticalAlign=middle;resizable=0;points=[];autosize=1;strokeColor=none;fillColor=none;" vertex="1" parent="C3oTDtUzSkQFr0_E5QP_-1">
          <mxGeometry x="300" y="1029" width="40" height="30" as="geometry" />
        </mxCell>
        <mxCell id="tOzsoQPiYIs_HtZVGgST-5" value="yes" style="text;html=1;align=center;verticalAlign=middle;resizable=0;points=[];autosize=1;strokeColor=none;fillColor=none;" vertex="1" parent="C3oTDtUzSkQFr0_E5QP_-1">
          <mxGeometry x="370" y="1099" width="40" height="30" as="geometry" />
        </mxCell>
        <mxCell id="tOzsoQPiYIs_HtZVGgST-6" value="yes" style="text;html=1;align=center;verticalAlign=middle;resizable=0;points=[];autosize=1;strokeColor=none;fillColor=none;" vertex="1" parent="C3oTDtUzSkQFr0_E5QP_-1">
          <mxGeometry x="590" y="1099" width="40" height="30" as="geometry" />
        </mxCell>
        <mxCell id="tOzsoQPiYIs_HtZVGgST-7" value="yes" style="text;html=1;align=center;verticalAlign=middle;resizable=0;points=[];autosize=1;strokeColor=none;fillColor=none;" vertex="1" parent="C3oTDtUzSkQFr0_E5QP_-1">
          <mxGeometry x="800" y="1099" width="40" height="30" as="geometry" />
        </mxCell>
        <mxCell id="tOzsoQPiYIs_HtZVGgST-8" value="yes" style="text;html=1;align=center;verticalAlign=middle;resizable=0;points=[];autosize=1;strokeColor=none;fillColor=none;" vertex="1" parent="C3oTDtUzSkQFr0_E5QP_-1">
          <mxGeometry x="980" y="1089" width="40" height="30" as="geometry" />
        </mxCell>
        <mxCell id="tOzsoQPiYIs_HtZVGgST-9" value="yes" style="text;html=1;align=center;verticalAlign=middle;resizable=0;points=[];autosize=1;strokeColor=none;fillColor=none;" vertex="1" parent="C3oTDtUzSkQFr0_E5QP_-1">
          <mxGeometry x="1180" y="1089" width="40" height="30" as="geometry" />
        </mxCell>
        <mxCell id="tOzsoQPiYIs_HtZVGgST-15" value="" style="edgeStyle=orthogonalEdgeStyle;rounded=0;orthogonalLoop=1;jettySize=auto;html=1;" edge="1" parent="C3oTDtUzSkQFr0_E5QP_-1" source="tOzsoQPiYIs_HtZVGgST-16" target="tOzsoQPiYIs_HtZVGgST-18">
          <mxGeometry relative="1" as="geometry" />
        </mxCell>
        <mxCell id="tOzsoQPiYIs_HtZVGgST-16" value="activity = apc" style="whiteSpace=wrap;html=1;fillColor=#dae8fc;strokeColor=#000000;" vertex="1" parent="C3oTDtUzSkQFr0_E5QP_-1">
          <mxGeometry x="244" y="1241" width="120" height="30" as="geometry" />
        </mxCell>
        <mxCell id="tOzsoQPiYIs_HtZVGgST-17" value="" style="edgeStyle=orthogonalEdgeStyle;rounded=0;orthogonalLoop=1;jettySize=auto;html=1;" edge="1" parent="C3oTDtUzSkQFr0_E5QP_-1" source="tOzsoQPiYIs_HtZVGgST-18">
          <mxGeometry relative="1" as="geometry">
            <mxPoint x="304" y="1391" as="targetPoint" />
          </mxGeometry>
        </mxCell>
        <mxCell id="tOzsoQPiYIs_HtZVGgST-18" value="logtime = time" style="whiteSpace=wrap;html=1;fillColor=#dae8fc;strokeColor=#000000;" vertex="1" parent="C3oTDtUzSkQFr0_E5QP_-1">
          <mxGeometry x="244" y="1311" width="120" height="30" as="geometry" />
        </mxCell>
        <mxCell id="tOzsoQPiYIs_HtZVGgST-20" value="" style="edgeStyle=orthogonalEdgeStyle;rounded=0;orthogonalLoop=1;jettySize=auto;html=1;" edge="1" parent="C3oTDtUzSkQFr0_E5QP_-1" source="tOzsoQPiYIs_HtZVGgST-21" target="tOzsoQPiYIs_HtZVGgST-23">
          <mxGeometry relative="1" as="geometry" />
        </mxCell>
        <mxCell id="tOzsoQPiYIs_HtZVGgST-21" value="activity = apc" style="whiteSpace=wrap;html=1;fillColor=#dae8fc;strokeColor=#000000;" vertex="1" parent="C3oTDtUzSkQFr0_E5QP_-1">
          <mxGeometry x="460" y="1241" width="120" height="30" as="geometry" />
        </mxCell>
        <mxCell id="tOzsoQPiYIs_HtZVGgST-22" value="" style="edgeStyle=orthogonalEdgeStyle;rounded=0;orthogonalLoop=1;jettySize=auto;html=1;" edge="1" parent="C3oTDtUzSkQFr0_E5QP_-1" source="tOzsoQPiYIs_HtZVGgST-23">
          <mxGeometry relative="1" as="geometry">
            <mxPoint x="520" y="1391" as="targetPoint" />
          </mxGeometry>
        </mxCell>
        <mxCell id="tOzsoQPiYIs_HtZVGgST-23" value="logtime = time" style="whiteSpace=wrap;html=1;fillColor=#dae8fc;strokeColor=#000000;" vertex="1" parent="C3oTDtUzSkQFr0_E5QP_-1">
          <mxGeometry x="460" y="1311" width="120" height="30" as="geometry" />
        </mxCell>
        <mxCell id="tOzsoQPiYIs_HtZVGgST-24" value="" style="edgeStyle=orthogonalEdgeStyle;rounded=0;orthogonalLoop=1;jettySize=auto;html=1;" edge="1" parent="C3oTDtUzSkQFr0_E5QP_-1" source="tOzsoQPiYIs_HtZVGgST-25" target="tOzsoQPiYIs_HtZVGgST-27">
          <mxGeometry relative="1" as="geometry" />
        </mxCell>
        <mxCell id="tOzsoQPiYIs_HtZVGgST-25" value="activity = apc" style="whiteSpace=wrap;html=1;fillColor=#dae8fc;strokeColor=#000000;" vertex="1" parent="C3oTDtUzSkQFr0_E5QP_-1">
          <mxGeometry x="680" y="1241" width="120" height="30" as="geometry" />
        </mxCell>
        <mxCell id="tOzsoQPiYIs_HtZVGgST-26" value="" style="edgeStyle=orthogonalEdgeStyle;rounded=0;orthogonalLoop=1;jettySize=auto;html=1;" edge="1" parent="C3oTDtUzSkQFr0_E5QP_-1" source="tOzsoQPiYIs_HtZVGgST-27">
          <mxGeometry relative="1" as="geometry">
            <mxPoint x="740" y="1391" as="targetPoint" />
          </mxGeometry>
        </mxCell>
        <mxCell id="tOzsoQPiYIs_HtZVGgST-27" value="logtime = time" style="whiteSpace=wrap;html=1;fillColor=#dae8fc;strokeColor=#000000;" vertex="1" parent="C3oTDtUzSkQFr0_E5QP_-1">
          <mxGeometry x="680" y="1311" width="120" height="30" as="geometry" />
        </mxCell>
        <mxCell id="tOzsoQPiYIs_HtZVGgST-28" value="" style="edgeStyle=orthogonalEdgeStyle;rounded=0;orthogonalLoop=1;jettySize=auto;html=1;" edge="1" parent="C3oTDtUzSkQFr0_E5QP_-1" source="tOzsoQPiYIs_HtZVGgST-29" target="tOzsoQPiYIs_HtZVGgST-31">
          <mxGeometry relative="1" as="geometry" />
        </mxCell>
        <mxCell id="tOzsoQPiYIs_HtZVGgST-29" value="activity = apc" style="whiteSpace=wrap;html=1;fillColor=#dae8fc;strokeColor=#000000;" vertex="1" parent="C3oTDtUzSkQFr0_E5QP_-1">
          <mxGeometry x="849.5" y="1241" width="120" height="30" as="geometry" />
        </mxCell>
        <mxCell id="tOzsoQPiYIs_HtZVGgST-30" value="" style="edgeStyle=orthogonalEdgeStyle;rounded=0;orthogonalLoop=1;jettySize=auto;html=1;" edge="1" parent="C3oTDtUzSkQFr0_E5QP_-1" source="tOzsoQPiYIs_HtZVGgST-31">
          <mxGeometry relative="1" as="geometry">
            <mxPoint x="910" y="1391" as="targetPoint" />
          </mxGeometry>
        </mxCell>
        <mxCell id="tOzsoQPiYIs_HtZVGgST-31" value="logtime = time" style="whiteSpace=wrap;html=1;fillColor=#dae8fc;strokeColor=#000000;" vertex="1" parent="C3oTDtUzSkQFr0_E5QP_-1">
          <mxGeometry x="849.5" y="1311" width="120" height="30" as="geometry" />
        </mxCell>
        <mxCell id="tOzsoQPiYIs_HtZVGgST-32" value="" style="edgeStyle=orthogonalEdgeStyle;rounded=0;orthogonalLoop=1;jettySize=auto;html=1;" edge="1" parent="C3oTDtUzSkQFr0_E5QP_-1" source="tOzsoQPiYIs_HtZVGgST-33" target="tOzsoQPiYIs_HtZVGgST-35">
          <mxGeometry relative="1" as="geometry" />
        </mxCell>
        <mxCell id="tOzsoQPiYIs_HtZVGgST-33" value="activity = apc" style="whiteSpace=wrap;html=1;fillColor=#dae8fc;strokeColor=#000000;" vertex="1" parent="C3oTDtUzSkQFr0_E5QP_-1">
          <mxGeometry x="1060" y="1231" width="120" height="30" as="geometry" />
        </mxCell>
        <mxCell id="tOzsoQPiYIs_HtZVGgST-35" value="logtime = time" style="whiteSpace=wrap;html=1;fillColor=#dae8fc;strokeColor=#000000;" vertex="1" parent="C3oTDtUzSkQFr0_E5QP_-1">
          <mxGeometry x="1060" y="1310" width="120" height="30" as="geometry" />
        </mxCell>
        <mxCell id="tOzsoQPiYIs_HtZVGgST-36" value="" style="edgeStyle=orthogonalEdgeStyle;rounded=0;orthogonalLoop=1;jettySize=auto;html=1;" edge="1" parent="C3oTDtUzSkQFr0_E5QP_-1">
          <mxGeometry relative="1" as="geometry">
            <mxPoint x="1337" y="1411" as="sourcePoint" />
            <mxPoint x="1337" y="1451" as="targetPoint" />
          </mxGeometry>
        </mxCell>
        <mxCell id="tOzsoQPiYIs_HtZVGgST-148" value="" style="edgeStyle=orthogonalEdgeStyle;rounded=0;orthogonalLoop=1;jettySize=auto;html=1;" edge="1" parent="C3oTDtUzSkQFr0_E5QP_-1" source="tOzsoQPiYIs_HtZVGgST-37" target="tOzsoQPiYIs_HtZVGgST-39">
          <mxGeometry relative="1" as="geometry" />
        </mxCell>
        <mxCell id="tOzsoQPiYIs_HtZVGgST-37" value="activity = apc" style="whiteSpace=wrap;html=1;fillColor=#dae8fc;strokeColor=#000000;" vertex="1" parent="C3oTDtUzSkQFr0_E5QP_-1">
          <mxGeometry x="1277" y="1240" width="120" height="30" as="geometry" />
        </mxCell>
        <mxCell id="tOzsoQPiYIs_HtZVGgST-38" value="" style="edgeStyle=orthogonalEdgeStyle;rounded=0;orthogonalLoop=1;jettySize=auto;html=1;" edge="1" parent="C3oTDtUzSkQFr0_E5QP_-1">
          <mxGeometry relative="1" as="geometry">
            <mxPoint x="1337" y="1531" as="targetPoint" />
            <mxPoint x="1337" y="1481" as="sourcePoint" />
          </mxGeometry>
        </mxCell>
        <mxCell id="tOzsoQPiYIs_HtZVGgST-39" value="logtime = time" style="whiteSpace=wrap;html=1;fillColor=#dae8fc;strokeColor=#000000;" vertex="1" parent="C3oTDtUzSkQFr0_E5QP_-1">
          <mxGeometry x="1277" y="1310" width="120" height="30" as="geometry" />
        </mxCell>
        <mxCell id="tOzsoQPiYIs_HtZVGgST-46" value="" style="edgeStyle=orthogonalEdgeStyle;rounded=0;orthogonalLoop=1;jettySize=auto;html=1;" edge="1" parent="C3oTDtUzSkQFr0_E5QP_-1" source="tOzsoQPiYIs_HtZVGgST-47">
          <mxGeometry relative="1" as="geometry">
            <mxPoint x="304" y="1531" as="targetPoint" />
          </mxGeometry>
        </mxCell>
        <mxCell id="tOzsoQPiYIs_HtZVGgST-47" value="insert into database (database collumn names ) values = ?" style="rounded=0;whiteSpace=wrap;html=1;fillColor=#dae8fc;strokeColor=#6c8ebf;" vertex="1" parent="C3oTDtUzSkQFr0_E5QP_-1">
          <mxGeometry x="244" y="1391" width="120" height="40" as="geometry" />
        </mxCell>
        <mxCell id="tOzsoQPiYIs_HtZVGgST-48" value="" style="edgeStyle=orthogonalEdgeStyle;rounded=0;orthogonalLoop=1;jettySize=auto;html=1;" edge="1" parent="C3oTDtUzSkQFr0_E5QP_-1" source="tOzsoQPiYIs_HtZVGgST-49">
          <mxGeometry relative="1" as="geometry">
            <mxPoint x="304" y="1611" as="targetPoint" />
          </mxGeometry>
        </mxCell>
        <mxCell id="tOzsoQPiYIs_HtZVGgST-49" value="stmt prepare&lt;div&gt;bind parameter userid&lt;/div&gt;&lt;div&gt;bind parameter activity&lt;br&gt;&lt;/div&gt;&lt;div&gt;bind parameter logtime&lt;/div&gt;&lt;div&gt;exicute stmt&lt;span style=&quot;background-color: initial;&quot;&gt;&amp;nbsp;&lt;/span&gt;&lt;/div&gt;" style="rounded=0;whiteSpace=wrap;html=1;fillColor=#dae8fc;strokeColor=#6c8ebf;" vertex="1" parent="C3oTDtUzSkQFr0_E5QP_-1">
          <mxGeometry x="244" y="1461" width="120" height="110" as="geometry" />
        </mxCell>
        <mxCell id="tOzsoQPiYIs_HtZVGgST-50" value="" style="endArrow=classic;html=1;rounded=0;exitX=0.5;exitY=1;exitDx=0;exitDy=0;entryX=0.5;entryY=0;entryDx=0;entryDy=0;" edge="1" parent="C3oTDtUzSkQFr0_E5QP_-1" source="tOzsoQPiYIs_HtZVGgST-47" target="tOzsoQPiYIs_HtZVGgST-49">
          <mxGeometry width="50" height="50" relative="1" as="geometry">
            <mxPoint x="275" y="1501" as="sourcePoint" />
            <mxPoint x="325" y="1451" as="targetPoint" />
          </mxGeometry>
        </mxCell>
        <mxCell id="tOzsoQPiYIs_HtZVGgST-51" value="" style="edgeStyle=orthogonalEdgeStyle;rounded=0;orthogonalLoop=1;jettySize=auto;html=1;" edge="1" parent="C3oTDtUzSkQFr0_E5QP_-1" source="tOzsoQPiYIs_HtZVGgST-52" target="tOzsoQPiYIs_HtZVGgST-54">
          <mxGeometry relative="1" as="geometry" />
        </mxCell>
        <mxCell id="tOzsoQPiYIs_HtZVGgST-52" value="session unset&lt;div&gt;session destroy&lt;/div&gt;" style="rounded=0;whiteSpace=wrap;html=1;fillColor=#dae8fc;strokeColor=#000000;" vertex="1" parent="C3oTDtUzSkQFr0_E5QP_-1">
          <mxGeometry x="244" y="1611" width="120" height="60" as="geometry" />
        </mxCell>
        <mxCell id="tOzsoQPiYIs_HtZVGgST-53" value="" style="edgeStyle=orthogonalEdgeStyle;rounded=0;orthogonalLoop=1;jettySize=auto;html=1;" edge="1" parent="C3oTDtUzSkQFr0_E5QP_-1" source="tOzsoQPiYIs_HtZVGgST-54" target="tOzsoQPiYIs_HtZVGgST-55">
          <mxGeometry relative="1" as="geometry" />
        </mxCell>
        <mxCell id="tOzsoQPiYIs_HtZVGgST-54" value="redirect to update password" style="whiteSpace=wrap;html=1;fillColor=#dae8fc;strokeColor=#000000;" vertex="1" parent="C3oTDtUzSkQFr0_E5QP_-1">
          <mxGeometry x="244" y="1711" width="120" height="30" as="geometry" />
        </mxCell>
        <mxCell id="tOzsoQPiYIs_HtZVGgST-55" value="passwords didnt match" style="shape=parallelogram;perimeter=parallelogramPerimeter;whiteSpace=wrap;html=1;fixedSize=1;fillColor=#dae8fc;strokeColor=#000000;" vertex="1" parent="C3oTDtUzSkQFr0_E5QP_-1">
          <mxGeometry x="244" y="1806" width="120" height="60" as="geometry" />
        </mxCell>
        <mxCell id="tOzsoQPiYIs_HtZVGgST-56" value="" style="edgeStyle=orthogonalEdgeStyle;rounded=0;orthogonalLoop=1;jettySize=auto;html=1;" edge="1" parent="C3oTDtUzSkQFr0_E5QP_-1" source="tOzsoQPiYIs_HtZVGgST-57">
          <mxGeometry relative="1" as="geometry">
            <mxPoint x="520" y="1531" as="targetPoint" />
          </mxGeometry>
        </mxCell>
        <mxCell id="tOzsoQPiYIs_HtZVGgST-57" value="insert into database (database collumn names ) values = ?" style="rounded=0;whiteSpace=wrap;html=1;fillColor=#dae8fc;strokeColor=#6c8ebf;" vertex="1" parent="C3oTDtUzSkQFr0_E5QP_-1">
          <mxGeometry x="460" y="1391" width="120" height="40" as="geometry" />
        </mxCell>
        <mxCell id="tOzsoQPiYIs_HtZVGgST-58" value="" style="edgeStyle=orthogonalEdgeStyle;rounded=0;orthogonalLoop=1;jettySize=auto;html=1;" edge="1" parent="C3oTDtUzSkQFr0_E5QP_-1" source="tOzsoQPiYIs_HtZVGgST-59">
          <mxGeometry relative="1" as="geometry">
            <mxPoint x="520" y="1611" as="targetPoint" />
          </mxGeometry>
        </mxCell>
        <mxCell id="tOzsoQPiYIs_HtZVGgST-59" value="stmt prepare&lt;div&gt;bind parameter userid&lt;/div&gt;&lt;div&gt;bind parameter activity&lt;br&gt;&lt;/div&gt;&lt;div&gt;bind parameter logtime&lt;/div&gt;&lt;div&gt;exicute stmt&lt;span style=&quot;background-color: initial;&quot;&gt;&amp;nbsp;&lt;/span&gt;&lt;/div&gt;" style="rounded=0;whiteSpace=wrap;html=1;fillColor=#dae8fc;strokeColor=#6c8ebf;" vertex="1" parent="C3oTDtUzSkQFr0_E5QP_-1">
          <mxGeometry x="460" y="1461" width="120" height="110" as="geometry" />
        </mxCell>
        <mxCell id="tOzsoQPiYIs_HtZVGgST-60" value="" style="endArrow=classic;html=1;rounded=0;exitX=0.5;exitY=1;exitDx=0;exitDy=0;entryX=0.5;entryY=0;entryDx=0;entryDy=0;" edge="1" parent="C3oTDtUzSkQFr0_E5QP_-1" source="tOzsoQPiYIs_HtZVGgST-57" target="tOzsoQPiYIs_HtZVGgST-59">
          <mxGeometry width="50" height="50" relative="1" as="geometry">
            <mxPoint x="491" y="1501" as="sourcePoint" />
            <mxPoint x="541" y="1451" as="targetPoint" />
          </mxGeometry>
        </mxCell>
        <mxCell id="tOzsoQPiYIs_HtZVGgST-61" value="" style="edgeStyle=orthogonalEdgeStyle;rounded=0;orthogonalLoop=1;jettySize=auto;html=1;" edge="1" parent="C3oTDtUzSkQFr0_E5QP_-1" source="tOzsoQPiYIs_HtZVGgST-62" target="tOzsoQPiYIs_HtZVGgST-64">
          <mxGeometry relative="1" as="geometry" />
        </mxCell>
        <mxCell id="tOzsoQPiYIs_HtZVGgST-62" value="session unset&lt;div&gt;session destroy&lt;/div&gt;" style="rounded=0;whiteSpace=wrap;html=1;fillColor=#dae8fc;strokeColor=#000000;" vertex="1" parent="C3oTDtUzSkQFr0_E5QP_-1">
          <mxGeometry x="460" y="1611" width="120" height="60" as="geometry" />
        </mxCell>
        <mxCell id="tOzsoQPiYIs_HtZVGgST-63" value="" style="edgeStyle=orthogonalEdgeStyle;rounded=0;orthogonalLoop=1;jettySize=auto;html=1;" edge="1" parent="C3oTDtUzSkQFr0_E5QP_-1" source="tOzsoQPiYIs_HtZVGgST-64" target="tOzsoQPiYIs_HtZVGgST-65">
          <mxGeometry relative="1" as="geometry" />
        </mxCell>
        <mxCell id="tOzsoQPiYIs_HtZVGgST-64" value="redirect to update password" style="whiteSpace=wrap;html=1;fillColor=#dae8fc;strokeColor=#000000;" vertex="1" parent="C3oTDtUzSkQFr0_E5QP_-1">
          <mxGeometry x="460" y="1711" width="120" height="30" as="geometry" />
        </mxCell>
        <mxCell id="tOzsoQPiYIs_HtZVGgST-65" value="no lowercase letters" style="shape=parallelogram;perimeter=parallelogramPerimeter;whiteSpace=wrap;html=1;fixedSize=1;fillColor=#dae8fc;strokeColor=#000000;" vertex="1" parent="C3oTDtUzSkQFr0_E5QP_-1">
          <mxGeometry x="460" y="1806" width="120" height="60" as="geometry" />
        </mxCell>
        <mxCell id="tOzsoQPiYIs_HtZVGgST-66" value="" style="edgeStyle=orthogonalEdgeStyle;rounded=0;orthogonalLoop=1;jettySize=auto;html=1;" edge="1" parent="C3oTDtUzSkQFr0_E5QP_-1" source="tOzsoQPiYIs_HtZVGgST-67">
          <mxGeometry relative="1" as="geometry">
            <mxPoint x="740" y="1531" as="targetPoint" />
          </mxGeometry>
        </mxCell>
        <mxCell id="tOzsoQPiYIs_HtZVGgST-67" value="insert into database (database collumn names ) values = ?" style="rounded=0;whiteSpace=wrap;html=1;fillColor=#dae8fc;strokeColor=#6c8ebf;" vertex="1" parent="C3oTDtUzSkQFr0_E5QP_-1">
          <mxGeometry x="680" y="1391" width="120" height="40" as="geometry" />
        </mxCell>
        <mxCell id="tOzsoQPiYIs_HtZVGgST-68" value="" style="edgeStyle=orthogonalEdgeStyle;rounded=0;orthogonalLoop=1;jettySize=auto;html=1;" edge="1" parent="C3oTDtUzSkQFr0_E5QP_-1" source="tOzsoQPiYIs_HtZVGgST-69">
          <mxGeometry relative="1" as="geometry">
            <mxPoint x="740" y="1611" as="targetPoint" />
          </mxGeometry>
        </mxCell>
        <mxCell id="tOzsoQPiYIs_HtZVGgST-69" value="stmt prepare&lt;div&gt;bind parameter userid&lt;/div&gt;&lt;div&gt;bind parameter activity&lt;br&gt;&lt;/div&gt;&lt;div&gt;bind parameter logtime&lt;/div&gt;&lt;div&gt;exicute stmt&lt;span style=&quot;background-color: initial;&quot;&gt;&amp;nbsp;&lt;/span&gt;&lt;/div&gt;" style="rounded=0;whiteSpace=wrap;html=1;fillColor=#dae8fc;strokeColor=#6c8ebf;" vertex="1" parent="C3oTDtUzSkQFr0_E5QP_-1">
          <mxGeometry x="680" y="1461" width="120" height="110" as="geometry" />
        </mxCell>
        <mxCell id="tOzsoQPiYIs_HtZVGgST-70" value="" style="endArrow=classic;html=1;rounded=0;exitX=0.5;exitY=1;exitDx=0;exitDy=0;entryX=0.5;entryY=0;entryDx=0;entryDy=0;" edge="1" parent="C3oTDtUzSkQFr0_E5QP_-1" source="tOzsoQPiYIs_HtZVGgST-67" target="tOzsoQPiYIs_HtZVGgST-69">
          <mxGeometry width="50" height="50" relative="1" as="geometry">
            <mxPoint x="711" y="1501" as="sourcePoint" />
            <mxPoint x="761" y="1451" as="targetPoint" />
          </mxGeometry>
        </mxCell>
        <mxCell id="tOzsoQPiYIs_HtZVGgST-71" value="" style="edgeStyle=orthogonalEdgeStyle;rounded=0;orthogonalLoop=1;jettySize=auto;html=1;" edge="1" parent="C3oTDtUzSkQFr0_E5QP_-1" source="tOzsoQPiYIs_HtZVGgST-72" target="tOzsoQPiYIs_HtZVGgST-74">
          <mxGeometry relative="1" as="geometry" />
        </mxCell>
        <mxCell id="tOzsoQPiYIs_HtZVGgST-72" value="session unset&lt;div&gt;session destroy&lt;/div&gt;" style="rounded=0;whiteSpace=wrap;html=1;fillColor=#dae8fc;strokeColor=#000000;" vertex="1" parent="C3oTDtUzSkQFr0_E5QP_-1">
          <mxGeometry x="680" y="1611" width="120" height="60" as="geometry" />
        </mxCell>
        <mxCell id="tOzsoQPiYIs_HtZVGgST-73" value="" style="edgeStyle=orthogonalEdgeStyle;rounded=0;orthogonalLoop=1;jettySize=auto;html=1;" edge="1" parent="C3oTDtUzSkQFr0_E5QP_-1" source="tOzsoQPiYIs_HtZVGgST-74" target="tOzsoQPiYIs_HtZVGgST-75">
          <mxGeometry relative="1" as="geometry" />
        </mxCell>
        <mxCell id="tOzsoQPiYIs_HtZVGgST-74" value="redirect to update password" style="whiteSpace=wrap;html=1;fillColor=#dae8fc;strokeColor=#000000;" vertex="1" parent="C3oTDtUzSkQFr0_E5QP_-1">
          <mxGeometry x="680" y="1711" width="120" height="30" as="geometry" />
        </mxCell>
        <mxCell id="tOzsoQPiYIs_HtZVGgST-75" value="no uppercase letters" style="shape=parallelogram;perimeter=parallelogramPerimeter;whiteSpace=wrap;html=1;fixedSize=1;fillColor=#dae8fc;strokeColor=#000000;" vertex="1" parent="C3oTDtUzSkQFr0_E5QP_-1">
          <mxGeometry x="680" y="1806" width="120" height="60" as="geometry" />
        </mxCell>
        <mxCell id="tOzsoQPiYIs_HtZVGgST-76" value="" style="edgeStyle=orthogonalEdgeStyle;rounded=0;orthogonalLoop=1;jettySize=auto;html=1;" edge="1" parent="C3oTDtUzSkQFr0_E5QP_-1" source="tOzsoQPiYIs_HtZVGgST-77">
          <mxGeometry relative="1" as="geometry">
            <mxPoint x="909.5" y="1531" as="targetPoint" />
          </mxGeometry>
        </mxCell>
        <mxCell id="tOzsoQPiYIs_HtZVGgST-77" value="insert into database (database collumn names ) values = ?" style="rounded=0;whiteSpace=wrap;html=1;fillColor=#dae8fc;strokeColor=#6c8ebf;" vertex="1" parent="C3oTDtUzSkQFr0_E5QP_-1">
          <mxGeometry x="849.5" y="1391" width="120" height="40" as="geometry" />
        </mxCell>
        <mxCell id="tOzsoQPiYIs_HtZVGgST-78" value="" style="edgeStyle=orthogonalEdgeStyle;rounded=0;orthogonalLoop=1;jettySize=auto;html=1;" edge="1" parent="C3oTDtUzSkQFr0_E5QP_-1" source="tOzsoQPiYIs_HtZVGgST-79">
          <mxGeometry relative="1" as="geometry">
            <mxPoint x="909.5" y="1611" as="targetPoint" />
          </mxGeometry>
        </mxCell>
        <mxCell id="tOzsoQPiYIs_HtZVGgST-79" value="stmt prepare&lt;div&gt;bind parameter userid&lt;/div&gt;&lt;div&gt;bind parameter activity&lt;br&gt;&lt;/div&gt;&lt;div&gt;bind parameter logtime&lt;/div&gt;&lt;div&gt;exicute stmt&lt;span style=&quot;background-color: initial;&quot;&gt;&amp;nbsp;&lt;/span&gt;&lt;/div&gt;" style="rounded=0;whiteSpace=wrap;html=1;fillColor=#dae8fc;strokeColor=#6c8ebf;" vertex="1" parent="C3oTDtUzSkQFr0_E5QP_-1">
          <mxGeometry x="849.5" y="1461" width="120" height="110" as="geometry" />
        </mxCell>
        <mxCell id="tOzsoQPiYIs_HtZVGgST-80" value="" style="endArrow=classic;html=1;rounded=0;exitX=0.5;exitY=1;exitDx=0;exitDy=0;entryX=0.5;entryY=0;entryDx=0;entryDy=0;" edge="1" parent="C3oTDtUzSkQFr0_E5QP_-1" source="tOzsoQPiYIs_HtZVGgST-77" target="tOzsoQPiYIs_HtZVGgST-79">
          <mxGeometry width="50" height="50" relative="1" as="geometry">
            <mxPoint x="880.5" y="1501" as="sourcePoint" />
            <mxPoint x="930.5" y="1451" as="targetPoint" />
          </mxGeometry>
        </mxCell>
        <mxCell id="tOzsoQPiYIs_HtZVGgST-81" value="" style="edgeStyle=orthogonalEdgeStyle;rounded=0;orthogonalLoop=1;jettySize=auto;html=1;" edge="1" parent="C3oTDtUzSkQFr0_E5QP_-1" source="tOzsoQPiYIs_HtZVGgST-82" target="tOzsoQPiYIs_HtZVGgST-84">
          <mxGeometry relative="1" as="geometry" />
        </mxCell>
        <mxCell id="tOzsoQPiYIs_HtZVGgST-82" value="session unset&lt;div&gt;session destroy&lt;/div&gt;" style="rounded=0;whiteSpace=wrap;html=1;fillColor=#dae8fc;strokeColor=#000000;" vertex="1" parent="C3oTDtUzSkQFr0_E5QP_-1">
          <mxGeometry x="849.5" y="1611" width="120" height="60" as="geometry" />
        </mxCell>
        <mxCell id="tOzsoQPiYIs_HtZVGgST-83" value="" style="edgeStyle=orthogonalEdgeStyle;rounded=0;orthogonalLoop=1;jettySize=auto;html=1;" edge="1" parent="C3oTDtUzSkQFr0_E5QP_-1" source="tOzsoQPiYIs_HtZVGgST-84" target="tOzsoQPiYIs_HtZVGgST-85">
          <mxGeometry relative="1" as="geometry" />
        </mxCell>
        <mxCell id="tOzsoQPiYIs_HtZVGgST-84" value="redirect to update password" style="whiteSpace=wrap;html=1;fillColor=#dae8fc;strokeColor=#000000;" vertex="1" parent="C3oTDtUzSkQFr0_E5QP_-1">
          <mxGeometry x="849.5" y="1711" width="120" height="30" as="geometry" />
        </mxCell>
        <mxCell id="tOzsoQPiYIs_HtZVGgST-85" value="no numbers" style="shape=parallelogram;perimeter=parallelogramPerimeter;whiteSpace=wrap;html=1;fixedSize=1;fillColor=#dae8fc;strokeColor=#000000;" vertex="1" parent="C3oTDtUzSkQFr0_E5QP_-1">
          <mxGeometry x="849.5" y="1806" width="120" height="60" as="geometry" />
        </mxCell>
        <mxCell id="tOzsoQPiYIs_HtZVGgST-86" value="" style="edgeStyle=orthogonalEdgeStyle;rounded=0;orthogonalLoop=1;jettySize=auto;html=1;" edge="1" parent="C3oTDtUzSkQFr0_E5QP_-1" source="tOzsoQPiYIs_HtZVGgST-87">
          <mxGeometry relative="1" as="geometry">
            <mxPoint x="1120" y="1531" as="targetPoint" />
          </mxGeometry>
        </mxCell>
        <mxCell id="tOzsoQPiYIs_HtZVGgST-87" value="insert into database (database collumn names ) values = ?" style="rounded=0;whiteSpace=wrap;html=1;fillColor=#dae8fc;strokeColor=#6c8ebf;" vertex="1" parent="C3oTDtUzSkQFr0_E5QP_-1">
          <mxGeometry x="1060" y="1391" width="120" height="40" as="geometry" />
        </mxCell>
        <mxCell id="tOzsoQPiYIs_HtZVGgST-88" value="" style="edgeStyle=orthogonalEdgeStyle;rounded=0;orthogonalLoop=1;jettySize=auto;html=1;" edge="1" parent="C3oTDtUzSkQFr0_E5QP_-1" source="tOzsoQPiYIs_HtZVGgST-89">
          <mxGeometry relative="1" as="geometry">
            <mxPoint x="1120" y="1611" as="targetPoint" />
          </mxGeometry>
        </mxCell>
        <mxCell id="tOzsoQPiYIs_HtZVGgST-89" value="stmt prepare&lt;div&gt;bind parameter userid&lt;/div&gt;&lt;div&gt;bind parameter activity&lt;br&gt;&lt;/div&gt;&lt;div&gt;bind parameter logtime&lt;/div&gt;&lt;div&gt;exicute stmt&lt;span style=&quot;background-color: initial;&quot;&gt;&amp;nbsp;&lt;/span&gt;&lt;/div&gt;" style="rounded=0;whiteSpace=wrap;html=1;fillColor=#dae8fc;strokeColor=#6c8ebf;" vertex="1" parent="C3oTDtUzSkQFr0_E5QP_-1">
          <mxGeometry x="1060" y="1461" width="120" height="110" as="geometry" />
        </mxCell>
        <mxCell id="tOzsoQPiYIs_HtZVGgST-90" value="" style="endArrow=classic;html=1;rounded=0;exitX=0.5;exitY=1;exitDx=0;exitDy=0;entryX=0.5;entryY=0;entryDx=0;entryDy=0;" edge="1" parent="C3oTDtUzSkQFr0_E5QP_-1" source="tOzsoQPiYIs_HtZVGgST-87" target="tOzsoQPiYIs_HtZVGgST-89">
          <mxGeometry width="50" height="50" relative="1" as="geometry">
            <mxPoint x="1091" y="1501" as="sourcePoint" />
            <mxPoint x="1141" y="1451" as="targetPoint" />
          </mxGeometry>
        </mxCell>
        <mxCell id="tOzsoQPiYIs_HtZVGgST-91" value="" style="edgeStyle=orthogonalEdgeStyle;rounded=0;orthogonalLoop=1;jettySize=auto;html=1;" edge="1" parent="C3oTDtUzSkQFr0_E5QP_-1" source="tOzsoQPiYIs_HtZVGgST-92" target="tOzsoQPiYIs_HtZVGgST-94">
          <mxGeometry relative="1" as="geometry" />
        </mxCell>
        <mxCell id="tOzsoQPiYIs_HtZVGgST-92" value="session unset&lt;div&gt;session destroy&lt;/div&gt;" style="rounded=0;whiteSpace=wrap;html=1;fillColor=#dae8fc;strokeColor=#000000;" vertex="1" parent="C3oTDtUzSkQFr0_E5QP_-1">
          <mxGeometry x="1060" y="1611" width="120" height="60" as="geometry" />
        </mxCell>
        <mxCell id="tOzsoQPiYIs_HtZVGgST-93" value="" style="edgeStyle=orthogonalEdgeStyle;rounded=0;orthogonalLoop=1;jettySize=auto;html=1;" edge="1" parent="C3oTDtUzSkQFr0_E5QP_-1" source="tOzsoQPiYIs_HtZVGgST-94" target="tOzsoQPiYIs_HtZVGgST-95">
          <mxGeometry relative="1" as="geometry" />
        </mxCell>
        <mxCell id="tOzsoQPiYIs_HtZVGgST-94" value="redirect to update password" style="whiteSpace=wrap;html=1;fillColor=#dae8fc;strokeColor=#000000;" vertex="1" parent="C3oTDtUzSkQFr0_E5QP_-1">
          <mxGeometry x="1060" y="1711" width="120" height="30" as="geometry" />
        </mxCell>
        <mxCell id="tOzsoQPiYIs_HtZVGgST-95" value="no special characters" style="shape=parallelogram;perimeter=parallelogramPerimeter;whiteSpace=wrap;html=1;fixedSize=1;fillColor=#dae8fc;strokeColor=#000000;" vertex="1" parent="C3oTDtUzSkQFr0_E5QP_-1">
          <mxGeometry x="1060" y="1806" width="120" height="60" as="geometry" />
        </mxCell>
        <mxCell id="tOzsoQPiYIs_HtZVGgST-97" value="" style="endArrow=classic;html=1;rounded=0;exitX=0.5;exitY=1;exitDx=0;exitDy=0;entryX=0.5;entryY=0;entryDx=0;entryDy=0;" edge="1" parent="C3oTDtUzSkQFr0_E5QP_-1" source="tOzsoQPiYIs_HtZVGgST-35" target="tOzsoQPiYIs_HtZVGgST-87">
          <mxGeometry width="50" height="50" relative="1" as="geometry">
            <mxPoint x="750" y="1311" as="sourcePoint" />
            <mxPoint x="800" y="1261" as="targetPoint" />
          </mxGeometry>
        </mxCell>
        <mxCell id="tOzsoQPiYIs_HtZVGgST-98" value="" style="edgeStyle=orthogonalEdgeStyle;rounded=0;orthogonalLoop=1;jettySize=auto;html=1;" edge="1" parent="C3oTDtUzSkQFr0_E5QP_-1">
          <mxGeometry relative="1" as="geometry">
            <mxPoint x="1337" y="1671" as="targetPoint" />
            <mxPoint x="1337" y="1571" as="sourcePoint" />
          </mxGeometry>
        </mxCell>
        <mxCell id="tOzsoQPiYIs_HtZVGgST-99" value="insert into database (database collumn names ) values = ?" style="rounded=0;whiteSpace=wrap;html=1;fillColor=#dae8fc;strokeColor=#6c8ebf;" vertex="1" parent="C3oTDtUzSkQFr0_E5QP_-1">
          <mxGeometry x="1277" y="1390" width="120" height="40" as="geometry" />
        </mxCell>
        <mxCell id="tOzsoQPiYIs_HtZVGgST-101" value="stmt prepare&lt;div&gt;bind parameter userid&lt;/div&gt;&lt;div&gt;bind parameter activity&lt;br&gt;&lt;/div&gt;&lt;div&gt;bind parameter logtime&lt;/div&gt;&lt;div&gt;exicute stmt&lt;span style=&quot;background-color: initial;&quot;&gt;&amp;nbsp;&lt;/span&gt;&lt;/div&gt;" style="rounded=0;whiteSpace=wrap;html=1;fillColor=#dae8fc;strokeColor=#6c8ebf;" vertex="1" parent="C3oTDtUzSkQFr0_E5QP_-1">
          <mxGeometry x="1277" y="1460" width="120" height="110" as="geometry" />
        </mxCell>
        <mxCell id="tOzsoQPiYIs_HtZVGgST-102" value="" style="endArrow=classic;html=1;rounded=0;exitX=0.5;exitY=1;exitDx=0;exitDy=0;entryX=0.5;entryY=0;entryDx=0;entryDy=0;" edge="1" parent="C3oTDtUzSkQFr0_E5QP_-1">
          <mxGeometry width="50" height="50" relative="1" as="geometry">
            <mxPoint x="1337" y="1571" as="sourcePoint" />
            <mxPoint x="1337" y="1601" as="targetPoint" />
          </mxGeometry>
        </mxCell>
        <mxCell id="tOzsoQPiYIs_HtZVGgST-103" value="" style="edgeStyle=orthogonalEdgeStyle;rounded=0;orthogonalLoop=1;jettySize=auto;html=1;" edge="1" parent="C3oTDtUzSkQFr0_E5QP_-1">
          <mxGeometry relative="1" as="geometry">
            <mxPoint x="1337" y="1811" as="sourcePoint" />
            <mxPoint x="1337" y="1851" as="targetPoint" />
          </mxGeometry>
        </mxCell>
        <mxCell id="tOzsoQPiYIs_HtZVGgST-151" value="" style="edgeStyle=orthogonalEdgeStyle;rounded=0;orthogonalLoop=1;jettySize=auto;html=1;" edge="1" parent="C3oTDtUzSkQFr0_E5QP_-1" source="tOzsoQPiYIs_HtZVGgST-104" target="tOzsoQPiYIs_HtZVGgST-106">
          <mxGeometry relative="1" as="geometry" />
        </mxCell>
        <mxCell id="tOzsoQPiYIs_HtZVGgST-104" value="session unset&lt;div&gt;session destroy&lt;/div&gt;" style="rounded=0;whiteSpace=wrap;html=1;fillColor=#dae8fc;strokeColor=#000000;" vertex="1" parent="C3oTDtUzSkQFr0_E5QP_-1">
          <mxGeometry x="1277" y="1610" width="120" height="60" as="geometry" />
        </mxCell>
        <mxCell id="tOzsoQPiYIs_HtZVGgST-153" value="" style="edgeStyle=orthogonalEdgeStyle;rounded=0;orthogonalLoop=1;jettySize=auto;html=1;" edge="1" parent="C3oTDtUzSkQFr0_E5QP_-1" source="tOzsoQPiYIs_HtZVGgST-106" target="tOzsoQPiYIs_HtZVGgST-107">
          <mxGeometry relative="1" as="geometry" />
        </mxCell>
        <mxCell id="tOzsoQPiYIs_HtZVGgST-106" value="redirect to update password" style="whiteSpace=wrap;html=1;fillColor=#dae8fc;strokeColor=#000000;" vertex="1" parent="C3oTDtUzSkQFr0_E5QP_-1">
          <mxGeometry x="1277" y="1710" width="120" height="30" as="geometry" />
        </mxCell>
        <mxCell id="tOzsoQPiYIs_HtZVGgST-107" value="password too short" style="shape=parallelogram;perimeter=parallelogramPerimeter;whiteSpace=wrap;html=1;fixedSize=1;fillColor=#dae8fc;strokeColor=#000000;" vertex="1" parent="C3oTDtUzSkQFr0_E5QP_-1">
          <mxGeometry x="1277" y="1805" width="120" height="60" as="geometry" />
        </mxCell>
        <mxCell id="tOzsoQPiYIs_HtZVGgST-111" value="" style="endArrow=none;html=1;rounded=0;entryX=1;entryY=0.5;entryDx=0;entryDy=0;" edge="1" parent="C3oTDtUzSkQFr0_E5QP_-1" target="YRkcXdcECK9PuHrTwfVZ-26">
          <mxGeometry width="50" height="50" relative="1" as="geometry">
            <mxPoint x="1440" y="1940" as="sourcePoint" />
            <mxPoint x="800" y="1510" as="targetPoint" />
            <Array as="points">
              <mxPoint x="1440" y="1125" />
            </Array>
          </mxGeometry>
        </mxCell>
        <mxCell id="tOzsoQPiYIs_HtZVGgST-113" value="" style="endArrow=none;html=1;rounded=0;" edge="1" parent="C3oTDtUzSkQFr0_E5QP_-1">
          <mxGeometry width="50" height="50" relative="1" as="geometry">
            <mxPoint x="120" y="1901" as="sourcePoint" />
            <mxPoint x="1340" y="1901" as="targetPoint" />
          </mxGeometry>
        </mxCell>
        <mxCell id="tOzsoQPiYIs_HtZVGgST-114" value="" style="endArrow=none;html=1;rounded=0;entryX=0.5;entryY=1;entryDx=0;entryDy=0;" edge="1" parent="C3oTDtUzSkQFr0_E5QP_-1" target="YRkcXdcECK9PuHrTwfVZ-16">
          <mxGeometry width="50" height="50" relative="1" as="geometry">
            <mxPoint x="120" y="1901" as="sourcePoint" />
            <mxPoint x="800" y="1851" as="targetPoint" />
          </mxGeometry>
        </mxCell>
        <mxCell id="tOzsoQPiYIs_HtZVGgST-115" value="" style="endArrow=none;html=1;rounded=0;entryX=0.5;entryY=1;entryDx=0;entryDy=0;" edge="1" parent="C3oTDtUzSkQFr0_E5QP_-1" target="tOzsoQPiYIs_HtZVGgST-55">
          <mxGeometry width="50" height="50" relative="1" as="geometry">
            <mxPoint x="304" y="1901" as="sourcePoint" />
            <mxPoint x="800" y="1851" as="targetPoint" />
          </mxGeometry>
        </mxCell>
        <mxCell id="tOzsoQPiYIs_HtZVGgST-116" value="" style="endArrow=none;html=1;rounded=0;entryX=0.5;entryY=1;entryDx=0;entryDy=0;" edge="1" parent="C3oTDtUzSkQFr0_E5QP_-1" target="tOzsoQPiYIs_HtZVGgST-65">
          <mxGeometry width="50" height="50" relative="1" as="geometry">
            <mxPoint x="520" y="1901" as="sourcePoint" />
            <mxPoint x="314" y="1876" as="targetPoint" />
          </mxGeometry>
        </mxCell>
        <mxCell id="tOzsoQPiYIs_HtZVGgST-117" value="" style="endArrow=none;html=1;rounded=0;entryX=0.5;entryY=1;entryDx=0;entryDy=0;" edge="1" parent="C3oTDtUzSkQFr0_E5QP_-1">
          <mxGeometry width="50" height="50" relative="1" as="geometry">
            <mxPoint x="736" y="1902" as="sourcePoint" />
            <mxPoint x="736" y="1867" as="targetPoint" />
          </mxGeometry>
        </mxCell>
        <mxCell id="tOzsoQPiYIs_HtZVGgST-118" value="" style="endArrow=none;html=1;rounded=0;exitX=0.5;exitY=1;exitDx=0;exitDy=0;" edge="1" parent="C3oTDtUzSkQFr0_E5QP_-1" source="tOzsoQPiYIs_HtZVGgST-85">
          <mxGeometry width="50" height="50" relative="1" as="geometry">
            <mxPoint x="746" y="1912" as="sourcePoint" />
            <mxPoint x="910" y="1901" as="targetPoint" />
          </mxGeometry>
        </mxCell>
        <mxCell id="tOzsoQPiYIs_HtZVGgST-119" value="" style="endArrow=none;html=1;rounded=0;exitX=0.5;exitY=1;exitDx=0;exitDy=0;" edge="1" parent="C3oTDtUzSkQFr0_E5QP_-1" source="tOzsoQPiYIs_HtZVGgST-95">
          <mxGeometry width="50" height="50" relative="1" as="geometry">
            <mxPoint x="920" y="1876" as="sourcePoint" />
            <mxPoint x="1120" y="1901" as="targetPoint" />
          </mxGeometry>
        </mxCell>
        <mxCell id="tOzsoQPiYIs_HtZVGgST-120" value="" style="endArrow=none;html=1;rounded=0;exitX=0.5;exitY=1;exitDx=0;exitDy=0;" edge="1" parent="C3oTDtUzSkQFr0_E5QP_-1">
          <mxGeometry width="50" height="50" relative="1" as="geometry">
            <mxPoint x="1337" y="1866" as="sourcePoint" />
            <mxPoint x="1340" y="1901" as="targetPoint" />
          </mxGeometry>
        </mxCell>
        <mxCell id="tOzsoQPiYIs_HtZVGgST-121" value="" style="endArrow=none;html=1;rounded=0;" edge="1" parent="C3oTDtUzSkQFr0_E5QP_-1">
          <mxGeometry width="50" height="50" relative="1" as="geometry">
            <mxPoint x="1250" y="1940" as="sourcePoint" />
            <mxPoint x="1440" y="1940" as="targetPoint" />
          </mxGeometry>
        </mxCell>
        <mxCell id="tOzsoQPiYIs_HtZVGgST-123" value="" style="endArrow=classic;html=1;rounded=0;" edge="1" parent="C3oTDtUzSkQFr0_E5QP_-1">
          <mxGeometry width="50" height="50" relative="1" as="geometry">
            <mxPoint x="1250" y="1941" as="sourcePoint" />
            <mxPoint x="1250" y="2021" as="targetPoint" />
          </mxGeometry>
        </mxCell>
        <mxCell id="tOzsoQPiYIs_HtZVGgST-127" value="" style="edgeStyle=orthogonalEdgeStyle;rounded=0;orthogonalLoop=1;jettySize=auto;html=1;" edge="1" parent="C3oTDtUzSkQFr0_E5QP_-1" source="tOzsoQPiYIs_HtZVGgST-125" target="tOzsoQPiYIs_HtZVGgST-126">
          <mxGeometry relative="1" as="geometry" />
        </mxCell>
        <mxCell id="tOzsoQPiYIs_HtZVGgST-125" value="hashed password = password hash new password" style="whiteSpace=wrap;html=1;fillColor=#dae8fc;strokeColor=#000000;" vertex="1" parent="C3oTDtUzSkQFr0_E5QP_-1">
          <mxGeometry x="1180" y="2021" width="140" height="50" as="geometry" />
        </mxCell>
        <mxCell id="tOzsoQPiYIs_HtZVGgST-129" value="" style="edgeStyle=orthogonalEdgeStyle;rounded=0;orthogonalLoop=1;jettySize=auto;html=1;" edge="1" parent="C3oTDtUzSkQFr0_E5QP_-1" source="tOzsoQPiYIs_HtZVGgST-126" target="tOzsoQPiYIs_HtZVGgST-128">
          <mxGeometry relative="1" as="geometry" />
        </mxCell>
        <mxCell id="tOzsoQPiYIs_HtZVGgST-126" value="insert into database (database collumn names ) values = ?" style="rounded=0;whiteSpace=wrap;html=1;fillColor=#dae8fc;strokeColor=#6c8ebf;" vertex="1" parent="C3oTDtUzSkQFr0_E5QP_-1">
          <mxGeometry x="1190" y="2121" width="120" height="40" as="geometry" />
        </mxCell>
        <mxCell id="tOzsoQPiYIs_HtZVGgST-143" value="" style="edgeStyle=orthogonalEdgeStyle;rounded=0;orthogonalLoop=1;jettySize=auto;html=1;" edge="1" parent="C3oTDtUzSkQFr0_E5QP_-1" source="tOzsoQPiYIs_HtZVGgST-128" target="tOzsoQPiYIs_HtZVGgST-131">
          <mxGeometry relative="1" as="geometry" />
        </mxCell>
        <mxCell id="tOzsoQPiYIs_HtZVGgST-128" value="stmt prepare&lt;div&gt;bind parameter hashed password&lt;/div&gt;&lt;div&gt;bind parameter userid&lt;/div&gt;&lt;div&gt;exicute stmt&lt;span style=&quot;background-color: initial;&quot;&gt;&amp;nbsp;&lt;/span&gt;&lt;/div&gt;" style="rounded=0;whiteSpace=wrap;html=1;fillColor=#dae8fc;strokeColor=#6c8ebf;" vertex="1" parent="C3oTDtUzSkQFr0_E5QP_-1">
          <mxGeometry x="1190" y="2221" width="120" height="110" as="geometry" />
        </mxCell>
        <mxCell id="tOzsoQPiYIs_HtZVGgST-130" value="" style="edgeStyle=orthogonalEdgeStyle;rounded=0;orthogonalLoop=1;jettySize=auto;html=1;" edge="1" parent="C3oTDtUzSkQFr0_E5QP_-1" source="tOzsoQPiYIs_HtZVGgST-131" target="tOzsoQPiYIs_HtZVGgST-133">
          <mxGeometry relative="1" as="geometry" />
        </mxCell>
        <mxCell id="tOzsoQPiYIs_HtZVGgST-131" value="activity = spc" style="whiteSpace=wrap;html=1;fillColor=#dae8fc;strokeColor=#000000;" vertex="1" parent="C3oTDtUzSkQFr0_E5QP_-1">
          <mxGeometry x="1190" y="2381" width="120" height="30" as="geometry" />
        </mxCell>
        <mxCell id="tOzsoQPiYIs_HtZVGgST-132" value="" style="edgeStyle=orthogonalEdgeStyle;rounded=0;orthogonalLoop=1;jettySize=auto;html=1;" edge="1" parent="C3oTDtUzSkQFr0_E5QP_-1" source="tOzsoQPiYIs_HtZVGgST-133">
          <mxGeometry relative="1" as="geometry">
            <mxPoint x="1250.5" y="2531" as="targetPoint" />
          </mxGeometry>
        </mxCell>
        <mxCell id="tOzsoQPiYIs_HtZVGgST-133" value="logtime = time" style="whiteSpace=wrap;html=1;fillColor=#dae8fc;strokeColor=#000000;" vertex="1" parent="C3oTDtUzSkQFr0_E5QP_-1">
          <mxGeometry x="1190" y="2451" width="120" height="30" as="geometry" />
        </mxCell>
        <mxCell id="tOzsoQPiYIs_HtZVGgST-135" value="" style="edgeStyle=orthogonalEdgeStyle;rounded=0;orthogonalLoop=1;jettySize=auto;html=1;" edge="1" parent="C3oTDtUzSkQFr0_E5QP_-1" source="tOzsoQPiYIs_HtZVGgST-136">
          <mxGeometry relative="1" as="geometry">
            <mxPoint x="1250" y="2671" as="targetPoint" />
          </mxGeometry>
        </mxCell>
        <mxCell id="tOzsoQPiYIs_HtZVGgST-136" value="insert into database (database collumn names ) values = ?" style="rounded=0;whiteSpace=wrap;html=1;fillColor=#dae8fc;strokeColor=#6c8ebf;" vertex="1" parent="C3oTDtUzSkQFr0_E5QP_-1">
          <mxGeometry x="1190" y="2531" width="120" height="40" as="geometry" />
        </mxCell>
        <mxCell id="tOzsoQPiYIs_HtZVGgST-137" value="" style="edgeStyle=orthogonalEdgeStyle;rounded=0;orthogonalLoop=1;jettySize=auto;html=1;" edge="1" parent="C3oTDtUzSkQFr0_E5QP_-1" source="tOzsoQPiYIs_HtZVGgST-138">
          <mxGeometry relative="1" as="geometry">
            <mxPoint x="1250" y="2751" as="targetPoint" />
          </mxGeometry>
        </mxCell>
        <mxCell id="tOzsoQPiYIs_HtZVGgST-138" value="stmt prepare&lt;div&gt;bind parameter userid&lt;/div&gt;&lt;div&gt;bind parameter activity&lt;br&gt;&lt;/div&gt;&lt;div&gt;bind parameter logtime&lt;/div&gt;&lt;div&gt;exicute stmt&lt;span style=&quot;background-color: initial;&quot;&gt;&amp;nbsp;&lt;/span&gt;&lt;/div&gt;" style="rounded=0;whiteSpace=wrap;html=1;fillColor=#dae8fc;strokeColor=#6c8ebf;" vertex="1" parent="C3oTDtUzSkQFr0_E5QP_-1">
          <mxGeometry x="1190" y="2601" width="120" height="110" as="geometry" />
        </mxCell>
        <mxCell id="tOzsoQPiYIs_HtZVGgST-139" value="" style="endArrow=classic;html=1;rounded=0;exitX=0.5;exitY=1;exitDx=0;exitDy=0;entryX=0.5;entryY=0;entryDx=0;entryDy=0;" edge="1" parent="C3oTDtUzSkQFr0_E5QP_-1" source="tOzsoQPiYIs_HtZVGgST-136" target="tOzsoQPiYIs_HtZVGgST-138">
          <mxGeometry width="50" height="50" relative="1" as="geometry">
            <mxPoint x="1221" y="2641" as="sourcePoint" />
            <mxPoint x="1271" y="2591" as="targetPoint" />
          </mxGeometry>
        </mxCell>
        <mxCell id="tOzsoQPiYIs_HtZVGgST-140" value="" style="edgeStyle=orthogonalEdgeStyle;rounded=0;orthogonalLoop=1;jettySize=auto;html=1;" edge="1" parent="C3oTDtUzSkQFr0_E5QP_-1" source="tOzsoQPiYIs_HtZVGgST-141" target="tOzsoQPiYIs_HtZVGgST-142">
          <mxGeometry relative="1" as="geometry" />
        </mxCell>
        <mxCell id="tOzsoQPiYIs_HtZVGgST-141" value="session unset&lt;div&gt;session destroy&lt;/div&gt;" style="rounded=0;whiteSpace=wrap;html=1;fillColor=#dae8fc;strokeColor=#000000;" vertex="1" parent="C3oTDtUzSkQFr0_E5QP_-1">
          <mxGeometry x="1190" y="2751" width="120" height="60" as="geometry" />
        </mxCell>
        <mxCell id="tOzsoQPiYIs_HtZVGgST-142" value="redirect to update password" style="whiteSpace=wrap;html=1;fillColor=#dae8fc;strokeColor=#000000;" vertex="1" parent="C3oTDtUzSkQFr0_E5QP_-1">
          <mxGeometry x="1190" y="2851" width="120" height="30" as="geometry" />
        </mxCell>
        <mxCell id="tOzsoQPiYIs_HtZVGgST-146" value="" style="edgeStyle=orthogonalEdgeStyle;rounded=0;orthogonalLoop=1;jettySize=auto;html=1;" edge="1" parent="C3oTDtUzSkQFr0_E5QP_-1" source="tOzsoQPiYIs_HtZVGgST-144" target="C3oTDtUzSkQFr0_E5QP_-11">
          <mxGeometry relative="1" as="geometry" />
        </mxCell>
        <mxCell id="tOzsoQPiYIs_HtZVGgST-144" value="userid = session userid" style="rounded=0;whiteSpace=wrap;html=1;fillColor=#dae8fc;strokeColor=#6c8ebf;" vertex="1" parent="C3oTDtUzSkQFr0_E5QP_-1">
          <mxGeometry x="230" y="360" width="140" height="40" as="geometry" />
        </mxCell>
        <mxCell id="tOzsoQPiYIs_HtZVGgST-150" value="" style="endArrow=classic;html=1;rounded=0;exitX=0.5;exitY=1;exitDx=0;exitDy=0;" edge="1" parent="C3oTDtUzSkQFr0_E5QP_-1" source="YRkcXdcECK9PuHrTwfVZ-26" target="tOzsoQPiYIs_HtZVGgST-37">
          <mxGeometry width="50" height="50" relative="1" as="geometry">
            <mxPoint x="1010" y="1320" as="sourcePoint" />
            <mxPoint x="1060" y="1270" as="targetPoint" />
          </mxGeometry>
        </mxCell>
        <mxCell id="tOzsoQPiYIs_HtZVGgST-154" value="yes" style="text;html=1;align=center;verticalAlign=middle;resizable=0;points=[];autosize=1;strokeColor=none;fillColor=none;" vertex="1" parent="C3oTDtUzSkQFr0_E5QP_-1">
          <mxGeometry x="1400" y="1098" width="40" height="30" as="geometry" />
        </mxCell>
      </root>
    </mxGraphModel>
  </diagram>
</mxfile>
